<?xml version="1.0" encoding="UTF-8" standalone="no"?>
<svg width="45px" height="63px" viewBox="0 0 45 63" version="1.1" xmlns="http://www.w3.org/2000/svg" xmlns:xlink="http://www.w3.org/1999/xlink" xmlns:sketch="http://www.bohemiancoding.com/sketch/ns">
    <!-- Generator: Sketch 3.4 (15575) - http://www.bohemiancoding.com/sketch -->
    <title>ic_location_on_black_48px + logo</title>
    <desc>Created with Sketch.</desc>
    <defs></defs>
    <g id="Page-1" stroke="none" stroke-width="1" fill="none" fill-rule="evenodd" sketch:type="MSPage">
        <g id="ic_location_on_black_48px-+-logo" sketch:type="MSLayerGroup" transform="translate(-15.000000, -6.000000)">
            <g id="ic_location_on_black_48px" sketch:type="MSShapeGroup">
                <path d="M37.5,6.25 C25.40625,6.25 15.625,16.03125 15.625,28.125 C15.625,44.53125 37.5,68.75 37.5,68.75 C37.5,68.75 59.375,44.53125 59.375,28.125 C59.375,16.03125 49.59375,6.25 37.5,6.25 Z" id="Shape" fill="#FA4A86"></path>
                <path d="M0,0 L75,0 L75,75 L0,75 L0,0 Z" id="Shape"></path>
            </g>
            <g id="logo" transform="translate(25.000000, 25.000000)" fill="#FFFFFF" sketch:type="MSShapeGroup">
                <path d="M6.68156902,10.3637723 C5.14640019,10.3637723 3.89695269,11.769922 3.89695269,13.497269 C3.89695269,15.2257829 5.14640019,16.6313492 6.68156902,16.6313492 C8.21751569,16.6313492 9.46722246,15.2257829 9.46722246,13.497269 C9.46722246,11.769922 8.21751569,10.3637723 6.68156902,10.3637723 L6.68156902,10.3637723 Z" id="Fill-126"></path>
                <path d="M19.0614443,10.3637723 C17.5260162,10.3637723 16.2765687,11.769922 16.2765687,13.497269 C16.2765687,15.2257829 17.5260162,16.6313492 19.0614443,16.6313492 C20.5979095,16.6313492 21.8470978,15.2257829 21.8470978,13.497269 C21.8470978,11.769922 20.5979095,10.3637723 19.0614443,10.3637723 L19.0614443,10.3637723 Z" id="Fill-127"></path>
                <path d="M19.4335043,6.2089208 L19.4335043,3.12268473 C19.9709819,3.49289303 20.4820135,3.91736353 20.9642655,4.39580452 C21.6339735,5.06037071 22.1216703,5.71122549 22.4434309,6.1981267 C21.6821987,6.20104403 20.6412085,6.20483655 19.4335043,6.2089208 L19.4335043,6.2089208 Z M13.7050766,6.22963379 L13.7050766,1.28681333 C13.9672039,1.28885545 14.2329611,1.3028586 14.5020888,1.33028144 C16.0227382,1.48781689 17.4230839,1.93212519 18.6896436,2.65562131 L18.6896436,6.21183812 C17.1713276,6.21738104 15.4455915,6.22321568 13.7050766,6.22963379 L13.7050766,6.22963379 Z M13.9376466,8.70877493 L12.728646,8.70877493 C12.5717845,8.70877493 12.4447396,8.56553437 12.4447396,8.38845286 C12.4447396,8.21224655 12.5717845,8.06842252 12.728646,8.06842252 L13.2233432,8.06842252 C13.2578268,8.08038355 13.2949032,8.08738512 13.3327574,8.08738512 C13.3716487,8.08738512 13.4082065,8.08038355 13.4426901,8.06842252 L13.9376466,8.06842252 C14.0947674,8.06842252 14.2212937,8.21224655 14.2212937,8.38845286 C14.2212937,8.56553437 14.0947674,8.70877493 13.9376466,8.70877493 L13.9376466,8.70877493 Z M6.19361298,6.25559797 C6.5161514,5.67154989 7.11378089,4.72021084 8.00102084,3.81088124 C9.4584071,2.31750356 11.1216579,1.48198224 12.9612159,1.31657002 L12.9612159,6.23196765 C10.5009529,6.24101135 8.06532111,6.24947159 6.19361298,6.25559797 L6.19361298,6.25559797 Z M23.9381528,6.41955153 C23.9083361,6.36208026 23.2453693,4.95622228 21.7615369,3.47072137 C20.399564,2.10658111 18.0518264,0.404906564 14.606836,0.0487014174 C11.8367391,-0.23807144 9.27535876,0.745649898 7.1975268,2.89338314 C5.64006029,4.503162 4.90682984,6.18879127 4.87623536,6.25939049 C4.87623536,6.25939049 4.87623536,6.25939049 4.87623536,6.26026569 C3.73049797,6.26376647 2.96952507,6.26639206 2.81370064,6.26639206 C-0.47883594,6.26639206 -1.41637529,13.3671564 2.93659711,13.3671564 C3.22854106,13.3671564 1.95031401,13.390495 3.32732493,13.390495 C3.37762433,11.3568291 4.86275305,9.71991911 6.68156902,9.71991911 C8.50116283,9.71991911 9.98629154,11.3568291 10.0365909,13.390495 L15.6880139,13.390495 C15.7383133,11.3454515 17.2319981,9.69862265 19.0614443,9.69862265 C20.8880386,9.69862265 22.3801677,11.3396169 22.4353933,13.3797009 C26.5042,13.0885521 24.5479682,7.60456815 23.9381528,6.41955153 L23.9381528,6.41955153 Z" id="Fill-128"></path>
            </g>
        </g>
    </g>
</svg>