<?xml version="1.0" encoding="UTF-8" standalone="no"?>
<svg width="323px" height="265px" viewBox="0 0 323 265" version="1.1" xmlns="http://www.w3.org/2000/svg" xmlns:xlink="http://www.w3.org/1999/xlink">
    <!-- Generator: Sketch 3.8.3 (29802) - http://www.bohemiancoding.com/sketch -->
    <title>Group 4</title>
    <desc>Created with Sketch.</desc>
    <defs>
        <filter x="-50%" y="-50%" width="200%" height="200%" filterUnits="objectBoundingBox" id="filter-1">
            <feOffset dx="0" dy="2" in="SourceAlpha" result="shadowOffsetOuter1"></feOffset>
            <feGaussianBlur stdDeviation="4.5" in="shadowOffsetOuter1" result="shadowBlurOuter1"></feGaussianBlur>
            <feColorMatrix values="0 0 0 0 0   0 0 0 0 0   0 0 0 0 0  0 0 0 0.2 0" type="matrix" in="shadowBlurOuter1" result="shadowMatrixOuter1"></feColorMatrix>
            <feMerge>
                <feMergeNode in="shadowMatrixOuter1"></feMergeNode>
                <feMergeNode in="SourceGraphic"></feMergeNode>
            </feMerge>
        </filter>
    </defs>
    <g id="Page-1" stroke="none" stroke-width="1" fill="none" fill-rule="evenodd">
        <g id="Desktop-HD" transform="translate(-344.000000, -1500.000000)">
            <g id="Group-4" transform="translate(344.000000, 1507.000000)">
                <rect id="Rectangle-1" fill="#FFFFFF" x="0" y="1" width="323" height="247"></rect>
                <g id="Group" filter="url(#filter-1)" transform="translate(67.000000, 0.000000)">
                    <polygon id="Fill-34" fill="#FFFFFF" points="0.899854568 219.45386 188.71319 219.45386 188.71319 191.364758 0.899854568 191.364758"></polygon>
                    <path d="M45.2315248,185.204383 C45.2315248,196.218123 35.3083712,205.142098 23.0656897,205.142098 C10.8244642,205.142098 4.59828597,208.790109 0.899854568,217.632759 L0.899854568,20.5385243 C0.899854568,9.52623724 10.8244642,0.599357537 23.0656897,0.599357537 C35.3083712,0.599357537 45.2315248,9.52623724 45.2315248,20.5385243 L45.2315248,185.204383" id="Fill-35" fill="#3E579C"></path>
                    <polygon id="Fill-36" fill="#4D6DC3" points="21.8120088 205.147907 188.71319 205.147907 188.71319 0.539815961 21.8120088 0.539815961"></polygon>
                    <path d="M23.0656897,0.599357537 C21.0024309,0.599357537 19.0119759,0.875281914 17.1161658,1.34871006 L17.1161658,205.499347 C18.9246114,205.262633 20.8990495,205.142098 23.0656897,205.142098 C35.3083712,205.142098 45.2315248,196.218123 45.2315248,185.204383 L45.2315248,20.5385243 C45.2315248,9.52623724 35.3083712,0.599357537 23.0656897,0.599357537" id="Fill-37" fill="#6584DA"></path>
                    <polygon id="Fill-38" fill="#4D6DC3" points="21.8120088 205.147907 100.566756 205.147907 100.566756 0.539815961 21.8120088 0.539815961"></polygon>
                    <path d="M188.71319,205.147907 L12.3737284,205.147907 C6.03688841,205.147907 0.899854568,211.08609 0.899854568,218.414061 C0.899854568,225.739127 6.03688841,231.67731 12.3737284,231.67731 L188.71319,231.67731 L188.71319,205.147907" id="Fill-39" fill="#FFFFFF"></path>
                    <path d="M181.996314,229.530908 L181.996314,213.992009 L182.648636,213.992009 L182.648636,207.228958 L188.71319,207.228958 L188.71319,205.147907 L12.3737284,205.147907 C6.03688841,205.147907 0.899854568,211.08609 0.899854568,218.414061 C0.899854568,225.739127 6.03688841,231.67731 12.3737284,231.67731 L188.71319,231.67731 L188.71319,229.530908 L181.996314,229.530908" id="Fill-40" fill="#173F5D"></path>
                    <path d="M188.71319,207.228958 L12.3737284,207.228958 C7.1959244,207.228958 2.98495447,212.246425 2.98495447,218.414061 C2.98495447,224.581697 7.1959244,229.596259 12.3737284,229.596259 L188.71319,229.596259 L188.71319,207.228958" id="Fill-41" fill="#FFFFFF"></path>
                    <path d="M3.00825168,218.672558 C3.12473771,224.718206 7.27164031,229.596259 12.3737284,229.596259 L188.71319,229.596259 L188.71319,218.672558 L3.00825168,218.672558" id="Fill-42" fill="#FFFFFF"></path>
                    <polyline id="Fill-112-Copy" fill="#56B68B" points="42.2261852 247.265382 43.3662922 208.765421 67.6842067 209.242223 66.5455558 247.74337 54.6334033 239.133659 42.2261852 247.265382"></polyline>
                    <polyline id="Fill-112" fill="#E65C97" points="27.6654317 228.469131 28.8055387 208.469165 53.1234532 208.896706 51.9848023 243.42007 40.0726498 235.69988 27.6654317 242.991466"></polyline>
                    <path d="M151.159551,106.311795 C151.159551,134.180157 128.507386,156.771103 100.566756,156.771103 C72.6261265,156.771103 49.9754183,134.180157 49.9754183,106.311795 C49.9754183,78.4448854 72.6261265,55.8524879 100.566756,55.8524879 C128.507386,55.8524879 151.159551,78.4448854 151.159551,106.311795" id="Fill-43" fill="#395CBD"></path>
                    <path d="M100.566756,55.8524879 L100.566756,156.771103 C128.507386,156.771103 151.159551,134.180157 151.159551,106.311795 C151.159551,78.4448854 128.507386,55.8524879 100.566756,55.8524879" id="Fill-44" fill="#395CBD"></path>
                    <path d="M86.5449066,110.259603 C83.0675679,110.259603 80.2374219,113.0966 80.2374219,116.581633 C80.2374219,120.069021 83.0675679,122.90484 86.5449066,122.90484 C90.0240071,122.90484 92.8547404,120.069021 92.8547404,116.581633 C92.8547404,113.0966 90.0240071,110.259603 86.5449066,110.259603 L86.5449066,110.259603 L86.5449066,110.259603 Z" id="Fill-126" fill="#617CCA"></path>
                    <path d="M114.586786,110.259603 C111.10886,110.259603 108.278714,113.0966 108.278714,116.581633 C108.278714,120.069021 111.10886,122.90484 114.586786,122.90484 C118.067061,122.90484 120.89662,120.069021 120.89662,116.581633 C120.89662,113.0966 118.067061,110.259603 114.586786,110.259603 L114.586786,110.259603 L114.586786,110.259603 Z" id="Fill-127" fill="#617CCA"></path>
                    <path d="M115.429546,101.876924 L115.429546,95.6502454 C116.646996,96.3971644 117.804542,97.2535608 118.8969,98.2188461 C120.413868,99.5596509 121.518559,100.872792 122.247384,101.855146 C120.523104,101.861032 118.165138,101.868684 115.429546,101.876924 L115.429546,101.876924 L115.429546,101.876924 Z M102.45398,101.918714 L102.45398,91.9462574 C103.04773,91.9503775 103.649701,91.9786297 104.259307,92.0339571 C107.703757,92.3517949 110.875706,93.2482153 113.744613,94.7079151 L113.744613,101.88281 C110.305448,101.893993 106.396452,101.905765 102.45398,101.918714 L102.45398,101.918714 L102.45398,101.918714 Z M102.980779,106.92054 L100.24225,106.92054 C99.8869399,106.92054 99.5991683,106.631543 99.5991683,106.27427 C99.5991683,105.918762 99.8869399,105.628588 100.24225,105.628588 L101.362797,105.628588 C101.440907,105.65272 101.524889,105.666846 101.610633,105.666846 C101.698727,105.666846 101.781535,105.65272 101.859644,105.628588 L102.980779,105.628588 C103.336676,105.628588 103.623273,105.918762 103.623273,106.27427 C103.623273,106.631543 103.336676,106.92054 102.980779,106.92054 L102.980779,106.92054 L102.980779,106.92054 Z M85.4396285,101.971098 C86.1702162,100.792744 87.5239175,98.8733566 89.5336207,97.0387259 C92.8347726,94.0257409 96.6022321,92.3400231 100.769048,92.0062934 L100.769048,101.923423 C95.196262,101.941669 89.6792684,101.958738 85.4396285,101.971098 L85.4396285,101.971098 L85.4396285,101.971098 Z M125.633106,102.301885 C125.565568,102.185933 124.063869,99.3495248 120.702814,96.3524316 C117.617784,93.6001913 112.299882,90.166954 104.496572,89.4482874 C98.2219753,88.8697048 92.4201465,90.8544255 87.7136118,95.1876148 C84.1857663,98.4354467 82.5249128,101.836312 82.4556127,101.97875 C82.4556127,101.97875 82.4556127,101.97875 82.4556127,101.980516 C79.8603823,101.987579 78.1366888,101.992876 77.7837281,101.992876 C70.3257441,101.992876 68.2021067,116.319123 78.0621031,116.319123 C78.7233906,116.319123 75.8280554,116.36621 78.9471478,116.36621 C79.0610818,112.263159 82.4250737,108.960588 86.5449066,108.960588 C90.6665013,108.960588 94.0304932,112.263159 94.1444273,116.36621 L106.945567,116.36621 C107.059501,112.240204 110.442874,108.917621 114.586786,108.917621 C118.724237,108.917621 122.104086,112.228432 122.229178,116.344432 C131.445506,115.757021 127.01441,104.692732 125.633106,102.301885 L125.633106,102.301885 L125.633106,102.301885 Z" id="Fill-128" fill="#617CCA"></path>
                    <path d="M0.831419027,40.0434733 L0.831419027,60.1351246 C4.06245024,55.3471106 9.50817206,52.2785411 17.1452873,50.9700786 L17.1452873,34.1227171 C11.0851017,35.0811912 5.61171441,37.1433629 0.831419027,40.0434733" id="Fill-45"></path>
                    <path d="M0.831419027,166.971591 L0.831419027,187.06179 C4.06245024,182.273776 9.50817206,179.205207 17.1452873,177.896744 L17.1452873,161.049383 C11.0851017,162.009309 5.61171441,164.070028 0.831419027,166.971591" id="Fill-46"></path>
                </g>
            </g>
        </g>
    </g>
</svg>