<?xml version="1.0" encoding="UTF-8"?>
<svg width="124px" height="100px" viewBox="0 0 124 100" version="1.1" xmlns="http://www.w3.org/2000/svg" xmlns:xlink="http://www.w3.org/1999/xlink">
    <!-- Generator: Sketch 39.1 (31720) - http://www.bohemiancoding.com/sketch -->
    <title>car</title>
    <desc>Created with Sketch.</desc>
    <defs></defs>
    <g id="Page-1" stroke="none" stroke-width="1" fill="none" fill-rule="evenodd">
        <g id="Desktop-HD" transform="translate(-125.000000, -776.000000)" fill="#252525">
            <g id="car" transform="translate(125.770947, 776.000000)">
                <g id="Capa_1">
                    <path d="M111.225879,37.1821608 L123.115578,29.5374372 L120.224623,25.0447236 L108.170101,32.7959799 L95.3854271,0.0575376884 L27.7291457,0.0575376884 L14.9442211,32.7957286 L2.89095477,25.0444724 L0,29.5374372 L11.8884422,37.1824121 C7.04547739,39.3866834 3.66834171,44.268593 3.66834171,49.9271357 L3.66834171,68.6884422 C3.66834171,75.5248744 8.59623116,81.2291457 15.0854271,82.4439698 L15.0854271,87.1060302 C15.0854271,94.1841709 20.8437186,99.9424623 27.9218593,99.9424623 C34.9987437,99.9424623 40.7570352,94.1841709 40.7570352,87.1060302 L40.7570352,82.6861809 L82.3567839,82.6861809 L82.3567839,87.1060302 C82.3567839,94.1841709 88.1150754,99.9424623 95.1932161,99.9424623 C102.270101,99.9424623 108.028392,94.1841709 108.028392,87.1060302 L108.028392,82.4464824 C112.187688,81.6713568 115.813317,79.0459799 117.837186,75.2110553 C118.888442,73.2155779 119.445477,70.9582915 119.445477,68.6884422 L119.445477,49.9271357 C119.445729,44.268593 116.068593,39.3866834 111.225879,37.1821608 L111.225879,37.1821608 Z M31.3791457,5.40100503 L58.8861809,5.40100503 L58.8861809,15.7070352 L64.229397,15.7070352 L64.229397,5.40100503 L91.7351759,5.40100503 L103.658543,35.929397 L19.4557789,35.929397 L31.3791457,5.40100503 L31.3791457,5.40100503 Z M35.4138191,87.1060302 C35.4138191,91.2386935 32.0535176,94.598995 27.9218593,94.598995 C23.7904523,94.598995 20.4286432,91.2386935 20.4286432,87.1060302 L20.4286432,82.6861809 L35.4135678,82.6861809 L35.4135678,87.1060302 L35.4138191,87.1060302 Z M95.1922111,94.598995 C91.060804,94.598995 87.7002513,91.2386935 87.7002513,87.1060302 L87.7002513,82.6861809 L102.685427,82.6861809 L102.685427,87.1060302 C102.685427,91.2386935 99.3236181,94.598995 95.1922111,94.598995 L95.1922111,94.598995 Z M114.102513,68.6884422 C114.102513,70.1130653 113.768593,71.469598 113.111055,72.7168342 C111.605779,75.5711055 108.670352,77.3427136 105.449749,77.3427136 L17.6648241,77.3427136 C12.8939698,77.3427136 9.01180905,73.4605528 9.01180905,68.6884422 L9.01180905,49.9271357 C9.01180905,45.1550251 12.8939698,41.2728643 17.6648241,41.2728643 L105.449749,41.2728643 C110.220352,41.2728643 114.102513,45.1550251 114.102513,49.9271357 L114.102513,68.6884422 L114.102513,68.6884422 Z" id="Shape"></path>
                    <path d="M97.2663317,49.7545226 C91.3321608,49.7545226 86.5055276,54.581407 86.5055276,60.5168342 C86.5055276,64.8505025 89.0844221,68.7432161 93.0761307,70.431407 C94.4015075,70.9919598 95.8115578,71.2766332 97.2663317,71.2766332 C101.142211,71.2766332 104.734673,69.1786432 106.64196,65.8002513 C107.549749,64.1954774 108.028643,62.3665829 108.028643,60.5168342 C108.028643,54.581407 103.200754,49.7545226 97.2663317,49.7545226 L97.2663317,49.7545226 Z M101.98995,63.1731156 C100.665829,65.518593 97.5796482,66.5336683 95.1582915,65.5110553 C93.1482412,64.6603015 91.848995,62.7007538 91.848995,60.5170854 C91.848995,57.5298995 94.2791457,55.0982412 97.2665829,55.0982412 C100.255025,55.0982412 102.685427,57.5301508 102.685427,60.5170854 C102.685427,61.4484925 102.445477,62.3668342 101.98995,63.1731156 L101.98995,63.1731156 Z" id="Shape"></path>
                    <path d="M25.8477387,49.7545226 C19.9138191,49.7545226 15.0854271,54.581407 15.0854271,60.5168342 C15.0854271,66.4497487 19.9135678,71.2766332 25.8477387,71.2766332 C31.7819095,71.2766332 36.6103015,66.4497487 36.6103015,60.5168342 C36.6103015,54.581407 31.7819095,49.7545226 25.8477387,49.7545226 L25.8477387,49.7545226 Z M25.8477387,65.9334171 C22.8592965,65.9334171 20.4288945,63.5045226 20.4288945,60.5168342 C20.4288945,57.5296482 22.8592965,55.0979899 25.8477387,55.0979899 C28.8364322,55.0979899 31.2668342,57.5298995 31.2668342,60.5168342 C31.2668342,63.5045226 28.8364322,65.9334171 25.8477387,65.9334171 L25.8477387,65.9334171 Z" id="Shape"></path>
                    <rect id="Rectangle-path" x="51.8" y="57.8454774" width="19.5143216" height="5.34346734"></rect>
                </g>
            </g>
        </g>
    </g>
</svg>