<?xml version="1.0" encoding="UTF-8" standalone="no"?>
<svg width="71px" height="41px" viewBox="0 0 71 41" version="1.1" xmlns="http://www.w3.org/2000/svg" xmlns:xlink="http://www.w3.org/1999/xlink" xmlns:sketch="http://www.bohemiancoding.com/sketch/ns">
    <!-- Generator: Sketch 3.4 (15575) - http://www.bohemiancoding.com/sketch -->
    <title>car</title>
    <desc>Created with Sketch.</desc>
    <defs></defs>
    <g id="Page-1" stroke="none" stroke-width="1" fill="none" fill-rule="evenodd" sketch:type="MSPage">
        <g id="car" sketch:type="MSLayerGroup">
            <g id="Page-1" sketch:type="MSShapeGroup">
                <g id="car">
                    <g id="Fill-66-+-Fill-67-+-Fill-68" transform="translate(35.173684, 20.500000) scale(-1, 1) translate(-35.173684, -20.500000) ">
                        <path d="M40.9874842,19.1703053 L37.2491474,19.1703053 C36.7631895,19.1703053 36.3695895,18.7767053 36.3695895,18.2907474 C36.3695895,17.8043579 36.7631895,17.4107579 37.2491474,17.4107579 L40.9874842,17.4107579 C41.4730105,17.4107579 41.8670421,17.8043579 41.8670421,18.2907474 C41.8670421,18.7767053 41.4730105,19.1703053 40.9874842,19.1703053 L40.9874842,19.1703053 L40.9874842,19.1703053 Z M62.6095895,9.61557895 C59.2644211,10.7217158 53.6198,12.6357684 51.5326842,12.6249789 L45.6727053,12.6193684 L45.6727053,8.87930526 C45.6727053,7.62988421 44.6610842,6.61869474 43.4133895,6.61869474 L41.3789263,6.61869474 C40.1299368,6.61869474 39.1183158,7.62988421 39.1183158,8.87930526 L39.1183158,12.6137579 L19.9398105,12.5969263 C19.8206947,12.5960632 19.7106421,12.5442737 19.6428842,12.4579579 C19.5755579,12.3712105 19.5613158,12.2607263 19.6027474,12.1627579 C19.6601474,12.0272421 19.9398105,10.0696 23.4476842,6.55352632 C24.7601158,5.23807368 26.8304,3.83242105 28.0004105,3.05514737 C28.9494526,2.50531579 27.6219158,-0.356052632 26.5131895,0.185578947 C20.254,3.09571579 16.4936526,8.91944211 15.2243789,12.4540737 L8.51721053,12.4540737 C-2.02065263,12.4540737 -4.24975789,32.0447368 10.6906421,32.0447368 L10.8140737,32.0447368 C10.9703053,26.4536316 15.5653263,21.9518316 21.1935474,21.9518316 C26.8234947,21.9518316 31.4176526,26.4536316 31.5743158,32.0447368 L41.0932211,32.0447368 C41.2503158,26.4208316 45.8703684,21.8927053 51.5326842,21.8927053 C57.1842105,21.8927053 61.7986526,26.4048632 61.9704211,32.0158211 C75.0114421,31.1871895 69.7500632,7.25570526 62.6095895,9.61557895 L62.6095895,9.61557895 L62.6095895,9.61557895 Z" id="Fill-66" fill="#F44336"></path>
                        <path d="M21.1935474,36.8633158 C18.6994526,36.8633158 16.6701684,34.8340316 16.6701684,32.3395053 C16.6701684,29.8449789 18.6994526,27.8152632 21.1935474,27.8152632 C23.6893684,27.8152632 25.7186526,29.8449789 25.7186526,32.3395053 C25.7186526,34.8340316 23.6893684,36.8633158 21.1935474,36.8633158 L21.1935474,36.8633158 L21.1935474,36.8633158 Z M21.1935474,23.7221684 C16.4435895,23.7221684 12.5775053,27.5878211 12.5775053,32.3395053 C12.5775053,37.0907579 16.4435895,40.9564105 21.1935474,40.9564105 C25.9448,40.9564105 29.8108842,37.0907579 29.8108842,32.3395053 C29.8108842,27.5878211 25.9448,23.7221684 21.1935474,23.7221684 L21.1935474,23.7221684 L21.1935474,23.7221684 Z" id="Fill-67" fill="#33353A"></path>
                        <path d="M51.5326842,36.8633158 C49.0385895,36.8633158 47.0093053,34.8340316 47.0093053,32.3395053 C47.0093053,29.8449789 49.0385895,27.8152632 51.5326842,27.8152632 C54.0272105,27.8152632 56.0564947,29.8449789 56.0564947,32.3395053 C56.0564947,34.8340316 54.0272105,36.8633158 51.5326842,36.8633158 L51.5326842,36.8633158 L51.5326842,36.8633158 Z M51.5326842,23.7221684 C46.7801368,23.7221684 42.9144842,27.5878211 42.9144842,32.3395053 C42.9144842,37.0907579 46.7801368,40.9564105 51.5326842,40.9564105 C56.2839368,40.9564105 60.1500211,37.0907579 60.1500211,32.3395053 C60.1500211,27.5878211 56.2839368,23.7221684 51.5326842,23.7221684 L51.5326842,23.7221684 L51.5326842,23.7221684 Z" id="Fill-68" fill="#33353A"></path>
                    </g>
                </g>
            </g>
        </g>
    </g>
</svg>