<svg xmlns="http://www.w3.org/2000/svg" width="1632.63" height="400" viewBox="0 0 1632.63 400"><title>cityscape</title><path fill="#f3a86c" d="M1213.66 234.71l-.9-9.81-.9 9.81-10.06 9.13h21.92l-10.06-9.13zM38.23 121.92l4.3 62.71h-8.6l4.3-62.71zm-11.86 0l4.31 62.71h-8.61l4.3-62.71z"/><path fill="none" stroke="#f3a86c" stroke-miterlimit="10" d="M679.61 330.19V466.8m-8.68-121.53h43.85m-42.94 21.92h43.85m-44.76 24.67h43.85"/><path fill="none" stroke="#f69a9b" stroke-miterlimit="10" d="M1106.96 225.82v22.84m153.92-123.78h6.85v190.46m-11.41-152.09h10.04m-10.96 16.44h11.88m-13.71 16.44h12.79m-12.79 17.36h12.79m-14.61 16.44h14.61m-16.44 16.44h16.44m-18.27 15.53h18.27m-19.18 16.45h20.1m-21.01 16.44h21.01m-22.84 15.53h21.92m19.19-140.22l7.31 144.94"/><path fill="none" stroke="#7acdcb" stroke-miterlimit="10" d="M1056.71 278.35h13.7v15.53h-13.7zm25.58 0h13.7v15.53h-13.7zm25.58 0h13.7v15.53h-13.7zm25.58 0h13.7v15.53h-13.7zm-76.74 24.66h13.7v15.53h-13.7zm25.58 0h13.7v15.53h-13.7zm25.58 0h13.7v15.53h-13.7zm25.58 0h13.7v15.53h-13.7zm-76.74 25.58h13.7v15.53h-13.7zm25.58 0h13.7v15.53h-13.7zm25.58 0h13.7v15.53h-13.7zm-25.58 24.66h13.7v15.53h-13.7zm25.58 0h13.7v15.53h-13.7zm-25.58 24.67h13.7v15.53h-13.7zm25.58 0h13.7v15.53h-13.7z"/><path fill="none" stroke="#919191" stroke-miterlimit="10" d="M1158.57 366.96h20.1m11.87 0h20.1m10.96 0h20.1"/><path fill="none" stroke="#7acdcb" stroke-miterlimit="10" d="M1284.63 342.29h20.1m-20.1 16.45h20.1m-20.1 16.44h20.1"/><path fill="none" stroke="#919191" stroke-miterlimit="10" d="M1158.57 379.75h20.1m11.87 0h20.1m10.96 0h20.1m-83.13 12.79h20.1m11.87 0h20.1m10.96 0h20.1"/><path fill="none" stroke="#f69a9b" stroke-miterlimit="10" d="M1331.68 360.56h11.88v29.23h-11.88zm23.75 0h11.88v29.23h-11.88z"/><path fill="none" stroke="#919191" stroke-miterlimit="10" d="M1396.08 388.88h11.88m6.85-203.25v21.92m0 10.96v21.93m0 13.7v21.92m10.96-90.43v21.92m10.96-21.92v21.92m11.88-21.92v21.92m-22.84 10.96v21.93m0 13.7v21.92"/><path fill="none" stroke="#f69a9b" stroke-miterlimit="10" d="M1451.35 223.08v29.23m11.87-29.23v29.23m-11.87 10.96v29.24m11.87-29.24v29.24m-11.87 11.87v29.23m11.87-29.23v29.23m-11.87 10.97v29.23m11.87-29.23v29.23m12.79-150.73v29.23"/><path fill="none" stroke="#f3a86c" stroke-miterlimit="10" d="M1492.46 274.69h12.79v28.32h-12.79zm22.83 0h12.79v28.32h-12.79zm23.76 0h12.79v28.32h-12.79zm-46.59 42.02h12.79v28.32h-12.79zm22.83 0h12.79v28.32h-12.79zm23.76 0h12.79v28.32h-12.79zm-46.59 41.11h12.79v28.32h-12.79zm22.83 0h12.79v28.32h-12.79zm23.76 0h12.79v28.32h-12.79z"/><path fill="none" stroke="#919191" stroke-miterlimit="10" d="M1544.07 168.73h29.23m11.88 0h29.23m-70.34 13.7h29.23m11.88 0h29.23m-70.34 13.7h29.23m11.88 0h29.23m-70.34 13.7h29.23m11.88 0h29.23m-70.34 14.62h29.23m11.88 0h29.23m-70.34 14.62h29.23m11.88 0h29.23m-29.23 14.61h29.23m-29.23 13.71h29.23m-29.23 13.7h29.23m-29.23 13.7h29.23m-29.23 14.62h29.23m-29.23 14.61h29.23m-29.23 15.53h29.23m-29.23 13.7h29.23m-29.23 14.62h29.23m-29.23 14.62h29.23m-29.23 16.44h29.23"/><path fill="none" stroke="#7acdcb" stroke-miterlimit="10" d="M337.01 298.84h-33.8m33.8 14.62h-33.8m33.8 17.36h-33.8m33.8 17.35h-33.8"/><path fill="none" stroke="#f69a9b" stroke-miterlimit="10" d="M238.81 249.06v13.24h10.96v26.49h10.05v25.13m-43.85-64.86v13.24h10.96v26.49h10.05v25.13"/><path fill="none" stroke="#919191" stroke-miterlimit="10" d="M277.18 333.1v102.6m-10.97-102.6v102.6"/><path fill="none" stroke="#f3a86c" stroke-miterlimit="10" d="M229.67 368.19v58.31"/><path fill="none" stroke="#f69a9b" stroke-miterlimit="10" d="M417.66 365.78h-14.61m-10.05 0h-14.62m39.28 10.05h-14.61M443 365.78h-14.62M443 375.83h-14.62m-35.38 0h-14.62"/><path fill="none" stroke="#7acdcb" stroke-miterlimit="10" d="M128.27 294.28h21.01v21.01h-21.01zm-36.54 0h21.01v21.01H91.73zM128.27 329h21.01v21.01h-21.01zm-36.54 0h21.01v21.01H91.73zm36.54 35.62h21.01v21.01h-21.01zm-36.54 0h21.01v21.01H91.73zm-36-70.34h21.01v21.01H55.73zm0 34.72h21.01v21.01H55.73zm0 35.62h21.01v21.01H55.73zm-35.09-70.34h21.01v21.01H20.64zm0 34.72h21.01v21.01H20.64zm0 35.62h21.01v21.01H20.64z"/><path fill="none" stroke="#f3a86c" stroke-miterlimit="10" d="M1480.58 422.23V262.82h12.79v-7.31h58.46v7.31h11.88v159.41"/><path fill="none" stroke="#919191" stroke-miterlimit="10" d="M921.46 204.69h12.79v28.32h-12.79zm22.83 0h12.79v28.32h-12.79zm23.76 0h12.79v28.32h-12.79zm-46.59 42.02h12.79v28.32h-12.79zm22.83 0h12.79v28.32h-12.79zm23.76 0h12.79v28.32h-12.79zm-46.59 41.11h12.79v28.32h-12.79zm22.83 0h12.79v28.32h-12.79zm23.76 0h12.79v28.32h-12.79zm-46.59 40h12.79v28.32h-12.79zm22.83 0h12.79v28.32h-12.79zm23.76 0h12.79v28.32h-12.79z"/><path fill="none" stroke="#919191" stroke-miterlimit="10" d="M909.58 422.23V192.81h12.79v-7.31h58.46v7.31h11.88v229.42m539.03-168.09v-98.2h90.43V401"/><path fill="none" stroke="#7acdcb" stroke-miterlimit="10" d="M363.96 425.5v-51.08H346.6v-89.28h-67.29m571.54-42.31h33.8m-33.8 14.62h33.8m-33.8 17.36h33.8m-33.8 17.35h33.8"/><path fill="none" stroke="#f69a9b" stroke-miterlimit="10" d="M568.85 242.83h26.8m-26.8 14.62h26.8m-26.8 17.36h26.8m-26.8 17.35h26.8"/><path fill="none" stroke="#7acdcb" stroke-miterlimit="10" d="M841.25 355.5V229.13h67.29"/><path fill="none" stroke="#f69a9b" stroke-miterlimit="10" d="M279 322.14v-81.76h-80.39v81.76"/><path fill="none" stroke="#919191" stroke-miterlimit="10" d="M289.96 452.14V323.51h-97.74V355m286.46 51.5v-86.62h-34.71v-40.2h-24.66v20.1h-20.9l-.12 17.98"/><path fill="none" stroke="#f69a9b" stroke-miterlimit="10" d="M461.33 407.5v-58.39h-48.42V328.1h-6.39v-9.14H391.9v9.14h-7.31v11.88h-36.92"/><path fill="none" stroke="#f3a86c" stroke-miterlimit="10" d="M244.29 432.14v-76.28h-59.38v76.28"/><path d="M631.01 361.86h-14.62m-10.05 0h-14.61m39.28 10.04h-14.62m-10.05 0h-14.61m-31.52 34.6v-62H573v-16.44h27.4v16.44H653" fill="none" stroke="#919191" stroke-miterlimit="10"/><path fill="none" stroke="#7acdcb" stroke-miterlimit="10" d="M171.21 435.76V273.27H4V406.5"/><path fill="none" stroke="#f3a86c" stroke-miterlimit="10" d="M135.58 272.01v-87.35H17v87.68"/><path fill="none" stroke="#919191" stroke-miterlimit="10" d="M289.51 371.01h28.77v61.49m365.11-124v-48.28h10.96v-20.09h53.9v20.09h20.25l.2 28.78"/><path fill="none" stroke="#f69a9b" stroke-miterlimit="10" d="M743.68 421.83V312.48h9.13v-22.83h56.64V345"/><path fill="none" stroke="#f3a86c" stroke-miterlimit="10" d="M654.03 463.14v-153.5h55.72v20.1h17.36v132.49M994.14 356h53.44v67.14"/><path fill="none" stroke="#7acdcb" stroke-miterlimit="10" d="M1166.34 329.05v-62.58h-127.9v88.16"/><path fill="none" stroke="#f69a9b" stroke-miterlimit="10" d="M994.14 300.27h16.9v-26.49h26.03m14.16-8.68v-45.22h75.82v45.22"/><path fill="none" stroke="#7acdcb" stroke-miterlimit="10" d="M1253.12 349.14v-20.55h62.12v97.29"/><path fill="none" stroke="#f3a86c" stroke-miterlimit="10" d="M1167.7 305.75h49.79v20.1h14.62v23.29"/><path fill="none" stroke="#919191" stroke-miterlimit="10" d="M1433.54 379.75h-48.88v44.3"/><path fill="none" stroke="#f3a86c" stroke-miterlimit="10" d="M1180.04 304.38v-30.6h10.05v-29.23h32.88v29.23h4.57v51.61"/><path fill="none" stroke="#f69a9b" stroke-miterlimit="10" d="M1511.64 254.14v-38.83h-77.65v206.92"/><path fill="none" stroke="#919191" stroke-miterlimit="10" d="M1395.63 335.44V181.52h6.39V166.9h68.51v47.04"/><path fill="none" stroke="#f69a9b" stroke-miterlimit="10" d="M1316.61 333.16h13.24v13.7h47.51v-10.05h29.23v10.96h13.7v12.79h13.25"/><path fill="none" stroke="#7acdcb" stroke-miterlimit="10" d="M1337.16 345.49v-73.54h16.44v-10.96h12.79v10.96h16.45v63.49"/><path fill="none" stroke="#7acdcb" stroke-miterlimit="10" d="M1322.54 332.25V228.1h6.4v-7.3h30.14v38.82M549.82 403.5V254.95h-36.44v-10.96h-12.79v10.96h-36.45v63.49"/><path fill="none" stroke="#f69a9b" stroke-miterlimit="10" d="M610.44 343.5V223.1h-6.4v-7.3H533.9v38.82m707.34 94.98l27.94-338.38 34.18 302.91v13.09"/><path fill="none" stroke="#919191" stroke-miterlimit="10" d="M1136.19 422.23v-71.72h10.05V329.5h60.29v9.14h10.05v11.87h43.85v71.72"/><path fill="none" stroke="#f3a86c" stroke-miterlimit="10" d="M788.57 382.96h20.1m11.87 0h20.1m10.96 0h20.1m-83.13 12.79h20.1m11.87 0h20.1m10.96 0h20.1m-105.51 42.48v-71.72h10.05V345.5h60.29v10.14h10.05v10.87h43.85v71.72M117.34 205.51H32.21m85.13 14.61H32.21m85.13 16.72H32.21m85.13 14.62H32.21"/><path fill="none" stroke="#f69a9b" stroke-miterlimit="10" d="M793.41 303.1v27.8m-14.61-27.8v27.8"/><path fill="none" stroke="#7acdcb" stroke-miterlimit="10" d="M489.6 272.34h12.79v28.32H489.6zm22.84 0h12.79v28.32h-12.79zm-22.84 38.67h12.79v28.32H489.6zm22.84 0h12.79v28.32h-12.79zm-22.84 38.66h12.79v28.32H489.6zm22.84 0h12.79v28.32h-12.79z"/></svg>