<?xml version="1.0" encoding="UTF-8" standalone="no"?>
<svg width="50px" height="43px" viewBox="0 0 50 43" version="1.1" xmlns="http://www.w3.org/2000/svg" xmlns:xlink="http://www.w3.org/1999/xlink" xmlns:sketch="http://www.bohemiancoding.com/sketch/ns">
    <!-- Generator: Sketch 3.5.1 (25234) - http://www.bohemiancoding.com/sketch -->
    <title></title>
    <desc>Created with Sketch.</desc>
    <defs></defs>
    <g id="Page-1" stroke="none" stroke-width="1" fill="none" fill-rule="evenodd" sketch:type="MSPage">
        <g id="Desktop-HD" sketch:type="MSArtboardGroup" transform="translate(-517.000000, -340.000000)" fill="#51BCE6">
            <path d="M559.333133,364.113049 L559.333133,373.674083 C559.333133,376.059342 558.486278,378.098809 556.792544,379.792544 C555.098809,381.486278 553.059342,382.333133 550.674083,382.333133 L525.65905,382.333133 C523.27379,382.333133 521.234324,381.486278 519.540589,379.792544 C517.846855,378.098809 517,376.059342 517,373.674083 L517,348.65905 C517,346.27379 517.846855,344.234324 519.540589,342.540589 C521.234324,340.846855 523.27379,340 525.65905,340 L550.674083,340 C551.936867,340 553.109435,340.250549 554.191822,340.751654 C554.492485,340.891963 554.67288,341.122468 554.733013,341.443175 C554.793145,341.783926 554.702948,342.074563 554.462417,342.315093 L552.989176,343.788334 C552.788734,343.988776 552.558229,344.088996 552.297655,344.088996 C552.237522,344.088996 552.147325,344.068952 552.02706,344.028863 C551.566043,343.908598 551.115055,343.848467 550.674083,343.848467 L525.65905,343.848467 C524.336133,343.848467 523.203653,344.319498 522.261575,345.261575 C521.319498,346.203653 520.848467,347.336133 520.848467,348.65905 L520.848467,373.674083 C520.848467,374.997 521.319498,376.12948 522.261575,377.071557 C523.203653,378.013635 524.336133,378.484666 525.65905,378.484666 L550.674083,378.484666 C551.997,378.484666 553.12948,378.013635 554.071557,377.071557 C555.013635,376.12948 555.484666,374.997 555.484666,373.674083 L555.484666,366.037282 C555.484666,365.776707 555.574864,365.556225 555.755262,365.375827 L557.679495,363.451594 C557.879937,363.251152 558.110442,363.150932 558.371016,363.150932 C558.491281,363.150932 558.611545,363.180998 558.73181,363.24113 C559.132694,363.401484 559.333133,363.692121 559.333133,364.113049 L559.333133,364.113049 Z M541.80457,373.884546 C541.323509,374.365607 540.752258,374.606133 540.0908,374.606133 C539.429341,374.606133 538.85809,374.365607 538.377029,373.884546 L525.448587,360.956103 C524.967526,360.475043 524.726999,359.903792 524.726999,359.242333 C524.726999,358.580875 524.967526,358.009624 525.448587,357.528563 L528.755863,354.221287 C529.236924,353.740226 529.808175,353.499699 530.469633,353.499699 C531.131092,353.499699 531.702343,353.740226 532.183403,354.221287 L540.0908,362.128683 L559.543596,342.675887 C560.024657,342.194826 560.595908,341.954299 561.257366,341.954299 C561.918825,341.954299 562.490076,342.194826 562.971137,342.675887 L566.278413,345.983163 C566.759473,346.464224 567,347.035475 567,347.696933 C567,348.358392 566.759473,348.929643 566.278413,349.410704 L541.80457,373.884546 Z" id="" sketch:type="MSShapeGroup"></path>
        </g>
    </g>
</svg>