<?xml version="1.0" encoding="UTF-8"?>
<svg width="135px" height="100px" viewBox="0 0 135 100" version="1.1" xmlns="http://www.w3.org/2000/svg" xmlns:xlink="http://www.w3.org/1999/xlink">
    <!-- Generator: Sketch 39.1 (31720) - http://www.bohemiancoding.com/sketch -->
    <title>car-door</title>
    <desc>Created with Sketch.</desc>
    <defs></defs>
    <g id="Page-1" stroke="none" stroke-width="1" fill="none" fill-rule="evenodd">
        <g id="Desktop-HD" transform="translate(-609.000000, -776.000000)" fill="#252525">
            <g id="car-door" transform="translate(609.310975, 776.000000)">
                <g id="Layer_1">
                    <path d="M131.475503,0.0222513089 L62.3375096,0.0222513089 C61.8639259,0.0222513089 61.4015745,0.171204188 61.0165428,0.447643979 L0.945861292,43.6102094 C0.351857266,44.036911 0,44.7240838 0,45.4565445 L0,97.7060209 C0,98.9604712 1.0150834,99.9777487 2.26682803,99.9777487 L131.475503,99.9777487 C132.727248,99.9777487 133.742331,98.9604712 133.742331,97.7060209 L133.742331,2.29397906 C133.742331,1.03926702 132.727248,0.0222513089 131.475503,0.0222513089 L131.475503,0.0222513089 Z M129.208675,95.4342932 L4.53365606,95.4342932 L4.53365606,46.6232984 L63.0663008,4.56570681 L129.208675,4.56570681 L129.208675,95.4342932 L129.208675,95.4342932 Z" id="Shape"></path>
                    <path d="M122.408191,9.1091623 L65.7377516,9.1091623 C65.2474502,9.1091623 64.769687,9.26858639 64.3773414,9.56335079 L19.041042,43.6390052 C18.2607913,44.2259162 17.9423696,45.2471204 18.2508651,46.1748691 C18.5596218,47.102356 19.4258124,47.7280105 20.4014523,47.7280105 L122.408191,47.7280105 C123.659936,47.7280105 124.675019,46.710733 124.675019,45.4562827 L124.675019,11.3808901 C124.675019,10.126178 123.660197,9.1091623 122.408191,9.1091623 L122.408191,9.1091623 Z M120.141363,43.1848168 L27.2019363,43.1848168 L66.4931868,13.652356 L120.141363,13.652356 L120.141363,43.1848168 L120.141363,43.1848168 Z" id="Shape"></path>
                    <path d="M120.141363,61.3586387 L104.273567,61.3586387 C103.021822,61.3586387 102.006739,62.3759162 102.006739,63.6303665 L102.006739,77.260733 C102.006739,78.5151832 103.021822,79.5324607 104.273567,79.5324607 C105.525312,79.5324607 106.540395,78.5151832 106.540395,77.260733 L106.540395,65.9020942 L120.141363,65.9020942 C121.393108,65.9020942 122.408191,64.8848168 122.408191,63.6303665 C122.408191,62.3759162 121.393369,61.3586387 120.141363,61.3586387 L120.141363,61.3586387 Z" id="Shape"></path>
                </g>
            </g>
        </g>
    </g>
</svg>