<?xml version="1.0" encoding="UTF-8" standalone="no"?>
<svg width="564px" height="556px" viewBox="0 0 564 556" version="1.1" xmlns="http://www.w3.org/2000/svg" xmlns:xlink="http://www.w3.org/1999/xlink">
    <!-- Generator: Sketch 3.8.3 (29802) - http://www.bohemiancoding.com/sketch -->
    <title>Isolation_Mode</title>
    <desc>Created with Sketch.</desc>
    <defs></defs>
    <g id="Page-1" stroke="none" stroke-width="1" fill="none" fill-rule="evenodd">
        <g id="Desktop-HD" transform="translate(-721.000000, -799.000000)">
            <g id="Isolation_Mode" transform="translate(721.000000, 799.000000)">
                <g id="Group">
                    <polygon id="Shape" fill="#68696C" points="260.937694 212.05018 260.937694 402.058193 395.915987 402.058193 468.366951 541.435354 468.366951 402.058193 529.575671 402.058193 529.575671 212.05018"></polygon>
                    <g transform="translate(240.399107, 191.464578)" id="Shape">
                        <polygon fill="#55565A" points="207.479454 329.475013 135.02832 190.097682 0.0498554966 190.097682 0.0498554966 0.0898397576 268.687833 0.0898397576 268.687833 190.097682 207.479454 190.097682 207.479454 329.475013"></polygon>
                        <path d="M224.352467,101.137363 L44.5248855,101.137363 C39.1594438,101.137363 34.8095517,96.7857714 34.8095517,91.4182729 C34.8095517,86.0506035 39.1596145,81.6993532 44.5248855,81.6993532 L224.352296,81.6993532 C229.717908,81.6993532 234.0678,86.0506035 234.0678,91.4182729 C234.067971,96.7857714 229.717908,101.137363 224.352467,101.137363 L224.352467,101.137363 Z" fill="#FA4A86"></path>
                        <path d="M224.352467,56.795465 L44.5248855,56.795465 C39.1594438,56.795465 34.8095517,52.4440439 34.8095517,47.0763746 C34.8095517,41.7085344 39.1596145,37.3572841 44.5248855,37.3572841 L224.352296,37.3572841 C229.717908,37.3572841 234.0678,41.7085344 234.0678,47.0763746 C234.067971,52.4442147 229.717908,56.795465 224.352467,56.795465 L224.352467,56.795465 Z" fill="#FA4A86"></path>
                        <path d="M224.352467,148.874385 L44.5248855,148.874385 C39.1594438,148.874385 34.8095517,144.522793 34.8095517,139.155807 C34.8095517,133.787796 39.1596145,129.436716 44.5248855,129.436716 L224.352296,129.436716 C229.717908,129.436716 234.0678,133.787966 234.0678,139.155807 C234.067971,144.522793 229.717908,148.874385 224.352467,148.874385 L224.352467,148.874385 Z" fill="#FA4A86"></path>
                    </g>
                    <polygon id="Shape" fill="#C1C1C1" points="111.7429 149.822997 111.7429 339.830839 172.951279 339.830839 172.951279 479.208 245.402414 339.830839 380.380707 339.830839 380.380707 149.822997"></polygon>
                    <g transform="translate(91.174093, 129.294100)" id="Shape">
                        <polygon fill="#DCDCDC" points="61.2884547 190.041148 0.080246861 190.041148 0.080246861 0.0331348155 268.718054 0.0331348155 268.718054 190.041148 133.73976 190.041148 61.2886255 329.418309 61.2886255 190.041148"></polygon>
                        <path d="M44.4156132,101.080488 L224.243024,101.080488 C229.608636,101.080488 233.958699,96.7290664 233.958699,91.3613971 C233.958699,85.9938986 229.608465,81.6424775 224.243024,81.6424775 L44.4156132,81.6424775 C39.0500007,81.6424775 34.7001086,85.9938986 34.7001086,91.3613971 C34.6999379,96.7292372 39.0500007,101.080488 44.4156132,101.080488 L44.4156132,101.080488 Z" fill="#2AB27B"></path>
                        <path d="M44.4156132,56.7387601 L224.243024,56.7387601 C229.608636,56.7387601 233.958699,52.3873389 233.958699,47.0196696 C233.958699,41.6518295 229.608465,37.3005792 224.243024,37.3005792 L44.4156132,37.3005792 C39.0500007,37.3005792 34.7001086,41.6518295 34.7001086,47.0196696 C34.6999379,52.3875097 39.0500007,56.7387601 44.4156132,56.7387601 L44.4156132,56.7387601 Z" fill="#2AB27B"></path>
                        <path d="M44.4156132,148.81768 L224.243024,148.81768 C229.608636,148.81768 233.958699,144.466259 233.958699,139.09876 C233.958699,133.73092 229.608465,129.37967 224.243024,129.37967 L44.4156132,129.37967 C39.0500007,129.37967 34.7001086,133.73092 34.7001086,139.09876 C34.6999379,144.466259 39.0500007,148.81768 44.4156132,148.81768 L44.4156132,148.81768 Z" fill="#2AB27B"></path>
                    </g>
                    <g transform="translate(45.757785, 80.445867)" id="Shape">
                        <path d="M84.1000763,42.0501305 C84.1000763,44.4242229 83.9020202,46.7506627 83.5265673,49.0154445 C81.2111893,62.9011525 72.0939507,74.481429 59.7188603,80.2134105 C54.3542723,82.6966429 48.3818569,84.0836936 42.0816247,84.0836936 C18.8750861,84.0836936 0.0630023228,65.2648263 0.0630023228,42.0501305 C0.0630023228,18.8352639 18.8750861,0.0133222454 42.0816247,0.0133222454 C65.2883339,0.0134930434 84.1000763,18.8352639 84.1000763,42.0501305 L84.1000763,42.0501305 Z" fill="#CE1C5C"></path>
                        <path d="M33.8274667,26.3433739 C32.9073596,24.8555524 32.4479036,23.542628 32.4479036,22.4063088 C32.4479036,21.5675197 32.6710582,20.8636611 33.1175381,20.2954161 C33.5636765,19.7271711 34.1520396,19.2605509 34.8822861,18.8950432 C35.612874,18.5300478 36.4445388,18.2658233 37.377622,18.1037359 C38.3110466,17.9411362 39.2644476,17.860178 40.2383372,17.860178 C42.104845,17.860178 43.9370345,18.1037359 45.7364423,18.5906811 C47.5348257,19.077797 49.1308846,19.7949779 50.5241067,20.7418821 C51.9169873,21.6892987 53.0460777,22.872929 53.9122316,24.2936269 C54.7778732,25.7138124 55.2106941,27.3719196 55.2106941,29.265728 C55.2106941,30.5106748 55.0141746,31.6135176 54.6223309,32.5739148 C54.2298043,33.5346537 53.7093948,34.4139219 53.0600782,35.2118902 C52.4109323,36.0105418 51.6535385,36.7543671 50.7878969,37.4442203 C49.921743,38.1344151 49.0161486,38.817778 48.0694064,39.4939673 C47.2580594,40.0622124 46.4730061,40.6101324 45.7161245,41.1378983 C44.9583893,41.6656641 44.2819253,42.2135842 43.6872448,42.7818292 C43.0920522,43.3499034 42.6122784,43.9656303 42.246899,44.6284974 C41.8818612,45.2920477 41.6991715,46.042705 41.6991715,46.8813232 C41.6991715,47.6664817 41.8818612,48.4844334 42.246899,49.3370571 C42.6121076,50.1889976 43.1862995,51.1837253 43.9713529,52.3200445 C43.3486714,52.7535299 42.7336731,53.0913684 42.1251629,53.3347555 C41.5163111,53.5783135 40.9281187,53.7004341 40.3602441,53.7004341 C39.5751908,53.7004341 38.88558,53.5651621 38.2907288,53.2944472 C37.6955361,53.0242448 37.1952738,52.6590786 36.7894295,52.1986071 C36.3835853,51.7389897 36.0725007,51.1977307 35.8563464,50.5746596 C35.6393384,49.952784 35.5314319,49.2899169 35.5314319,48.5857167 C35.5314319,47.4229237 35.7749043,46.3474086 36.2618491,45.3593421 C36.7491354,44.3716171 37.377622,43.4511866 38.1486748,42.5990753 C38.9197276,41.7464516 39.7983454,40.9484833 40.7860647,40.2039747 C41.7731011,39.4601493 42.7671377,38.7366489 43.7681746,38.0327903 C44.6875988,37.3832454 45.5873881,36.7408741 46.4666888,36.1046515 C47.3454773,35.469112 48.1235303,34.8200796 48.7996528,34.1561877 C49.4756046,33.4936622 50.0171855,32.803809 50.4226883,32.0862865 C50.8285325,31.369618 51.0311985,30.5914622 51.0311985,29.7525024 C51.0311985,28.7517968 50.7878969,27.8919996 50.3009521,27.1748187 C49.8140073,26.458321 49.1711787,25.8760706 48.3736615,25.4294337 C47.5752906,24.9829677 46.6553543,24.6581099 45.6145354,24.4553726 C44.5726921,24.2524646 43.4842374,24.1510106 42.3481467,24.1510106 C38.9398747,24.1516938 36.099648,24.8821969 33.8274667,26.3433739 L33.8274667,26.3433739 Z" fill="#FFFFFF"></path>
                        <path d="M44.2959258,58.4740679 C44.2959258,59.9350742 43.8900816,61.0179336 43.0787346,61.721109 C42.2670461,62.4244553 41.0904906,62.7766408 39.5485557,62.7766408 C38.3040464,62.7766408 37.3436451,62.3839761 36.6676934,61.5993301 C35.9914001,60.8150256 35.6533389,59.7729868 35.6533389,58.4738971 C35.6533389,56.9314202 36.0725007,55.8222579 36.9111657,55.1453853 C37.7496601,54.4695376 38.9127273,54.1310159 40.400709,54.1310159 C41.6991715,54.1310159 42.6728904,54.5103583 43.322207,55.2675059 C43.9713529,56.0255075 44.2959258,57.0940199 44.2959258,58.4740679 L44.2959258,58.4740679 Z" fill="#FFFFFF"></path>
                    </g>
                    <g transform="translate(479.432310, 261.150170)" id="Shape">
                        <path d="M83.6389129,48.0521436 C81.6074722,62.2353819 72.5004779,74.1328302 60.0091149,80.0526895 C54.5625726,82.6320812 48.4740555,84.0732749 42.0476478,84.0732749 C18.8409385,84.0732749 0.0290254604,65.25492 0.0290254604,42.0364666 C0.0290254604,18.8255284 18.8409385,0.00307436433 42.0476478,0.00307436433 C65.2543571,0.00307436433 84.0657579,18.8255284 84.0657579,42.0364666 C84.0657579,44.0792109 83.9194355,46.0877956 83.6389129,48.0521436 Z" fill="#3AA3E3"></path>
                        <path d="M45.0925893,56.8569523 C45.0925893,58.3184709 44.6870866,59.4009888 43.8757396,60.1041642 C43.0642219,60.807852 41.8873248,61.1598668 40.3453899,61.1598668 C39.1007099,61.1598668 38.1404794,60.7673729 37.4645276,59.982556 C36.7880636,59.1980807 36.4501731,58.1558712 36.4501731,56.8569523 C36.4501731,55.314817 36.8691642,54.2058254 37.7078293,53.5287821 C38.5463236,52.8525927 39.7095616,52.5144127 41.1973726,52.5144127 C42.4958351,52.5144127 43.4697246,52.8932427 44.1188705,53.6505611 C44.7683579,54.4085627 45.0925893,55.4772459 45.0925893,56.8569523 L45.0925893,56.8569523 Z" fill="#FFFFFF"></path>
                        <path d="M44.6870866,17.7185864 C44.9573648,17.7185864 45.1873489,17.7862224 45.3768681,17.9214945 C45.5658751,18.0571081 45.6608054,18.2605285 45.6608054,18.5302186 L45.6608054,18.7331266 L42.5364707,51.7326701 C42.5093234,52.0310543 42.4485406,52.2267888 42.3539518,52.3210693 C42.2588507,52.4167162 42.0901616,52.4773495 41.8465184,52.503994 L39.9800106,52.6256022 C39.6824143,52.6531007 39.4862363,52.6192827 39.3918182,52.524319 C39.2967171,52.4298676 39.2359344,52.2337915 39.2092993,51.9355782 L37.6270702,19.3421924 L37.6270702,19.2204134 C37.6270702,18.6793253 37.9511309,18.3409744 38.6004475,18.2057024 C39.0330976,18.1244025 39.5543608,18.0572789 40.162871,18.0027943 C40.7712105,17.9488221 41.3800622,17.9013403 41.9885725,17.8606904 C42.5970827,17.8200404 43.1449809,17.7862224 43.631755,17.7592363 C44.1188705,17.7322503 44.4700786,17.7185864 44.6870866,17.7185864 L44.6870866,17.7185864 Z" fill="#FFFFFF"></path>
                    </g>
                    <g transform="translate(0.000000, 230.918921)" id="Shape">
                        <path d="M73.1296474,60.5190326 C73.1296474,67.6051008 67.3878991,73.3488673 60.3050039,73.3488673 L12.9334037,73.3488673 C5.85033765,73.3488673 0.108589369,67.6051008 0.108589369,60.5190326 L0.108589369,12.9405118 C0.108589369,5.85546846 5.85033765,0.111360308 12.9334037,0.111360308 L60.3050039,0.111360308 C67.3878991,0.111360308 73.1296474,5.85546846 73.1296474,12.9405118 L73.1296474,60.5190326 L73.1296474,60.5190326 Z" fill="#F9C553"></path>
                        <polygon fill="#FFFFFF" points="61.1187412 25.6618898 54.3488086 18.8902608 29.266201 43.9803189 20.5648802 35.2776475 13.7947769 42.0487641 27.5566013 55.815426 27.6126034 55.7594042 29.3230567 57.4696048"></polygon>
                    </g>
                    <g transform="translate(334.305008, 488.482332)" id="Shape">
                        <path d="M64.5647463,53.4744683 C64.5647463,59.7345573 59.4921202,64.8086248 53.2344017,64.8086248 L11.3829319,64.8086248 C5.12555483,64.8086248 0.0530995187,59.7345573 0.0530995187,53.4744683 L0.0530995187,11.4400513 C0.0530995187,5.18064549 5.12555483,0.106065569 11.3829319,0.106065569 L53.2344017,0.106065569 C59.4921202,0.106065569 64.5647463,5.18064549 64.5647463,11.4400513 L64.5647463,53.4744683 L64.5647463,53.4744683 Z" fill="#4B6AC6"></path>
                        <polygon fill="#FFFFFF" points="55.3954326 19.4817344 46.1597018 10.2424156 32.4917833 23.9153093 18.823694 10.2424156 9.58642661 19.4817344 23.2546866 33.1546281 9.58642661 46.8280342 18.823694 56.0675238 32.4917833 42.3946301 46.1597018 56.0675238 55.3954326 46.8280342 41.7270018 33.1546281"></polygon>
                    </g>
                    <g transform="translate(282.229918, 17.079802)" id="Shape" fill="#68696C">
                        <path d="M205.31296,108.589281 C202.032229,74.1121637 181.708943,44.1056846 150.948443,28.3215566 C126.99117,16.027686 99.6816263,13.8027002 74.0516326,22.0566853 C48.4216389,30.3103287 27.5385031,48.054364 15.2494647,72.0200587 L0.0577094447,64.2246664 C7.31902594,50.0638027 17.1395344,37.746362 29.2458831,27.6137696 C40.9356312,17.8299467 54.2502928,10.4904143 68.819708,5.79842192 C83.389294,1.10642956 98.483387,-0.702150653 113.684021,0.422212701 C129.425723,1.58671359 144.585209,5.8604216 158.741096,13.1242905 C176.664148,22.3210806 191.99642,36.0028559 203.081073,52.690847 C213.820152,68.858929 220.469543,87.6284356 222.310099,106.970628 L205.31296,108.589281 L205.31296,108.589281 Z"></path>
                        <polygon points="170.788199 88.8306829 202.227724 167.965675 255.02572 101.167936"></polygon>
                    </g>
                    <g transform="translate(46.782213, 387.540703)" id="Shape" fill="#C1C1C1">
                        <path d="M150.222978,167.916826 C147.315139,167.916826 144.401665,167.809053 141.48307,167.593164 C125.741197,166.428663 110.581882,162.155297 96.4259941,154.891257 C78.5029431,145.694638 63.170329,132.012521 52.0860179,115.32453 C41.346939,99.1566187 34.6975475,80.3867705 32.8568211,61.0449197 L49.8536185,59.4260961 C53.1346907,93.9030424 73.4581473,123.909521 104.218477,139.693991 C153.674105,165.07099 214.54852,145.469014 239.917626,95.9956597 L255.10921,103.791052 C247.848065,117.951916 238.027556,130.269356 225.921207,140.401607 C214.231118,150.18543 200.916456,157.525475 186.347212,162.216784 C174.575168,166.007988 162.459258,167.916826 150.222978,167.916826 L150.222978,167.916826 Z"></path>
                        <polygon points="84.3787207 79.1848648 52.9391957 0.0498730213 0.141200328 66.84727"></polygon>
                    </g>
                    <g transform="translate(265.156117, 0.000000)" id="Shape" fill="#55565A">
                        <path d="M205.31296,108.589281 C202.032229,74.1121637 181.708943,44.1056846 150.948273,28.3213858 C126.990828,16.027686 99.6812849,13.8023586 74.0516326,22.0565145 C48.4218096,30.3103287 27.5385031,48.0541932 15.2494647,72.0200587 L0.0577094447,64.2246664 C7.31902594,50.0639735 17.1393636,37.746362 29.2457124,27.6137696 C40.9358019,17.8299467 54.2502928,10.4904143 68.819708,5.79842192 C83.3894647,1.10642956 98.4830456,-0.702321451 113.684021,0.422212701 C129.425723,1.58671359 144.585209,5.8604216 158.741096,13.1242905 C176.663977,22.3210806 191.996591,36.0028559 203.080902,52.6906762 C213.820152,68.8587582 220.469543,87.6282648 222.310099,106.970457 L205.31296,108.589281 L205.31296,108.589281 Z"></path>
                        <polygon points="170.788199 88.8306829 202.227895 167.965675 255.02572 101.167936"></polygon>
                    </g>
                    <g transform="translate(29.708412, 370.460901)" id="Shape" fill="#DCDCDC">
                        <path d="M150.222807,167.916485 C147.314968,167.916485 144.401665,167.808711 141.482899,167.592823 C125.741026,166.428322 110.581711,162.155297 96.4259941,154.891257 C78.5029431,145.694638 63.170329,132.012179 52.0860179,115.32453 C41.346939,99.1566187 34.6975475,80.3871121 32.8566504,61.0445781 L49.8536185,59.4262669 C53.1346907,93.9028716 73.4579766,123.909863 104.218477,139.694333 C153.673934,165.07099 214.548349,145.469185 239.917455,95.9953182 L255.10921,103.790711 C247.847723,117.951745 238.027386,130.269015 225.921037,140.401949 C214.230947,150.18543 200.916456,157.525475 186.34687,162.217126 C174.575168,166.007646 162.459258,167.916485 150.222807,167.916485 L150.222807,167.916485 Z"></path>
                        <polygon points="84.3787207 79.1845232 52.9391957 0.0500438193 0.141200328 66.8476116"></polygon>
                    </g>
                    <g transform="translate(347.793310, 44.065889)" id="Shape">
                        <path d="M83.7806255,41.953288 C83.7806255,42.8653494 83.7516,43.7683585 83.6938906,44.6650481 C82.2981074,66.5355636 64.1228763,83.8425268 41.9081549,83.8425268 C39.3598902,83.8425268 36.8628469,83.614853 34.4393917,83.1779517 C14.8755484,79.6542178 0.0332939104,62.5387192 0.0332939104,41.9531172 C0.0332939104,18.8180133 18.781351,0.065586439 41.9081549,0.065586439 C65.034788,0.065928035 83.7806255,18.8183548 83.7806255,41.953288 L83.7806255,41.953288 Z" fill="#F9C553"></path>
                        <g transform="translate(16.903062, 14.688630)">
                            <path d="M66.7908283,29.9764186 C65.3950452,51.846934 47.2198141,69.1538972 25.0050926,69.1538972 C22.456828,69.1538972 19.9597847,68.9262234 17.5363295,68.4893221 L1.05345347,49.4603733 L21.9417114,28.6426569 L31.1584902,34.7380965 L43.1980805,31.1694427 L49.6593187,19.6904495 L46.011672,5.33180173 L66.7908283,29.9764186 L66.7908283,29.9764186 Z"></path>
                            <path d="M1.053112,49.4598609 C1.70942888,50.1454442 2.58753442,50.4902854 3.4666644,50.4902854 C4.29645109,50.4902854 5.12794516,50.1826781 5.77504219,49.5631937 L23.0880463,32.9886124 C26.0616194,35.0287948 29.5769441,36.1260012 33.2612995,36.1260012 C38.077477,36.1260012 42.6056196,34.2496142 46.0121842,30.8425353 C49.4178951,27.4356273 51.294135,22.9060638 51.294135,18.0873393 C51.294135,13.2682732 49.4180659,8.7388806 46.0121842,5.33111854 C42.6057903,1.92455207 38.077477,0.0481650411 33.2612995,0.0481650411 C28.444439,0.0481650411 23.9159549,1.92455207 20.5099025,5.33111854 C17.1041916,8.7388806 15.2284639,13.2682732 15.2284639,18.0873393 C15.2284639,21.7724774 16.325797,25.2883546 18.3652625,28.2633145 L1.15777439,44.7362709 C-0.174664976,46.0121321 -0.221447189,48.1267824 1.053112,49.4598609 L1.053112,49.4598609 Z M21.1441942,26.390685 C19.5199636,24.0261572 18.56827,21.1659736 18.56827,18.0873393 C18.56827,9.98211938 25.1590983,3.38897428 33.2612995,3.38897428 C41.3624762,3.38897428 47.9544997,9.98211938 47.9544997,18.0873393 C47.9544997,26.1920469 41.3626469,32.7857044 33.2612995,32.7857044 C30.2023574,32.7857044 27.3590575,31.8456321 25.0047512,30.2389351 C23.490988,29.2074859 22.1805739,27.9005395 21.1441942,26.390685 L21.1441942,26.390685 Z" fill="#FFFFFF"></path>
                        </g>
                    </g>
                    <g transform="translate(170.225788, 41.845514)" id="Rectangle-path" fill="#000000">
                        <rect x="0.140517376" y="13.3365925" width="31.7121936" height="5.12394055"></rect>
                        <rect x="13.4355441" y="0.037233968" width="5.12214007" height="31.7229991"></rect>
                    </g>
                    <g transform="translate(503.847844, 433.826966)" id="Rectangle-path" fill="#FFFFFF">
                        <rect x="0.075295459" y="15.0635312" width="31.7121936" height="1.70798018"></rect>
                        <rect x="15.0777022" y="0.056192548" width="1.70738002" height="31.7229991"></rect>
                    </g>
                    <g transform="translate(224.520473, 417.942751)" id="Rectangle-path" fill="#FFFFFF">
                        <rect x="0.0725636509" y="12.5246187" width="31.7121936" height="6.83157913"></rect>
                        <rect x="12.5139004" y="0.0790794824" width="6.82952009" height="31.7226575"></rect>
                    </g>
                    <path d="M535.077874,194.1017 C534.536805,194.1017 534.048836,193.761129 533.862902,193.254371 L533.425301,192.051782 C533.403617,191.992686 533.281198,191.9037 533.20061,191.9037 L533.169706,191.90575 L533.135388,191.905066 L529.466569,191.79234 L529.464691,191.79234 C529.356273,191.79234 529.241366,191.867491 529.212853,191.928807 L528.637807,193.154112 C528.434288,193.60297 527.974661,193.898279 527.471154,193.898279 C527.280782,193.898279 527.097068,193.857288 526.924451,193.775817 L524.42331,192.614561 C523.77775,192.313445 523.497227,191.54417 523.796702,190.899237 L524.334697,189.751474 C524.360137,189.694428 524.330429,189.551982 524.278183,189.509624 L524.214839,189.450528 L521.372905,186.400246 C521.345758,186.363866 521.255096,186.313481 521.154873,186.313481 C521.123628,186.313481 521.105188,186.318776 521.098871,186.321167 L519.876728,186.768487 C519.735357,186.819897 519.588352,186.8462 519.438614,186.8462 C518.896692,186.8462 518.407869,186.502554 518.222448,185.991527 L517.277413,183.401546 C517.158579,183.077371 517.173263,182.725527 517.319073,182.411771 C517.464371,182.099211 517.721844,181.862314 518.044368,181.744976 L519.266511,181.299364 C519.337025,181.273744 519.419321,181.148891 519.413345,181.076814 L519.410443,181.041117 L519.517495,177.412342 C519.528081,177.331555 519.450395,177.190476 519.376978,177.156828 L518.171568,176.591999 C517.863215,176.451945 517.62384,176.19404 517.503982,175.868499 C517.383612,175.541933 517.398637,175.188894 517.545642,174.874113 L518.708368,172.373459 C518.9194,171.91982 519.380222,171.626218 519.882362,171.626218 C520.071199,171.626218 520.253718,171.666868 520.425139,171.74663 L521.528106,172.260562 L521.528106,172.260562 C521.528618,172.260562 521.55218,172.268931 521.592304,172.268931 C521.682795,172.268931 521.752456,172.229647 521.769871,172.208468 L521.826215,172.148006 L524.917085,169.245464 C524.979233,169.198153 525.027381,169.039994 525.000917,168.967917 L524.580389,167.815372 C524.462409,167.492052 524.477947,167.141403 524.62444,166.827647 C524.770421,166.514404 525.028577,166.277165 525.351613,166.159486 L527.944782,165.212411 C528.087177,165.161 528.234183,165.135039 528.383408,165.135039 C528.925842,165.135039 529.414153,165.475952 529.599062,165.983051 L530.019931,167.135255 C530.042298,167.196571 530.161132,167.282995 530.242915,167.282995 L530.276038,167.280604 L530.31343,167.281287 L533.941613,167.39316 C534.039275,167.382058 534.171938,167.312714 534.201134,167.250373 L534.722056,166.123447 C534.940259,165.665025 535.40091,165.373302 535.89827,165.373302 C536.088301,165.373302 536.272016,165.414294 536.444632,165.495252 L538.941846,166.658899 C539.251223,166.801003 539.489061,167.058396 539.608578,167.382399 C539.728777,167.70794 539.714777,168.059784 539.569479,168.374224 L539.087314,169.413359 C539.057265,169.477408 539.091071,169.624807 539.14639,169.672118 L539.19505,169.718916 L542.080181,172.793281 C542.105109,172.827782 542.195258,172.876972 542.292237,172.876972 C542.323483,172.876972 542.341581,172.871677 542.34824,172.869286 L543.473403,172.459029 C543.614091,172.40779 543.762462,172.381316 543.913053,172.381316 C544.454634,172.381316 544.943116,172.721887 545.12922,173.228986 L546.073743,175.822213 C546.191723,176.143825 546.176869,176.494815 546.030888,176.808742 C545.885077,177.122156 545.627092,177.360078 545.304397,177.477587 L544.179917,177.888527 C544.105134,177.91705 544.021984,178.048394 544.027106,178.113981 L544.03018,178.149507 L543.907931,181.891008 C543.897345,181.969063 543.975714,182.113216 544.048449,182.147888 L545.194784,182.678899 C545.507063,182.821857 545.746097,183.081128 545.865272,183.407865 C545.983935,183.734089 545.967885,184.085762 545.819514,184.398152 L544.657813,186.899489 C544.443536,187.354153 543.982031,187.646047 543.480403,187.646047 L543.480403,187.646047 C543.293616,187.645876 543.112804,187.606422 542.94292,187.528709 L541.855319,187.017169 C541.85549,187.017169 541.85549,187.01751 541.85549,187.01751 C541.855148,187.01751 541.831757,187.009483 541.792317,187.009483 C541.70285,187.009483 541.62653,187.049791 541.603139,187.076948 L541.553796,187.128871 L538.529513,189.950112 C538.461218,190.001181 538.4199,190.155412 538.443461,190.220998 L538.8826,191.42 C539.126243,192.091236 538.779815,192.833695 538.111205,193.077595 L535.51889,194.023304 C535.37769,194.075397 535.228977,194.1017 535.077874,194.1017 L535.077874,194.1017 Z M533.200439,190.624423 C533.816803,190.624423 534.416606,191.039975 534.626443,191.613173 L535.078045,192.822423 C535.078215,192.822423 535.078728,192.822423 535.080094,192.822081 L537.673433,191.875689 L537.241978,190.658753 C537.027873,190.067792 537.238905,189.341901 537.732508,188.949919 L540.658616,186.215101 C541.069583,185.762487 541.828001,185.601766 542.39007,185.855571 L543.482111,186.368649 L544.662252,183.854673 L543.503453,183.305215 C542.932846,183.031597 542.569004,182.371463 542.637128,181.753003 L542.749986,178.174955 C542.719765,177.54881 543.136878,176.915662 543.734632,176.689354 L544.866625,176.275852 L543.92842,173.668108 L542.787207,174.071191 C542.63286,174.127555 542.466049,174.15659 542.292408,174.15659 C541.815537,174.15659 541.354203,173.939165 541.076241,173.585783 L538.28348,170.616631 C537.814292,170.188611 537.660969,169.447347 537.927833,168.873808 L538.409485,167.836381 L535.903392,166.654458 L535.360958,167.789924 C535.09768,168.353386 534.43146,168.731021 533.809803,168.665605 L530.303698,168.561247 C529.669065,168.5896 529.034432,168.165679 528.81896,167.574206 L528.39792,166.421831 L525.790068,167.361562 L526.202571,168.529479 C526.417189,169.117878 526.210767,169.845478 525.722285,170.23985 L522.727711,173.056651 C522.454872,173.365283 522.034515,173.548379 521.592987,173.548379 C521.383832,173.548379 521.177581,173.505338 520.996428,173.423867 L519.885948,172.906178 L518.705124,175.415201 L519.914461,175.995914 C520.481653,176.255186 520.855057,176.915662 520.790347,177.54249 L520.690978,181.012081 C520.724272,181.646596 520.306646,182.281281 519.705478,182.500928 L518.482823,182.946881 L519.424955,185.553771 L520.661099,185.119603 C521.243998,184.906276 521.991148,185.123019 522.373088,185.601595 L525.125556,188.550935 C525.599354,188.968195 525.760018,189.704846 525.496911,190.286584 L524.956184,191.440496 L527.466203,192.617123 L528.05542,191.386182 C528.316478,190.827673 528.976722,190.451405 529.602818,190.520578 L533.148022,190.625619 C533.165096,190.624765 533.182682,190.624423 533.200439,190.624423 L533.200439,190.624423 Z M531.685481,184.918061 C529.477838,184.918061 527.484984,183.5223 526.726737,181.445396 C526.242865,180.120003 526.303477,178.686154 526.897475,177.407902 C527.491472,176.129649 528.548853,175.158833 529.874292,174.675133 C530.458387,174.461636 531.067409,174.353521 531.684456,174.353521 C533.892952,174.353521 535.885635,175.748257 536.643712,177.823795 C537.641164,180.559979 536.22916,183.597963 533.495816,184.596449 C532.911209,184.809946 532.302186,184.918061 531.685481,184.918061 L531.685481,184.918061 Z M531.684285,175.632969 C531.217488,175.632969 530.755983,175.714952 530.312747,175.876697 C529.308295,176.243401 528.507193,176.978857 528.056957,177.947452 C527.606891,178.915877 527.561304,180.002323 527.927879,181.006445 C528.502753,182.581032 530.012931,183.638784 531.685481,183.638784 C532.152108,183.638784 532.613783,183.55663 533.057531,183.394884 C535.128242,182.638249 536.198257,180.335892 535.442229,178.262746 C534.867866,176.689696 533.357689,175.632969 531.684285,175.632969 L531.684285,175.632969 Z" id="Shape" fill="#FFFFFF"></path>
                </g>
            </g>
        </g>
    </g>
</svg>