<?xml version="1.0" encoding="UTF-8" standalone="no"?>
<svg width="222px" height="132px" viewBox="0 0 222 132" version="1.1" xmlns="http://www.w3.org/2000/svg" xmlns:xlink="http://www.w3.org/1999/xlink" xmlns:sketch="http://www.bohemiancoding.com/sketch/ns">
    <!-- Generator: Sketch 3.4 (15575) - http://www.bohemiancoding.com/sketch -->
    <title>Fill-126-+-Fill-127-+-Fill-128</title>
    <desc>Created with Sketch.</desc>
    <defs></defs>
    <g id="Page-1" stroke="none" stroke-width="1" fill="none" fill-rule="evenodd" sketch:type="MSPage">
        <g id="logo-color" sketch:type="MSLayerGroup">
            <g id="Page-1" sketch:type="MSShapeGroup">
                <g id="Sign-in-or-Sign-up">
                    <g id="Logo">
                        <g id="Fill-126-+-Fill-127-+-Fill-128">
                            <path d="M59.4112245,82.2557069 C45.8170918,82.2557069 34.7530612,93.3084655 34.7530612,106.885931 C34.7530612,120.472569 45.8170918,131.520741 59.4112245,131.520741 C73.0122449,131.520741 84.0785714,120.472569 84.0785714,106.885931 C84.0785714,93.3084655 73.0122449,82.2557069 59.4112245,82.2557069 L59.4112245,82.2557069 L59.4112245,82.2557069 Z" id="Fill-126" fill="#FFFFFF"></path>
                            <path d="M169.036735,82.2557069 C155.440306,82.2557069 144.376276,93.3084655 144.376276,106.885931 C144.376276,120.472569 155.440306,131.520741 169.036735,131.520741 C182.642347,131.520741 193.704082,120.472569 193.704082,106.885931 C193.704082,93.3084655 182.642347,82.2557069 169.036735,82.2557069 L169.036735,82.2557069 L169.036735,82.2557069 Z" id="Fill-127" fill="#FFFFFF"></path>
                            <path d="M172.331378,49.5973276 L172.331378,25.3385862 C177.090816,28.2485345 181.616071,31.585 185.88648,35.3456897 C191.816837,40.5693793 196.135459,45.6852931 198.984694,49.5124828 C192.243878,49.5354138 183.025765,49.5652241 172.331378,49.5973276 L172.331378,49.5973276 L172.331378,49.5973276 Z M121.605357,49.7601379 L121.605357,10.9080862 C123.926531,10.9241379 126.279847,11.0342069 128.66301,11.2497586 C142.128571,12.4880345 154.528827,15.980431 165.744388,21.6673276 L165.744388,49.6202586 C152.29949,49.6638276 137.017857,49.7096897 121.605357,49.7601379 L121.605357,49.7601379 L121.605357,49.7601379 Z M123.664796,69.246931 L112.958929,69.246931 C111.569898,69.246931 110.444898,68.1210172 110.444898,66.7291034 C110.444898,65.344069 111.569898,64.213569 112.958929,64.213569 L117.339541,64.213569 C117.644898,64.3075862 117.973214,64.3626207 118.308418,64.3626207 C118.652806,64.3626207 118.976531,64.3075862 119.281888,64.213569 L123.664796,64.213569 C125.056122,64.213569 126.176531,65.344069 126.176531,66.7291034 C126.176531,68.1210172 125.056122,69.246931 123.664796,69.246931 L123.664796,69.246931 L123.664796,69.246931 Z M55.0903061,49.9642241 C57.9464286,45.373431 63.2385204,37.8956207 71.0951531,30.7480172 C84.0005102,19.0096207 98.7288265,12.4421724 115.018367,11.1419828 L115.018367,49.7784828 C93.232398,49.849569 71.6645408,49.916069 55.0903061,49.9642241 L55.0903061,49.9642241 L55.0903061,49.9642241 Z M212.220663,51.2529483 C211.956633,50.8012069 206.085969,39.7507414 192.946429,28.0742586 C180.885969,17.3517069 160.096429,3.97603448 129.590561,1.17615517 C105.060969,-1.07796552 82.3795918,6.65437931 63.980102,23.5362069 C50.1885204,36.1895517 43.6956633,49.4391034 43.4247449,49.9940345 C43.4247449,49.9940345 43.4247449,49.9940345 43.4247449,50.0009138 C33.2790816,50.028431 26.5405612,50.049069 25.1607143,50.049069 C-3.99515306,50.049069 -12.2971939,105.863207 26.2489796,105.863207 C28.8341837,105.863207 17.5153061,106.046655 29.7089286,106.046655 C30.1543367,90.061431 43.3053571,77.1948276 59.4112245,77.1948276 C75.5239796,77.1948276 88.675,90.061431 89.1204082,106.046655 L139.164541,106.046655 C139.609949,89.972 152.836735,77.027431 169.036735,77.027431 C185.21148,77.027431 198.42449,89.9261379 198.91352,105.96181 C234.943367,103.673293 217.620663,60.5675345 212.220663,51.2529483 L212.220663,51.2529483 L212.220663,51.2529483 Z" id="Fill-128" fill="#FA4986"></path>
                        </g>
                    </g>
                </g>
            </g>
        </g>
    </g>
</svg>