<?xml version="1.0" encoding="UTF-8"?>
<svg width="67px" height="100px" viewBox="0 0 67 100" version="1.1" xmlns="http://www.w3.org/2000/svg" xmlns:xlink="http://www.w3.org/1999/xlink">
    <!-- Generator: Sketch 39.1 (31720) - http://www.bohemiancoding.com/sketch -->
    <title>fuel-1</title>
    <desc>Created with Sketch.</desc>
    <defs></defs>
    <g id="Page-1" stroke="none" stroke-width="1" fill="none" fill-rule="evenodd">
        <g id="Desktop-HD" transform="translate(-478.000000, -776.000000)" fill="#000000">
            <g id="fuel-1" transform="translate(478.257683, 776.000000)">
                <g id="Layer_1">
                    <path d="M66.1957425,57.7945419 C66.1414772,57.0450292 64.7801583,39.3206628 56.9009443,29.2038986 C48.9368188,18.9781676 34.130182,16.1830409 33.5037879,16.0690058 C33.3981852,16.0497076 33.2908256,16.0401559 33.1836613,16.0401559 L25.1525824,16.0401559 L25.1525824,1.78226121 C25.1525824,0.798050682 24.3534371,0 23.3678765,0 L10.870641,0 C7.92098655,0 5.52140332,2.39863548 5.52140332,5.34678363 C5.52140332,8.29493177 7.92098655,10.6935673 10.870641,10.6935673 L12.6600317,10.6935673 L12.6600317,16.0403509 L7.32074914,16.0403509 C3.3761646,16.0403509 0.167285677,19.2423002 0.167285677,23.1779727 L0.167285677,92.6676413 C0.167285677,96.6033138 3.36913743,99.8052632 7.30474281,99.8052632 L59.0629702,99.8052632 C62.9985756,99.8052632 66.2004273,96.6076023 66.2004273,92.677193 L66.2004273,57.922807 C66.2004273,57.879922 66.1988657,57.837037 66.1957425,57.7945419 L66.1957425,57.7945419 Z M10.870641,7.1288499 C9.87258771,7.1288499 9.09081509,6.3460039 9.09081509,5.34658869 C9.09081509,4.36393762 9.88937484,3.56432749 10.870641,3.56432749 L21.5835611,3.56432749 L21.5835611,16.039961 L16.2294434,16.039961 L16.2294434,8.91111111 C16.2294434,7.92690058 15.4302981,7.1288499 14.4447375,7.1288499 L10.870641,7.1288499 L10.870641,7.1288499 Z M62.6310156,92.6769981 C62.6310156,94.6419103 61.0303825,96.2405458 59.0629702,96.2405458 L7.30474281,96.2405458 C5.33733052,96.2405458 3.73669744,94.6376218 3.73669744,92.6674464 L3.73669744,23.1777778 C3.73669744,21.2076023 5.34455289,19.6046784 7.32094434,19.6046784 L14.4447375,19.6046784 L23.3680717,19.6046784 L33.0095437,19.6046784 C34.5279979,19.9152047 47.3615616,22.7614035 54.0836349,31.3922027 C61.0809391,40.3768031 62.5396624,56.87154 62.6310156,57.9923977 L62.6310156,92.6769981 L62.6310156,92.6769981 Z" id="Shape"></path>
                    <path d="M50.1382696,63.1163743 L58.0161171,55.2493177 L55.492192,52.7288499 L47.6143445,60.5959064 L18.7531733,60.5959064 L10.8753258,52.7288499 L8.35140069,55.2493177 L16.2292482,63.1163743 L16.2292482,81.2446394 L8.35140069,89.1116959 L10.8753258,91.6321637 L18.7531733,83.7651072 L47.6143445,83.7651072 L55.492192,91.6321637 L58.0161171,89.1116959 L50.1382696,81.2446394 L50.1382696,63.1163743 L50.1382696,63.1163743 Z M46.5688578,80.2005848 L19.7988552,80.2005848 L19.7988552,64.1604288 L46.569053,64.1604288 L46.569053,80.2005848 L46.5688578,80.2005848 Z" id="Shape"></path>
                </g>
            </g>
        </g>
    </g>
</svg>