<?xml version="1.0" encoding="UTF-8"?>
<svg width="101px" height="100px" viewBox="0 0 101 100" version="1.1" xmlns="http://www.w3.org/2000/svg" xmlns:xlink="http://www.w3.org/1999/xlink">
    <!-- Generator: Sketch 39.1 (31720) - http://www.bohemiancoding.com/sketch -->
    <title>gearbox-1</title>
    <desc>Created with Sketch.</desc>
    <defs></defs>
    <g id="Page-1" stroke="none" stroke-width="1" fill="none" fill-rule="evenodd">
        <g id="Desktop-HD" transform="translate(-313.000000, -776.000000)" fill="#252525">
            <g id="gearbox-1" transform="translate(313.572104, 776.000000)">
                <g id="Layer_1">
                    <path d="M89.9802734,0 L10.0197266,0 C4.49492188,0 0,4.49492188 0,10.0197266 L0,89.9804688 C0,95.5052734 4.49492188,100 10.0197266,100 L89.9800781,100 C95.5050781,100 100,95.5052734 100,89.9804688 L100,10.0197266 C100,4.49492188 95.5050781,0 89.9802734,0 L89.9802734,0 Z M96,89.9804688 C96,93.2998047 93.2996094,96 89.9802734,96 L10.0197266,96 C6.70039062,96 4,93.2998047 4,89.9804688 L4,10.0197266 C4,6.70039063 6.70039062,4 10.0197266,4 L89.9800781,4 C93.2994141,4 95.9998047,6.70039063 95.9998047,10.0197266 L95.9998047,89.9804688 L96,89.9804688 Z" id="Shape"></path>
                    <path d="M84,71.6144531 L84,28.3855469 C87.5832031,26.3074219 90,22.4320313 90,18 C90,11.3830078 84.6169922,6 78,6 C71.3830078,6 66,11.3830078 66,18 C66,22.4320313 68.4167969,26.3074219 72,28.3855469 L72,42 L56,42 L56,28.3855469 C59.5832031,26.3074219 62,22.4320313 62,18 C62,11.3830078 56.6169922,6 50,6 C43.3830078,6 38,11.3830078 38,18 C38,22.4320313 40.4167969,26.3074219 44,28.3855469 L44,42 L28,42 L28,28.3855469 C31.5832031,26.3074219 34,22.4320313 34,18 C34,11.3830078 28.6169922,6 22,6 C15.3830078,6 10,11.3830078 10,18 C10,22.4320313 12.4167969,26.3074219 16,28.3855469 L16,52 C16,53.1044922 16.8955078,54 18,54 L44,54 L44,71.6144531 C40.4167969,73.6927734 38,77.5681641 38,82 C38,88.6167969 43.3830078,94 50,94 C56.6169922,94 62,88.6166016 62,82 C62,77.5681641 59.5832031,73.6925781 56,71.6144531 L56,54 L72,54 L72,71.6144531 C68.4167969,73.6927734 66,77.5683594 66,82 C66,88.6167969 71.3830078,94 78,94 C84.6169922,94 90,88.6166016 90,82 C90,77.5681641 87.5832031,73.6925781 84,71.6144531 L84,71.6144531 Z M70,18 C70,13.5888672 73.5888672,10 78,10 C82.4111328,10 86,13.5888672 86,18 C86,22.4111328 82.4111328,26 78,26 C73.5888672,26 70,22.4111328 70,18 L70,18 Z M42,18 C42,13.5888672 45.5888672,10 50,10 C54.4111328,10 58,13.5888672 58,18 C58,22.4111328 54.4111328,26 50,26 C45.5888672,26 42,22.4111328 42,18 L42,18 Z M14,18 C14,13.5888672 17.5888672,10 22,10 C26.4111328,10 30,13.5888672 30,18 C30,22.4111328 26.4111328,26 22,26 C17.5888672,26 14,22.4111328 14,18 L14,18 Z M58,82 C58,86.4111328 54.4111328,90 50,90 C45.5888672,90 42,86.4111328 42,82 C42,77.5888672 45.5888672,74 50,74 C54.4111328,74 58,77.5888672 58,82 L58,82 Z M54,50 C52.8955078,50 52,50.8955078 52,52 L52,70.1697266 C51.3490234,70.0599609 50.6816406,70 50,70 C49.3183594,70 48.6509766,70.0601562 48,70.1697266 L48,52 C48,50.8955078 47.1044922,50 46,50 L20,50 L20,29.8302734 C20.6509766,29.9400391 21.3183594,30 22,30 C22.6816406,30 23.3490234,29.9398437 24,29.8302734 L24,44 C24,45.1044922 24.8955078,46 26,46 L46,46 C47.1044922,46 48,45.1044922 48,44 L48,29.8302734 C48.6509766,29.9400391 49.3183594,30 50,30 C50.6816406,30 51.3490234,29.9398437 52,29.8302734 L52,44 C52,45.1044922 52.8955078,46 54,46 L74,46 C75.1044922,46 76,45.1044922 76,44 L76,29.8302734 C76.6509766,29.9400391 77.3183594,30 78,30 C78.6816406,30 79.3490234,29.9398437 80,29.8302734 L80,70.1699219 C79.3490234,70.0601562 78.6816406,70.0001953 78,70.0001953 C77.3183594,70.0001953 76.6509766,70.0603516 76,70.1699219 L76,52 C76,50.8955078 75.1044922,50 74,50 L54,50 L54,50 Z M78,90 C73.5888672,90 70,86.4111328 70,82 C70,77.5888672 73.5888672,74 78,74 C82.4111328,74 86,77.5888672 86,82 C86,86.4111328 82.4111328,90 78,90 L78,90 Z" id="Shape"></path>
                </g>
            </g>
        </g>
    </g>
</svg>