<?xml version="1.0" encoding="UTF-8" standalone="no"?>
<svg width="302px" height="297px" viewBox="0 0 302 297" version="1.1" xmlns="http://www.w3.org/2000/svg" xmlns:xlink="http://www.w3.org/1999/xlink">
    <!-- Generator: Sketch 3.8.3 (29802) - http://www.bohemiancoding.com/sketch -->
    <title>Group 7</title>
    <desc>Created with Sketch.</desc>
    <defs>
        <linearGradient x1="7.42812223e-05%" y1="49.9958203%" x2="99.999892%" y2="49.9958203%" id="linearGradient-1">
            <stop stop-color="#939598" offset="0%"></stop>
            <stop stop-color="#A9ABAD" offset="17.81%"></stop>
            <stop stop-color="#B7B9BB" offset="35.78%"></stop>
            <stop stop-color="#BCBEC0" offset="50.92%"></stop>
            <stop stop-color="#B7B9BB" offset="65.48%"></stop>
            <stop stop-color="#A8AAAD" offset="83.09%"></stop>
            <stop stop-color="#939598" offset="100%"></stop>
        </linearGradient>
        <linearGradient x1="8.07793592e-05%" y1="50.0005285%" x2="100%" y2="50.0005285%" id="linearGradient-2">
            <stop stop-color="#D1D3D4" offset="0%"></stop>
            <stop stop-color="#D4D6D7" offset="1.75%"></stop>
            <stop stop-color="#ECECED" offset="19.9%"></stop>
            <stop stop-color="#FAFAFA" offset="36.75%"></stop>
            <stop stop-color="#FFFFFF" offset="50.92%"></stop>
            <stop stop-color="#FAFAFA" offset="64.53%"></stop>
            <stop stop-color="#EBECEC" offset="81.03%"></stop>
            <stop stop-color="#D3D5D6" offset="98.96%"></stop>
            <stop stop-color="#D1D3D4" offset="100%"></stop>
        </linearGradient>
        <linearGradient x1="0.000193532624%" y1="50%" x2="100%" y2="50%" id="linearGradient-3">
            <stop stop-color="#939598" offset="0%"></stop>
            <stop stop-color="#D6D6D7" offset="100%"></stop>
        </linearGradient>
        <linearGradient x1="4.83832729e-05%" y1="50.0001987%" x2="99.9998549%" y2="50.0001987%" id="linearGradient-4">
            <stop stop-color="#D1D3D4" offset="0%"></stop>
            <stop stop-color="#D4D6D7" offset="1.75%"></stop>
            <stop stop-color="#ECECED" offset="19.9%"></stop>
            <stop stop-color="#FAFAFA" offset="36.75%"></stop>
            <stop stop-color="#FFFFFF" offset="50.92%"></stop>
            <stop stop-color="#FAFAFA" offset="64.53%"></stop>
            <stop stop-color="#EBECEC" offset="81.03%"></stop>
            <stop stop-color="#D3D5D6" offset="98.96%"></stop>
            <stop stop-color="#D1D3D4" offset="100%"></stop>
        </linearGradient>
        <linearGradient x1="0.000105944174%" y1="49.999589%" x2="100.000071%" y2="49.999589%" id="linearGradient-5">
            <stop stop-color="#58595B" offset="0%"></stop>
            <stop stop-color="#939598" offset="100%"></stop>
        </linearGradient>
    </defs>
    <g id="Page-1" stroke="none" stroke-width="1" fill="none" fill-rule="evenodd">
        <g id="Desktop-HD" transform="translate(-1502.000000, -955.000000)">
            <g id="Group-7" transform="translate(1502.000000, 955.000000)">
                <rect id="Rectangle-16" fill="#F6F9FA" x="1" y="0" width="301" height="297"></rect>
                <g id="Group-4" transform="translate(0.000000, 47.000000)">
                    <g id="Group" transform="translate(219.123288, 57.075362)">
                        <path d="M78.8673014,120.324278 C78.8673014,125.84882 61.8646301,130.327177 40.8912329,130.327177 C19.9184247,130.327177 2.91693151,125.84882 2.91693151,120.324278 C2.91693151,114.800325 19.9184247,110.32138 40.8912329,110.32138 C61.8646301,110.32138 78.8673014,114.800325 78.8673014,120.324278" id="Fill-54" fill="#E9E6DB"></path>
                        <path d="M81.4726301,62.4845768 C81.4726301,64.7164 63.2647808,73.2647594 40.8034658,73.2647594 C18.3433288,73.2647594 0.134890411,64.7164 0.134890411,62.4845768 C0.134890411,60.2527536 18.3433288,57.0977217 40.8034658,57.0977217 C63.2647808,57.0977217 81.4726301,60.2527536 81.4726301,62.4845768" id="Fill-55" fill="#FAAF5F"></path>
                        <path d="M74.8794932,68.711087 C74.8794932,72.4256928 59.4395479,77.9249333 40.3940822,77.9249333 C21.3486164,77.9249333 5.90808219,72.4256928 5.90808219,68.711087 C5.90808219,64.9947159 21.3486164,61.9838435 40.3940822,61.9838435 C59.4395479,61.9838435 74.8794932,64.9947159 74.8794932,68.711087" id="Fill-56" fill="#785324"></path>
                        <path d="M5.90808219,77.3930145 L20.1346027,113.45111 C20.1346027,113.45111 23.4326438,120.912684 40.8034658,120.912684 C59.0219178,120.912684 61.4717397,113.45111 61.4717397,113.45111 L75.6988493,77.3930145 L5.90808219,77.3930145" id="Fill-57" fill="#FAAF5F"></path>
                        <path d="M40.8034658,71.8119855 C40.8034658,71.8119855 18.4558356,73.4689362 0.134890411,62.4845768 L2.9540411,77.6154319 C2.9540411,77.6154319 14.8326438,86.6274551 40.8034658,86.6274551 C66.7748767,86.6274551 78.6540685,77.6154319 78.6540685,77.6154319 L81.4726301,62.4845768 C63.1516849,73.4689362 40.8034658,71.8119855 40.8034658,71.8119855" id="Fill-58" fill="#EF973E"></path>
                        <path d="M40.119,13.2585478 C40.1390274,13.2585478 40.162,13.2579594 40.1820274,13.257371 L40.1820274,13.2526638 C40.2709726,13.2526638 40.3722877,13.254429 40.4653562,13.2550174 C40.5578356,13.254429 40.6591507,13.2526638 40.7480959,13.2526638 L40.7480959,13.257371 C43.2544658,13.2879681 47.0107808,13.535687 51.1116849,14.4418319 C53.0967534,12.6554319 55.8946986,8.86021449 54.9027534,2.10531594 C54.9027534,2.10531594 52.8057671,7.78813913 46.4983151,11.6757362 C47.1969178,9.09910725 47.2599452,5.38097101 44.6422466,0.886727536 C44.6422466,0.886727536 44.8083562,7.19090725 40.119,13.2585478" id="Fill-59" fill="#F282A1"></path>
                        <path d="M28.9802329,14.6365942 C33.0970411,13.6451304 36.9275753,13.3338638 39.5965205,13.2691391 C34.6043973,7.09028986 34.7793425,0.524269565 34.7793425,0.524269565 C32.1616438,5.01910145 32.2252603,8.73664928 32.923274,11.3138667 C26.616411,7.42626957 24.5194247,1.74285797 24.5194247,1.74285797 C23.4090822,9.30504928 27.0481781,13.1602841 28.9802329,14.6365942" id="Fill-60" fill="#F282A1"></path>
                        <path d="M35.1810685,13.5656957 C37.1148904,13.3550464 38.8319452,13.2738464 40.1820274,13.257371 L40.1820274,13.2526638 C40.2709726,13.2526638 40.3722877,13.254429 40.4653562,13.2550174 C40.5578356,13.254429 40.6591507,13.2526638 40.7480959,13.2526638 L40.7480959,13.257371 C40.9630959,13.260313 41.1922329,13.2650203 41.4249041,13.2714928 C43.315137,10.6313159 44.9856575,6.63192174 44.6422466,0.886727536 C44.6422466,0.886727536 43.5813836,6.53601159 39.8344932,12.0705565 C35.8849726,6.42362609 34.7793425,0.524269565 34.7793425,0.524269565 C34.4341644,6.30182609 36.1253014,10.3147536 38.0290822,12.954342 C29.4496986,9.48451304 24.5194247,1.74285797 24.5194247,1.74285797 C27.075274,9.40213623 32.0273425,12.4024174 35.1810685,13.5656957" id="Fill-61" fill="#F4A0BC"></path>
                        <path d="M45.2530822,13.5133275 C48.375,12.1076261 52.6060822,8.98848696 54.9027534,2.10531594 C54.9027534,2.10531594 50.008411,9.78283478 41.4914658,13.2726696 C42.5794247,13.3020899 43.8535205,13.3744638 45.2530822,13.5133275" id="Fill-62" fill="#F4A0BC"></path>
                        <path d="M73.8981507,36.4081971 C70.7190959,15.7692754 48.9876027,13.3574 40.7480959,13.257371 L40.7480959,13.2526638 C40.6591507,13.2526638 40.5578356,13.254429 40.4653562,13.2550174 C40.3722877,13.254429 40.2709726,13.2526638 40.1820274,13.2526638 L40.1820274,13.257371 C31.9431096,13.3574 10.2110274,15.7692754 7.03256164,36.4081971 C3.77869863,57.5325536 19.2327808,65.8643797 19.2327808,65.8643797 C19.2327808,65.8643797 25.1762055,66.9558725 40.4653562,66.9558725 C55.7545068,66.9558725 61.6979315,65.8643797 61.6979315,65.8643797 C61.6979315,65.8643797 77.1514247,57.5325536 73.8981507,36.4081971" id="Fill-63" fill="#60BE85"></path>
                        <path d="M19.2327808,57.7196667 C18.4193151,57.2977797 18.6225342,51.6420232 18.1283288,49.001258 C17.6347123,46.3610812 16.7923836,44.1269043 17.199411,42.0957275 C17.6058493,40.0645507 18.0128767,38.4393739 17.199411,35.1896087 C16.3859452,31.9398435 17.4026301,31.1272551 18.1283288,28.8930783 C18.8546164,26.658313 19.2327808,25.2367246 19.2327808,23.0025478 C19.2327808,20.7701362 22.8276986,16.643058 22.8353562,16.6348203 C21.8993699,17.030229 20.9722192,17.473887 20.0609726,17.9646174 C17.0621644,19.3979739 16.5885753,26.2534899 15.3692603,27.8769014 C14.1493562,29.5020783 13.7429178,33.7674319 13.4802055,37.0177855 C13.2174932,40.2675507 13.946137,44.1269043 13.5391096,46.1580812 C13.1326712,48.189258 14.9622329,51.2360232 14.7590137,54.2827884 C14.5557945,57.3295536 16.5891644,56.3139652 16.5891644,59.9697304 C16.5891644,62.5687188 18.7415205,64.8652667 19.9896986,65.9791188 C20.6429452,66.0703217 21.7385616,66.2038899 23.334274,66.3439304 C22.0236575,63.1965478 19.7970822,58.0126928 19.2327808,57.7196667" id="Fill-64" fill="#4DAE76"></path>
                        <path d="M29.3525068,61.1889072 C27.8816712,57.5325536 28.5861644,54.8923768 27.3662603,53.0642 C26.1463562,51.2360232 25.9425479,43.3143159 26.1463562,40.1039739 C26.3495753,36.8936319 26.9598219,38.0333739 27.1630411,34.9860203 C27.3662603,31.9398435 27.1630411,29.9086667 28.179726,27.6739014 C29.196411,25.4397246 28.9931918,25.8457246 29.3525068,21.9869594 C29.7118219,18.1276058 31.9548904,14.0222986 31.9548904,14.0222986 L31.9755068,14.0140609 C31.003589,14.1829333 29.999863,14.391229 28.9802329,14.6365942 C25.312863,19.287942 24.1129863,27.8769014 23.2995205,30.3146667 C22.4860548,32.7524319 20.6559041,34.9860203 21.672589,37.2207855 C22.689274,39.4549623 21.0629315,39.4549623 21.672589,46.9706696 C22.2256986,53.7849971 26.7913562,64.6740348 27.6378082,66.6446058 C28.896589,66.7128609 30.3091096,66.7758203 31.8865616,66.8264232 C31.6256164,66.3239246 30.615411,64.3280522 29.3525068,61.1889072" id="Fill-65" fill="#4DAE76"></path>
                        <path d="M37.3310685,63.4230841 C37.1296164,61.7979072 35.9067671,56.1103768 35.4066712,54.0797884 C34.9071644,52.0486116 34.686274,48.189258 35.4066712,45.5484928 C36.1270685,42.9077275 35.0933014,41.2831391 34.6032192,39.2343101 C34.113726,37.1848928 35.0933014,33.1584319 35.4066712,31.1272551 C35.7206301,29.0960783 35.4997397,28.4864899 36.3132055,25.643313 C37.1260822,22.7995478 36.922863,21.783371 37.3310685,19.3461942 C37.739274,16.9090174 39.1594521,13.5133275 39.1594521,13.5133275 L39.1836027,13.2814957 C38.2658767,13.3109159 37.2262192,13.3709333 36.0976164,13.4739043 C34.872411,15.0620116 32.4514521,23.0096087 32.9103151,25.2367246 C33.3709452,27.4709014 32.2464658,30.1116667 31.604411,32.7524319 C30.9623562,35.3926087 31.2297808,37.8297855 31.604411,40.1039739 C31.9796301,42.3775739 31.6362192,43.7203159 31.9548904,46.9706696 C32.2735616,50.2204348 31.0259726,49.4078464 31.9548904,53.2672 C32.8832192,57.1253768 34.6026301,66.892913 34.6032192,66.8976203 C35.4720548,66.9152725 36.3809452,66.9293942 37.3328356,66.9388087 C37.3422603,66.8499594 37.5283973,65.0088377 37.3310685,63.4230841" id="Fill-66" fill="#4DAE76"></path>
                        <path d="M45.2530822,13.5133275 C43.8535205,13.3744638 42.5794247,13.3020899 41.4914658,13.2726696 C41.4914658,13.2744348 40.9896027,17.3156058 40.7480959,19.3461942 C40.5071781,21.377371 39.1594521,26.861313 38.3465753,28.6894899 C37.5331096,30.5176667 38.1427671,34.5800203 38.3465753,36.4081971 C38.5497945,38.2363739 40.5831644,41.0795507 40.1820274,43.1113159 C39.7808904,45.1424928 38.5497945,47.986258 39.5965205,52.6576116 C40.6408904,57.3177855 41.4873425,66.9040928 41.4914658,66.9535188 C42.6071096,66.9499884 43.673274,66.9405739 44.6852466,66.9258638 C44.6646301,66.6140087 44.2540685,60.3104174 44.6870137,57.7196667 C45.1311507,55.0636029 44.0396575,52.6576116 44.6870137,50.9730058 C45.3343699,49.2889884 44.0396575,46.3610812 43.6332192,42.7047275 C43.2267808,39.0489623 43.6332192,38.8459623 44.6870137,35.5956087 C45.7413973,32.3458435 43.8364384,31.3302551 43.2267808,27.4709014 C42.6165342,23.6115478 43.2267808,24.4241362 43.8364384,22.5959594 C44.4466849,20.7677826 45.2530822,13.5145043 45.2530822,13.5133275" id="Fill-67" fill="#4DAE76"></path>
                        <path d="M48.1971096,23.6115478 C48.6942603,26.658313 48.5134247,27.6739014 49.2744658,30.7206667 C50.0349178,33.7674319 48.919863,36.8141971 49.1955342,38.0727971 C49.4706164,39.3313971 48.919863,45.5484928 49.1236712,46.7670812 C49.3268904,47.986258 49.1236712,53.0642 48.1971096,55.7043768 C47.3306301,58.1756812 48.0857808,65.8755594 48.1865068,66.852313 C48.5846986,66.8411333 48.9722877,66.8293652 49.3510411,66.8158319 L50.3435753,66.6963855 C50.3435753,66.6963855 51.1570411,60.9859072 52.173726,58.4116319 C53.191,55.8373565 51.7666986,48.392258 51.8521096,45.7514928 C51.9375205,43.1113159 52.5801644,39.6579623 51.7666986,36.2051971 C50.9532329,32.7524319 52.173137,32.3458435 51.7666986,28.2834899 C51.3602603,24.2211362 49.5094932,14.1182087 49.5094932,14.1182087 L49.5094932,14.1176203 C48.1953425,13.8746087 46.9318493,13.6945565 45.7502329,13.5656957 C45.7502329,13.5662841 47.6999589,20.5647826 48.1971096,23.6115478" id="Fill-68" fill="#4DAE76"></path>
                        <path d="M54.9027534,24.8307246 C56.0048493,26.455313 56.6469041,33.5644319 56.9673425,35.3926087 C57.2883699,37.2207855 57.2571507,40.2675507 56.8501233,43.9233159 C56.4436849,47.5796696 57.2571507,47.3766696 56.8501233,53.6732 C56.4707808,59.5460783 54.3243151,65.7884754 54.036863,66.6022406 C54.8556301,66.5534029 55.6031233,66.5028 56.2805205,66.4510203 L56.2822877,66.4510203 C56.2822877,66.4510203 59.0867123,59.3607304 59.9001781,57.7196667 C60.7136438,56.0791913 60.916863,49.8138464 61.3233014,46.9706696 C61.7303288,44.1269043 61.1200822,42.2987275 60.3066164,39.2343101 C59.4931507,36.1693043 59.6969589,33.5644319 59.4931507,31.1272551 C59.2899315,28.6894899 58.4770548,25.2367246 57.1846986,23.0025478 C55.8929315,20.7695478 55.1100959,15.5321478 55.1089178,15.5244986 C53.7606027,15.0867246 52.4193562,14.7307391 51.1116849,14.4418319 C51.112274,14.4441855 53.8000685,23.2055478 54.9027534,24.8307246" id="Fill-69" fill="#4DAE76"></path>
                        <path d="M67.2201918,41.5838145 C67.0169726,36.4005478 67.0169726,34.3770203 65.6875068,31.5332551 C64.3656986,28.7065536 61.4882329,18.4082754 61.4546575,18.2870638 C60.3596301,17.6662957 59.2375068,17.117313 58.1030137,16.6377623 C61.4275616,19.1526087 62.5437945,28.2840783 62.5844384,31.3302551 C62.6250822,34.3770203 64.170137,37.2207855 65.187411,39.2343101 C66.2040959,41.2472464 65.3906301,46.7670812 65.187411,49.001258 C64.9836027,51.2360232 63.7636986,55.7043768 62.9502329,57.7196667 C62.1367671,59.7349565 59.4813699,66.1585826 59.4813699,66.159171 C59.4819589,66.159171 59.4825479,66.1585826 59.483726,66.1585826 L61.6979315,65.8643797 C66.1387123,58.9617913 67.423411,46.7670812 67.2201918,41.5838145" id="Fill-70" fill="#4DAE76"></path>
                        <polyline id="Fill-71" fill="#399F64" points="11.4686301 21.0690464 13.4006849 24.7865942 12.8770274 25.7945333 8.31549315 27.5497478 11.0492329 25.3308696 8.83090411 23.7692406 11.8762466 24.0157826 11.4686301 21.0690464"></polyline>
                        <polyline id="Fill-72" fill="#399F64" points="8.14584932 46.2322203 12.1242329 47.9886116 12.3563151 49.1436522 9.804 53.5213913 10.5750548 49.9532986 7.76473973 50.1274667 10.3900959 48.3522464 8.14584932 46.2322203"></polyline>
                        <polyline id="Fill-73" fill="#399F64" points="19.2822603 36.2140232 16.1709452 33.6674029 16.2498767 32.5812058 19.6068219 29.3096696 18.0376164 32.2993594 20.5852192 32.8371623 17.8067123 33.7715507 19.2822603 36.2140232"></polyline>
                        <polyline id="Fill-74" fill="#399F64" points="24.5724384 59.5702029 20.8373288 58.0785942 20.5852192 57.0188754 22.7988356 52.8888551 22.2044932 56.212171 24.7956849 55.9579797 22.4283288 57.6849507 24.5724384 59.5702029"></polyline>
                        <polyline id="Fill-75" fill="#399F64" points="25.6109178 17.5521449 27.2943973 21.2014377 26.7471781 22.1440638 22.2969726 23.6197855 25.0165753 21.6162638 22.9608219 20.0199188 25.8683288 20.3935565 25.6109178 17.5521449"></polyline>
                        <polyline id="Fill-76" fill="#399F64" points="28.1985753 48.451687 25.0872603 45.9050667 25.1661918 44.8182812 28.523137 41.5473333 26.9539315 44.5370232 29.5009452 45.0742377 26.7230274 46.0086261 28.1985753 48.451687"></polyline>
                        <polyline id="Fill-77" fill="#399F64" points="32.3566164 55.9256174 36.335589 57.6814203 36.5670822 58.8364609 34.0147671 63.2147884 34.7858219 59.6461072 31.9755068 59.8202754 34.600863 58.0456435 32.3566164 55.9256174"></polyline>
                        <polyline id="Fill-78" fill="#399F64" points="32.6352329 26.9195652 34.7881781 31.0625304 34.2050274 32.1857971 29.1216027 34.1410696 32.1681233 31.668 29.6965068 29.9280841 33.0899726 30.203458 32.6352329 26.9195652"></polyline>
                        <polyline id="Fill-79" fill="#399F64" points="39.0646164 15.425058 40.7480959 19.0743507 40.2014658 20.0169768 35.7506712 21.4926986 38.470863 19.4897652 36.4151096 17.8934203 39.3220274 18.2664696 39.0646164 15.425058"></polyline>
                        <polyline id="Fill-80" fill="#399F64" points="43.859411 44.9995101 40.7480959 42.4523014 40.8276164 41.3661043 44.1839726 38.0951565 42.6147671 41.0848464 45.1623699 41.6220609 42.3844521 42.5564493 43.859411 44.9995101"></polyline>
                        <polyline id="Fill-81" fill="#399F64" points="49.1012877 28.6483014 45.9905616 26.1016812 46.0689041 25.0154841 49.4258493 21.7439478 47.8566438 24.7336377 50.4042466 25.2714406 47.6263288 26.205829 49.1012877 28.6483014"></polyline>
                        <polyline id="Fill-82" fill="#399F64" points="48.2943014 54.1092087 50.4472466 58.2521739 49.8640959 59.3748522 44.7806712 61.3301246 47.8271918 58.8576435 45.3555753 57.1177275 48.7490411 57.392513 48.2943014 54.1092087"></polyline>
                        <polyline id="Fill-83" fill="#399F64" points="56.1880411 18.9578464 60.1670137 20.7142377 60.3985068 21.8692783 57.8467808 26.2470174 58.6172466 22.6783362 55.8075205 22.8525043 58.4322877 21.0778725 56.1880411 18.9578464"></polyline>
                        <polyline id="Fill-84" fill="#399F64" points="55.4900274 40.1039739 59.469 41.8603652 59.7004932 43.0148174 57.1487671 47.3931449 57.9192329 43.8244638 55.1089178 43.9986319 57.734274 42.224 55.4900274 40.1039739"></polyline>
                        <polyline id="Fill-85" fill="#399F64" points="62.8118082 57.8779478 59.7004932 55.3307391 59.7794247 54.244542 63.1363699 50.9730058 61.5671644 53.9626957 64.1141781 54.5004986 61.3362603 55.434887 62.8118082 57.8779478"></polyline>
                        <polyline id="Fill-86" fill="#399F64" points="68.8765753 35.6532725 64.9612192 34.7324174 64.5541918 33.7221246 66.1286986 29.3096696 66.0350411 32.6835884 68.5596712 32.0481101 66.4762329 34.106942 68.8765753 35.6532725"></polyline>
                        <polyline id="Fill-87" fill="#399F64" points="69.6664795 24.709513 65.646863 24.8695594 64.9841918 24.0046029 65.3187671 19.3320725 66.1328219 22.6077275 68.3947397 21.3202957 66.9392192 23.8616203 69.6664795 24.709513"></polyline>
                        <polyline id="Fill-88" fill="#399F64" points="74.2433288 52.4587304 70.9694384 50.1233478 70.9765068 49.0342087 74.1078493 45.5484928 72.741274 48.6346812 75.3183288 49.0018464 72.6087397 50.1186406 74.2433288 52.4587304"></polyline>
                    </g>
                    <path d="M212.083068,183.764088 C212.083068,194.263455 179.769567,202.774552 139.909718,202.774552 C100.050989,202.774552 67.739726,194.263455 67.739726,183.764088 C67.739726,173.265838 100.050989,164.753623 139.909718,164.753623 C179.769567,164.753623 212.083068,173.265838 212.083068,183.764088" id="Fill-54" fill="#D1D3D4"></path>
                    <g id="Group" transform="translate(14.726027, 0.000000)">
                        <g id="Shape">
                            <g>
                                <g transform="translate(73.041096, 143.571014)">
                                    <g>
                                        <path d="M99.5314521,32.1246029 C99.759411,30.9113101 98.9341644,29.9198464 97.6995342,29.9198464 L2.40976712,29.9198464 C1.17454795,29.9198464 0.349890411,30.9118986 0.574315068,32.1246029 L2.3779589,41.7926986 C2.60532877,43.0059913 3.80108219,43.9974551 5.03571233,43.9974551 L95.0688767,43.9974551 C96.3040959,43.9974551 97.5004384,43.0059913 97.7266301,41.7926986 L99.5314521,32.1246029 L99.5314521,32.1246029 Z" fill="url(#linearGradient-1)"></path>
                                        <polygon fill="url(#linearGradient-2)" points="86.5142329 33.8904087 13.5944795 33.8927623 17.5516575 0.489553623 82.5517534 0.489553623"></polygon>
                                    </g>
                                    <polygon fill="#D1D3D4" points="17.5516575 0.489553623 82.5517534 0.489553623 83.6526712 9.77224348 15.308589 19.4262174"></polygon>
                                    <path d="M97.6989452,29.9198464 L95.1342603,29.9198464 L95.1342603,29.925142 L93.3300274,39.5944145 C93.1032466,40.8071188 91.9063151,41.7979942 90.6716849,41.7979942 L2.38090411,41.7979942 C2.61063014,43.0089333 3.8040274,43.9974551 5.03571233,43.9974551 L95.0688767,43.9974551 C96.3040959,43.9974551 97.5004384,43.0059913 97.7266301,41.7926986 L99.530863,32.1246029 C99.7588219,30.9113101 98.9341644,29.9198464 97.6989452,29.9198464 L97.6989452,29.9198464 Z" fill="#939598"></path>
                                </g>
                                <path d="M243.642712,138.694307 C243.642712,144.861977 238.592863,149.905791 232.419123,149.905791 L11.3767397,149.905791 C5.203,149.905791 0.152561644,144.862565 0.152561644,138.694307 L0.152561644,13.0414261 C0.152561644,6.87434493 5.20241096,1.82935362 11.3767397,1.82935362 L232.419123,1.82935362 C238.592274,1.82935362 243.642712,6.87434493 243.642712,13.0408377 L243.642712,138.694307 L243.642712,138.694307 Z" fill="url(#linearGradient-3)"></path>
                                <path d="M245.005753,137.332148 C245.005753,143.498052 239.957082,148.543632 233.782164,148.543632 L12.7403699,148.543632 C6.56721918,148.543632 1.51678082,143.498641 1.51678082,137.332148 L1.51678082,11.6786783 C1.51678082,5.51218551 6.56663014,0.467194203 12.7403699,0.467194203 L233.782753,0.467194203 C239.957082,0.467194203 245.006342,5.5115971 245.006342,11.6786783 L245.006342,137.332148 L245.005753,137.332148 Z" fill="url(#linearGradient-4)"></path>
                                <path d="M228.369466,6.33301159 L18.1536575,6.33301159 C12.2815068,6.33301159 7.47905479,11.1302841 7.47905479,16.9961014 L7.47905479,32.7683188 L7.47905479,124.939145 L7.47905479,135.602235 L18.1536575,135.602235 L228.369466,135.602235 L239.044068,135.602235 L239.044068,124.939145 L239.044068,32.7677304 L239.044068,16.995513 C239.044068,11.1302841 234.241616,6.33301159 228.369466,6.33301159 L228.369466,6.33301159 Z" fill="#292E3D"></path>
                            </g>
                        </g>
                        <g transform="translate(7.068493, 5.884058)">
                            <g transform="translate(11.780822, 13.533333)" id="Rectangle-path">
                                <g fill="#F1607C">
                                    <rect x="0.413506849" y="0.0541333333" width="68.1390959" height="4.78197391"></rect>
                                    <rect x="0.413506849" y="12.0564348" width="44.0696986" height="4.78138551"></rect>
                                    <rect x="0.413506849" y="35.4114377" width="28.9784658" height="4.78197391"></rect>
                                    <rect x="0.413506849" y="23.1278783" width="61.6066301" height="4.78138551"></rect>
                                </g>
                                <g transform="translate(0.000000, 50.014493)" fill="#939598">
                                    <rect x="0.413506849" y="0.178286957" width="56.7016849" height="3.32213913"></rect>
                                    <rect x="0.413506849" y="8.51893913" width="36.6725205" height="3.32390435"></rect>
                                    <rect x="0.413506849" y="24.7530551" width="24.1141644" height="3.32331594"></rect>
                                    <rect x="0.413506849" y="16.215287" width="51.2660137" height="3.32272754"></rect>
                                </g>
                            </g>
                            <path d="M167.208151,0.448953623 L11.0851644,0.448953623 C5.2130137,0.448953623 0.410561644,5.24622609 0.410561644,11.1120435 L0.410561644,26.8842609 L0.410561644,119.055087 L0.410561644,129.290994 L167.208151,0.448953623 L167.208151,0.448953623 Z" id="Shape" fill="url(#linearGradient-5)" opacity="0.4"></path>
                            <g transform="translate(146.671233, 5.295652)" id="Shape">
                                <g fill="#008074">
                                    <polygon points="69.6764932 11.0938029 67.8999452 22.595371 65.5402466 19.409742"></polygon>
                                    <polygon points="13.6363014 72.3197797 15.2803151 60.8111507 18.289726 63.3971942"></polygon>
                                    <polygon points="83.1025068 39.8821449 73.7061233 46.7535478 74.2939863 42.8353536"></polygon>
                                    <polygon points="0.131356164 43.5908667 9.43820548 36.6082551 9.73979452 40.5641072"></polygon>
                                    <polygon points="72.1834521 69.8096406 60.758411 67.9449826 63.9539589 65.5948899"></polygon>
                                    <polygon points="10.9013836 13.8398928 22.4925342 15.3797507 19.9125342 18.3906232"></polygon>
                                    <polygon points="43.3540137 83.1870464 36.5670822 73.7478406 40.4959863 74.335658"></polygon>
                                    <polygon points="39.6483562 0.315973913 46.7233288 9.55453333 42.7685068 9.85873913"></polygon>
                                </g>
                                <path d="M72.1834521,69.8096406 L78.7648082,60.2109768 L72.1598904,54.1609884 C73.6430959,50.5976029 74.5131096,46.7370725 74.662137,42.7565072 L83.075411,39.9074464 L80.9330685,28.4623652 L72.1922877,28.8489478 C70.6601918,25.1249275 68.4754384,21.7768986 65.8117945,18.9278377 L69.6764932,11.0938029 L60.0651096,4.52837101 L54.2300685,10.8855072 C50.5320685,9.35388696 46.5301233,8.47833913 42.3844521,8.36536522 L39.6483562,0.315973913 L28.1920959,2.46777391 L28.5702603,11.0131913 C24.7980411,12.610713 21.4316712,14.8666609 18.5783562,17.6115739 L10.9019726,13.8398928 L4.32238356,23.4373797 L10.7299726,29.3037855 C9.29860274,32.907771 8.47865753,36.7924261 8.40738356,40.7894667 L0.112506849,43.6055768 L2.26073973,55.0424203 L11.151726,54.6576029 C12.7250548,58.2927739 14.9192329,61.5590145 17.5740411,64.3268754 L13.6368904,72.3197797 L23.2494521,78.8852116 L29.3519178,72.2562319 C32.8190137,73.6272174 36.5547123,74.422742 40.4152877,74.5692551 L43.3534247,83.1870464 L54.8014384,81.0446609 L54.4114932,71.9832116 C58.0105342,70.4757159 61.2496712,68.3721652 64.0246438,65.7955362 L72.1834521,69.8096406 L72.1834521,69.8096406 Z M21.213726,45.2842986 C19.1090822,34.0645768 26.5086164,23.2696841 37.7357397,21.1596609 C48.9687534,19.0555217 59.7829589,26.4482522 61.8834795,37.660913 C63.9881233,48.8871072 56.5897671,59.6814116 45.3608767,61.7831971 C34.1331644,63.8926319 23.3189589,56.5040203 21.213726,45.2842986 L21.213726,45.2842986 Z" fill="#16B79D"></path>
                                <path d="M67.7562192,36.558829 C65.0413288,22.0969913 51.1046164,12.5783507 36.6306986,15.2838406 C22.1603151,18.0052174 12.6166712,31.930429 15.336863,46.3846174 C18.0488082,60.8441014 31.9872877,70.3633304 46.4659178,67.6572522 C60.9351233,64.9435246 70.4734658,51.0224319 67.7562192,36.558829 L67.7562192,36.558829 Z M45.1965342,60.8770522 C34.4612603,62.8899884 24.1283014,55.8391217 22.1208493,45.1089536 C20.095726,34.3929072 27.1671644,24.0734464 37.9089178,22.064629 C48.6341781,20.0516928 58.967726,27.1143275 60.9834247,37.8280203 C62.9932329,48.5511275 55.9223836,58.8705884 45.1965342,60.8770522 L45.1965342,60.8770522 Z" fill="#008074"></path>
                                <path d="M44.1368493,55.197171 C36.5600137,56.6158174 29.2641507,51.6331971 27.8427945,44.0651217 C26.4155479,36.4876319 31.4053151,29.1925768 38.9774384,27.7727536 C46.5530959,26.3435159 53.8448356,31.327313 55.2709041,38.9042145 C56.6987397,46.4717014 51.7030822,53.7667565 44.1368493,55.197171 L44.1368493,55.197171 Z" fill="#61C3B3"></path>
                            </g>
                            <g transform="translate(71.863014, 45.307246)" id="Shape">
                                <g fill="#A53F61">
                                    <polygon points="76.8533699 33.0984145 68.7888082 40.3669913 68.9608082 36.6759217"></polygon>
                                    <polygon points="0.245630137 44.3910986 8.21889041 37.0395565 8.86919178 40.6788464"></polygon>
                                    <polygon points="69.5857808 61.8055565 58.7433014 61.2453942 61.4776301 58.7593797"></polygon>
                                    <polygon points="7.42073973 15.6804261 18.2649863 16.1081971 16.1515068 19.1431942"></polygon>
                                    <polygon points="44.0484932 77.0176116 36.8881096 68.9488029 40.5843425 69.1288551"></polygon>
                                    <polygon points="32.7447945 0.511324638 40.2185479 8.44185797 36.5770959 9.10146087"></polygon>
                                    <polygon points="15.3191918 69.7278522 15.9789178 58.9129536 18.4723288 61.6478638"></polygon>
                                    <polygon points="61.5011918 7.64574493 61.1689726 18.4847681 58.1312877 16.3794522"></polygon>
                                </g>
                                <path d="M44.0484932,77.0176116 L54.4656849,73.9502522 L53.2587397,65.6908 C56.4319041,63.9867768 59.3358767,61.7084696 61.791,58.9182493 L69.5516164,61.8084986 L74.7504932,52.2751478 L68.2033014,47.4131507 C69.2936164,43.8203449 69.6865068,40.1145652 69.4408767,36.4888087 L76.8533699,33.0984145 L73.7756301,22.698342 L65.8094384,23.8610319 C64.0405479,20.5794928 61.6643562,17.5933333 58.7332877,15.0726029 L61.5011918,7.64515652 L51.9504795,2.46130145 L47.1869041,8.86021449 C43.5177671,7.7952 39.7532055,7.44686377 36.0716986,7.75224638 L32.7447945,0.510147826 L22.331137,3.57750725 L23.5045068,11.5862986 C20.3454795,13.3491623 17.4627123,15.6739536 15.0547123,18.5218377 L7.39717808,15.6786609 L2.20831507,25.2073043 L8.86153425,30.1587391 C7.85545205,33.7132986 7.51616438,37.3655333 7.8030274,40.927742 L0.245630137,44.3899217 L3.32336986,54.791171 L11.6423973,53.589058 C13.3400137,56.6205246 15.5718904,59.3913275 18.275589,61.7696638 L15.3191918,69.726087 L24.8575342,74.9117072 L29.9179863,68.1320957 C33.4086438,69.1594522 36.9906027,69.5442696 40.5166027,69.3153797 L44.0484932,77.0176116 L44.0484932,77.0176116 Z M21.6619863,29.3043739 C26.7548356,19.9575478 38.4696849,16.508313 47.830137,21.5856667 C57.19,26.6730232 60.6494384,38.3775913 55.556589,47.7179449 C50.4607945,57.0718319 38.7459452,60.5234203 29.3884384,55.4372406 C20.0291644,50.3569449 16.569137,38.6529652 21.6619863,29.3043739 L21.6619863,29.3043739 Z" fill="#F1607C"></path>
                                <path d="M60.4532877,50.3763623 C67.0163836,38.3258116 62.5526301,23.2473246 50.496137,16.6907188 C38.4308082,10.1447043 23.320726,14.597171 16.7652877,26.6424261 C10.2004247,38.6912116 14.663589,53.7708754 26.7247945,60.3339536 C38.785411,66.8834986 53.8896027,62.4298551 60.4532877,50.3763623 L60.4532877,50.3763623 Z M29.8048904,54.685258 C20.8585342,49.8250261 17.5475342,38.648258 22.4218493,29.7115507 C27.276137,20.7748435 38.4726301,17.4750638 47.4225205,22.3411797 C56.3629863,27.1955275 59.6686849,38.3793565 54.8090959,47.3095913 C49.9400822,56.2427681 38.743,59.5437246 29.8048904,54.685258 L29.8048904,54.685258 Z" fill="#A53F61"></path>
                                <path d="M32.3878356,49.9544754 C26.0750822,46.5217159 23.7383562,38.6282522 27.1730548,32.3223072 C30.6083425,26.0051826 38.5168082,23.666858 44.8295616,27.0949101 C51.1493836,30.5182551 53.4813973,38.410542 50.0449315,44.7264899 C46.6149452,51.037142 38.7041233,53.3713478 32.3878356,49.9544754 L32.3878356,49.9544754 Z" fill="#F27996"></path>
                            </g>
                        </g>
                    </g>
                    <g id="Group-2" transform="translate(0.000000, 131.802899)">
                        <path d="M40.519906,55.8097845 C40.519906,58.4662003 32.3443572,60.6195691 22.2595282,60.6195691 C12.1749823,60.6195691 4,58.4662003 4,55.8097845 C4,53.1536518 12.1749823,51 22.2595282,51 C32.3443572,51 40.519906,53.1536518 40.519906,55.8097845" id="Fill-54" fill="#F7C7BA"></path>
                        <polygon id="Fill-115" fill="#E4E4DF" points="9.99484932 45.1542609 16.0207397 45.1542609 16.0207397 43.7167855 9.99484932 43.7167855"></polygon>
                        <polygon id="Fill-116" fill="#E4E4DF" points="18.7497671 45.1542609 24.7762466 45.1542609 24.7762466 43.7167855 18.7497671 43.7167855"></polygon>
                        <polygon id="Fill-125" fill="#B2553C" points="15.293863 55.4278261 29.4667808 55.4278261 29.4667808 53.2036522 15.293863 53.2036522"></polygon>
                        <path d="M21.8652055,55.4278261 L15.293863,55.4278261 L15.293863,53.6820261 C15.6213699,53.8008841 15.952411,53.9115043 16.2863973,54.013887 L21.8652055,54.013887 L21.8652055,55.4278261" id="Fill-126" fill="#8A4330"></path>
                        <path d="M46.9318493,37.0219043 C45.6006164,39.0689681 43.0082466,39.7485768 41.1445205,38.5370493 C39.2802055,37.3296406 38.8484384,34.6871101 40.1808493,32.639458 C41.5150274,30.5912174 44.1068082,29.9098435 45.9681781,31.1207826 C47.8354384,32.3311333 48.2666164,34.9736638 46.9318493,37.0219043 L46.9318493,37.0219043 Z M48.4969315,28.7500957 C45.2142055,26.6188899 40.6532603,27.8145304 38.3065205,31.4220464 C35.9609589,35.0272087 36.721411,39.6762029 40.0006027,41.8074087 C43.2809726,43.9392029 47.844863,42.7435623 50.1910137,39.1348696 C52.5365753,35.5302957 51.7802466,30.880713 48.4969315,28.7500957 L48.4969315,28.7500957 Z" id="Fill-127" fill="#D27650"></path>
                        <path d="M16.2863973,54.013887 L28.466589,54.013887 C37.7510548,51.1712986 44.5497671,41.9939333 44.5497671,31.1078377 C44.5497671,29.1031391 44.3165068,27.1537507 43.8823836,25.290858 L0.874136986,25.290858 C0.437657534,27.1537507 0.206753425,29.1031391 0.206753425,31.1078377 C0.206753425,41.9939333 7.00310959,51.1712986 16.2863973,54.013887" id="Fill-128" fill="#D27650"></path>
                        <path d="M22.3205342,54.013887 L16.2863973,54.013887 C15.952411,53.9115043 15.6213699,53.8008841 15.293863,53.6820261 C6.52245205,50.5081652 0.206753425,41.6020551 0.206753425,31.1078377 C0.206753425,29.1031391 0.437657534,27.1537507 0.874136986,25.290858 L22.3205342,25.290858 L22.3205342,54.013887" id="Fill-129" fill="#B86949"></path>
                        <path d="M15.6761507,0.348924638 C14.232411,2.67665797 13.4277808,5.4504029 14.4020548,8.1094087 C14.9592877,9.6322029 16.2669589,10.6825072 16.8224247,12.2559043 C17.587,14.4241797 16.942,16.6560029 15.6455205,18.4471101 C15.1683973,19.1055362 16.2604795,19.7310116 16.7311233,19.0814116 C18.4163699,16.7560319 18.791589,14.0676058 17.8385205,11.3644696 C17.2918904,9.81578551 15.9747945,8.75724348 15.4193288,7.24092174 C14.663589,5.17855942 15.6861644,2.71902319 16.7623425,0.982637681 C17.1911644,0.291849275 16.1026164,-0.338921739 15.6761507,0.348924638" id="Fill-130" fill="#FAF9F8"></path>
                        <path d="M22.804726,0.348924638 C21.3615753,2.67665797 20.5557671,5.4504029 21.5306301,8.1094087 C22.087863,9.6322029 23.3961233,10.6825072 23.951,12.2559043 C24.7155753,14.4241797 24.0705753,16.6560029 22.7740959,18.4471101 C22.2975616,19.1055362 23.3896438,19.7310116 23.8596986,19.0814116 C25.5437671,16.7560319 25.9207534,14.0676058 24.9670959,11.3644696 C24.4204658,9.81578551 23.1033699,8.75724348 22.5479041,7.24092174 C21.7921644,5.17855942 22.8141507,2.71902319 23.8915068,0.982637681 C24.3191507,0.291849275 23.2306027,-0.338921739 22.804726,0.348924638" id="Fill-131" fill="#FAF9F8"></path>
                        <path d="M30.7715068,0.348924638 C29.3283562,2.67665797 28.523726,5.4504029 29.497411,8.1094087 C30.0552329,9.6322029 31.3629041,10.6825072 31.9177808,12.2559043 C32.6829452,14.4241797 32.0379452,16.6560029 30.7408767,18.4471101 C30.2643425,19.1055362 31.3558356,19.7310116 31.8270685,19.0814116 C33.511726,16.7560319 33.8875342,14.0676058 32.9338767,11.3644696 C32.3878356,9.81578551 31.0707397,8.75724348 30.515274,7.24092174 C29.7589452,5.17855942 30.7815205,2.71902319 31.8576986,0.982637681 C32.2865205,0.291849275 31.1979726,-0.338921739 30.7715068,0.348924638" id="Fill-132" fill="#FAF9F8"></path>
                        <path d="M43.9477671,25.2961536 C43.9477671,26.5988841 34.3057534,27.6550725 22.4112466,27.6550725 C10.5167397,27.6550725 0.874136986,26.5988841 0.874136986,25.2961536 C0.874136986,23.9934232 10.5167397,22.9372348 22.4112466,22.9372348 C34.3057534,22.9372348 43.9477671,23.9934232 43.9477671,25.2961536" id="Fill-133" fill="#B2553C"></path>
                    </g>
                </g>
            </g>
        </g>
    </g>
</svg>