<?xml version="1.0" encoding="UTF-8" standalone="no"?>
<svg width="230px" height="199px" viewBox="0 0 230 199" version="1.1" xmlns="http://www.w3.org/2000/svg" xmlns:xlink="http://www.w3.org/1999/xlink">
    <!-- Generator: Sketch 3.8.3 (29802) - http://www.bohemiancoding.com/sketch -->
    <title>Group</title>
    <desc>Created with Sketch.</desc>
    <defs></defs>
    <g id="Page-1" stroke="none" stroke-width="1" fill="none" fill-rule="evenodd">
        <g id="10450-NMI6LL" transform="translate(-542.000000, -303.000000)">
            <g id="Group" transform="translate(542.000000, 303.000000)">
                <polyline id="Fill-205" fill="#FFBF4D" points="135.597 43.259 164.738 0.723 163.314 52.265 211.892 34.981 180.441 75.842 229.902 90.413 180.441 104.985 211.892 145.847 163.314 128.56 164.738 180.104 135.597 137.566 106.455 180.104 107.881 128.56 59.303 145.847 90.752 104.985 41.29 90.413 90.752 75.842 59.303 34.981 107.881 52.265 106.455 0.723 135.597 43.259"></polyline>
                <polyline id="Fill-206" fill="#E6E6E6" points="135.597 61.76 153.304 35.913 152.438 67.233 181.956 56.73 162.845 81.559 192.9 90.413 162.845 99.267 181.956 124.098 152.438 113.593 153.304 144.914 135.597 119.065 117.889 144.914 118.756 113.593 89.236 124.098 108.346 99.267 78.291 90.413 108.346 81.559 89.236 56.73 118.756 67.233 117.889 35.913 135.597 61.76"></polyline>
                <path d="M92.607,198.274 C63.492,198.274 37.534,196.164 20.671,192.868 L20.671,188.283 L42.631,188.283 L42.631,175.809 L106.574,175.809 L106.455,180.104 L109.397,175.809 L146,175.809 L146,188.283 L174.813,188.283 L174.813,177.435 C181.096,179.379 184.637,181.577 184.637,183.904 C184.637,191.842 143.432,198.274 92.607,198.274 M18.772,192.484 C7.343,190.09 0.577,187.121 0.577,183.904 C0.577,181.184 5.414,178.64 13.819,176.471 L13.819,188.283 L18.772,188.283 L18.772,192.484" id="Fill-207" fill="#CECECE"></path>
                <path d="M20.671,192.868 C20.024,192.742 19.392,192.614 18.772,192.484 L18.772,188.283 L20.671,188.283 L20.671,192.868" id="Fill-208" fill="#DEDEDE"></path>
                <polyline id="Fill-209" fill="#E3AC4B" points="106.455 180.104 106.574 175.809 109.397 175.809 106.455 180.104"></polyline>
                <path d="M158.19,86.095 C157.648,84.165 156.054,78.997 152.783,74.667 C149.167,69.877 127.077,65.157 94.315,65.157 C67.432,65.157 48.446,67.973 39.557,71.927 L39.556,71.927 C33.267,73.496 29.983,82.4 29.57,85.569 C28.23,95.865 18.931,125.72 18.931,125.72 C18.931,129.152 21.829,131.932 25.404,131.932 L163.226,131.932 C166.803,131.932 169.701,129.152 169.701,125.72 C169.701,125.72 162.683,102.111 158.19,86.095" id="Fill-210" fill="#F95C4B"></path>
                <path d="M26.305,105.202 C30.767,106.336 34.384,110.872 34.384,115.333 C34.384,119.796 30.767,122.496 26.305,121.359 L10.651,117.386 C6.189,116.252 2.573,111.716 2.571,107.255 C2.573,102.792 6.188,100.095 10.651,101.229 L26.305,105.202" id="Fill-211" fill="#F95C4B"></path>
                <path d="M161.873,105.202 C157.411,106.336 153.796,110.872 153.796,115.333 C153.796,119.796 157.411,122.496 161.873,121.359 L177.526,117.386 C181.989,116.252 185.607,111.716 185.607,107.255 C185.607,102.792 181.989,100.095 177.526,101.228 L161.873,105.202" id="Fill-212" fill="#F95C4B"></path>
                <path d="M42.631,188.283 L42.631,168.141 C42.631,160.187 36.183,153.736 28.226,153.736 C20.268,153.736 13.819,160.187 13.819,168.141 L13.819,188.283 L42.631,188.283" id="Fill-213" fill="#353535"></path>
                <path d="M174.813,188.283 L174.813,168.141 C174.813,160.187 168.362,153.736 160.406,153.736 C152.449,153.736 146,160.187 146,168.141 L146,188.283 L174.813,188.283" id="Fill-214" fill="#353535"></path>
                <path d="M178.75,156.205 C178.75,167.031 170,175.809 159.202,175.809 L29.43,175.809 C18.634,175.809 9.881,167.031 9.881,156.205 L9.881,141.018 C9.881,130.191 18.634,107.785 29.43,107.785 L159.202,107.785 C170,107.785 178.75,130.191 178.75,141.018 L178.75,156.205" id="Fill-215" fill="#FC504C"></path>
                <path d="M178.75,140.976 L178.75,140.965 L178.75,140.976 M9.881,140.976 L9.881,140.965 L9.881,140.976 M178.75,140.926 L178.75,140.924 L178.75,140.926 M9.881,140.881 L9.881,140.874 L9.881,140.881 M178.749,140.879 L178.749,140.875 L178.749,140.879" id="Fill-216" fill="#CECECE"></path>
                <path d="M93.128,175.809 L29.43,175.809 C23.053,175.809 17.388,172.746 13.82,168.007 C11.347,164.724 9.881,160.636 9.881,156.205 L9.881,141.018 L9.881,140.976 L9.881,140.965 L9.881,140.881 L9.881,140.874 C9.895,138.916 10.191,136.588 10.728,134.093 C13.166,142.131 20.615,147.979 29.43,147.979 L93.128,147.979 L93.128,162.528 L72.579,162.528 L72.579,169.783 L93.128,169.783 L93.128,175.809 M174.809,168.012 L174.809,168.008 C177.088,164.981 178.514,161.273 178.723,157.241 C178.514,161.274 177.089,164.985 174.809,168.012 M178.723,157.235 C178.724,157.22 178.725,157.205 178.726,157.19 C178.725,157.205 178.724,157.22 178.723,157.235 M178.726,157.181 C178.727,157.166 178.728,157.151 178.728,157.136 C178.728,157.151 178.727,157.166 178.726,157.181 M178.729,157.128 C178.731,157.085 178.732,157.041 178.734,156.997 C178.732,157.041 178.731,157.085 178.729,157.128 M178.735,156.975 C178.736,156.964 178.736,156.953 178.736,156.942 C178.736,156.953 178.735,156.965 178.735,156.975 M178.737,156.917 C178.738,156.907 178.738,156.897 178.738,156.886 C178.738,156.897 178.738,156.907 178.737,156.917 M178.739,156.858 C178.74,156.849 178.74,156.839 178.74,156.83 C178.74,156.84 178.74,156.848 178.739,156.858 M178.741,156.794 C178.742,156.781 178.742,156.767 178.742,156.754 C178.742,156.767 178.742,156.781 178.741,156.794 M178.743,156.718 C178.744,156.71 178.744,156.701 178.744,156.693 C178.744,156.701 178.744,156.71 178.743,156.718 M178.745,156.659 L178.745,156.635 L178.745,156.659 M178.746,156.6 L178.746,156.576 L178.746,156.6 M178.747,156.536 L178.747,156.519 L178.747,156.536 M178.748,156.462 L178.748,156.444 L178.748,156.462 M178.749,156.403 L178.749,156.382 L178.749,156.403 M178.749,156.344 C178.749,156.337 178.75,156.329 178.75,156.322 C178.75,156.329 178.749,156.337 178.749,156.344 M178.75,156.282 L178.75,156.263 L178.75,156.282 M178.75,141.018 C178.75,140.572 178.731,140.101 178.702,139.619 C178.694,139.503 178.687,139.387 178.678,139.269 C178.646,138.847 178.608,138.416 178.557,137.972 C178.678,139.005 178.743,139.979 178.749,140.875 L178.749,140.879 C178.75,140.894 178.75,140.909 178.75,140.924 L178.75,140.926 L178.75,140.965 L178.75,140.976 L178.75,141.018 M178.539,137.82 C178.537,137.807 178.536,137.794 178.534,137.781 C178.536,137.794 178.537,137.807 178.539,137.82 M178.468,137.275 C178.414,136.886 178.352,136.49 178.285,136.087 L178.24,135.824 C178.164,135.391 178.081,134.951 177.99,134.505 C178.186,135.459 178.347,136.386 178.468,137.275" id="Fill-217" fill="#E04E4B"></path>
                <path d="M32.226,162.295 C30.503,162.06 27.008,161.352 25.377,160.752 C19.644,158.637 16.72,154.892 17.633,149.706 C18.545,144.517 21.933,141.467 26.977,142.983 C29.231,143.66 32.526,145.493 35.189,147.929 C40.158,152.476 43.219,158.799 42.056,161.418 C41.449,162.787 34.745,162.639 32.226,162.295" id="Fill-218" fill="#E6E6E6"></path>
                <path d="M155.987,162.295 C157.708,162.06 161.205,161.352 162.838,160.752 C168.569,158.637 171.491,154.892 170.58,149.706 C169.668,144.517 166.279,141.467 161.234,142.983 C158.98,143.66 155.686,145.493 153.023,147.929 C148.054,152.475 144.994,158.799 146.157,161.418 C146.762,162.787 153.466,162.639 155.987,162.295" id="Fill-219" fill="#E6E6E6"></path>
                <polygon id="Fill-220" fill="#FFFFFF" points="72.579 169.783 116.054 169.783 116.054 162.528 72.579 162.528"></polygon>
                <path d="M94.32,108.176 C119.129,108.176 141.684,109.152 159.607,110.678 C158.067,103.702 156.203,96.03 154.234,89.672 C153.648,87.775 151.958,82.727 148.867,78.536 C145.476,73.939 122.702,69.451 94.324,69.451 C71.037,69.451 51.064,72.126 43.155,75.903 C37.589,77.408 33.855,86.02 33.672,89.152 L29.232,110.439 C47.232,109.02 69.817,108.176 94.32,108.176" id="Fill-221" fill="#6FB0D8"></path>
                <path d="M33.147,91.666 L33.672,89.152 L33.148,91.666 L33.147,91.666" id="Fill-222" fill="#DE584A"></path>
                <path d="M33.148,91.666 L33.672,89.152 C33.855,86.02 37.589,77.408 43.155,75.903 C45.208,74.923 48.077,74.018 51.601,73.214 C45.45,79.365 39.298,85.515 33.147,91.666" id="Fill-223" fill="#68A0C2"></path>
                <path d="M87.065,104.737 L93.128,101.5 L93.128,103.17 L87.065,104.737 M45.383,102.938 L87.963,93.942 L52.879,88.544 L93.128,91.231 L93.128,96.699 L45.383,102.938 M93.128,85.685 L80.467,74.088 L93.128,80.294 L93.128,85.685" id="Fill-224" fill="#C8F0F9"></path>
                <path d="M178.723,157.241 L178.723,157.235 L178.723,157.241 M178.726,157.19 L178.726,157.181 L178.726,157.19 M178.728,157.136 C178.728,157.134 178.729,157.131 178.729,157.128 C178.729,157.131 178.728,157.134 178.728,157.136 M178.734,156.997 C178.735,156.99 178.735,156.983 178.735,156.975 C178.735,156.983 178.734,156.99 178.734,156.997 M178.736,156.942 C178.737,156.934 178.737,156.926 178.737,156.917 C178.737,156.926 178.737,156.934 178.736,156.942 M178.738,156.886 C178.739,156.877 178.739,156.867 178.739,156.858 C178.739,156.867 178.739,156.877 178.738,156.886 M178.74,156.83 C178.741,156.818 178.741,156.806 178.741,156.794 C178.741,156.806 178.741,156.818 178.74,156.83 M178.742,156.754 C178.743,156.742 178.743,156.73 178.743,156.718 C178.743,156.73 178.743,156.742 178.742,156.754 M178.744,156.693 C178.744,156.681 178.745,156.671 178.745,156.659 C178.745,156.671 178.744,156.681 178.744,156.693 M178.745,156.635 C178.746,156.624 178.746,156.611 178.746,156.6 C178.746,156.611 178.746,156.623 178.745,156.635 M178.746,156.576 C178.747,156.563 178.747,156.55 178.747,156.536 C178.747,156.55 178.747,156.563 178.746,156.576 M178.747,156.519 C178.748,156.5 178.748,156.48 178.748,156.462 C178.748,156.481 178.748,156.5 178.747,156.519 M178.748,156.444 C178.749,156.43 178.749,156.416 178.749,156.403 C178.749,156.416 178.749,156.43 178.748,156.444 M178.749,156.382 L178.749,156.344 L178.749,156.382 M178.75,156.322 L178.75,156.282 L178.75,156.322 M178.75,156.263 L178.75,156.205 L178.75,141.018 L178.75,156.205 L178.75,156.263" id="Fill-225" fill="#CECECE"></path>
                <path d="M163.546,104.777 C163.133,103.356 162.713,101.911 162.293,100.459 C162.713,101.911 163.133,103.356 163.547,104.777 L163.546,104.777" id="Fill-226" fill="#CECECE"></path>
                <path d="M158.7,106.656 C157.358,100.845 155.83,94.827 154.234,89.672 C153.648,87.775 151.958,82.727 148.867,78.536 C145.476,73.939 122.702,69.451 94.324,69.451 C93.925,69.451 93.525,69.452 93.128,69.453 L93.128,65.16 C93.524,65.159 93.916,65.157 94.315,65.157 C127.077,65.157 149.167,69.877 152.783,74.667 C156.054,78.997 157.648,84.165 158.19,86.095 C159.432,90.524 160.866,95.53 162.293,100.459 C162.713,101.911 163.133,103.356 163.546,104.777 L161.873,105.202 C160.746,105.488 159.674,105.992 158.7,106.656" id="Fill-227" fill="#DE584A"></path>
                <path d="M172.175,118.743 C168.724,112.548 164.181,107.785 159.202,107.785 L158.959,107.785 C158.873,107.41 158.787,107.033 158.7,106.656 C159.674,105.992 160.746,105.488 161.873,105.202 L163.546,104.777 L163.547,104.777 L163.547,104.778 L177.526,101.228 C178.215,101.053 178.884,100.97 179.523,100.97 C183.02,100.97 185.607,103.481 185.607,107.255 C185.607,111.716 181.989,116.252 177.526,117.386 L172.175,118.743" id="Fill-228" fill="#DE584A"></path>
                <path d="M174.813,188.283 L146,188.283 L146,175.809 L159.202,175.809 C165.578,175.809 171.241,172.748 174.809,168.012 L174.813,168.141 L174.813,188.283" id="Fill-229" fill="#373737"></path>
                <path d="M152.968,147.979 L93.128,147.979 L93.128,108.177 C93.525,108.176 93.922,108.176 94.32,108.176 C97.944,108.176 101.519,108.197 105.039,108.237 C105.037,108.238 105.037,108.239 105.035,108.24 C125.614,108.476 144.303,109.376 159.607,110.678 C159.397,109.725 159.18,108.759 158.959,107.785 L159.202,107.785 C164.181,107.785 168.724,112.548 172.175,118.743 L172.172,118.744 C174.831,123.521 176.842,129.142 177.903,134.093 C176.444,138.904 173.189,142.931 168.921,145.389 C167.702,143.626 165.932,142.594 163.714,142.594 C162.941,142.594 162.113,142.719 161.234,142.983 C158.98,143.66 155.686,145.493 153.023,147.929 C153.005,147.946 152.986,147.962 152.968,147.979 M178.557,137.972 C178.551,137.921 178.545,137.87 178.539,137.82 C178.545,137.871 178.551,137.921 178.557,137.972 M178.534,137.781 C178.514,137.613 178.492,137.445 178.468,137.275 C178.491,137.439 178.513,137.603 178.533,137.765 L178.534,137.781 M177.99,134.505 C177.962,134.368 177.933,134.231 177.903,134.093 L177.904,134.095 C177.934,134.232 177.962,134.369 177.99,134.505" id="Fill-230" fill="#E04E4B"></path>
                <path d="M159.202,175.809 L93.128,175.809 L93.128,169.783 L116.054,169.783 L116.054,162.528 L93.128,162.528 L93.128,147.979 L152.968,147.979 C148.031,152.523 144.998,158.809 146.157,161.418 C146.53,162.263 149.224,162.53 151.826,162.53 C153.441,162.53 155.021,162.427 155.987,162.295 C157.708,162.06 161.205,161.352 162.838,160.752 C168.569,158.637 171.491,154.892 170.58,149.706 C170.282,148.011 169.719,146.543 168.921,145.389 C173.189,142.931 176.444,138.904 177.903,134.093 C177.933,134.231 177.962,134.368 177.99,134.505 C178.081,134.951 178.164,135.391 178.24,135.824 L178.285,136.087 C178.352,136.49 178.414,136.886 178.468,137.275 C178.492,137.445 178.514,137.613 178.534,137.781 C178.536,137.794 178.537,137.807 178.539,137.82 C178.545,137.87 178.551,137.921 178.557,137.972 C178.608,138.416 178.646,138.847 178.678,139.269 C178.687,139.387 178.694,139.503 178.702,139.619 C178.731,140.101 178.75,140.572 178.75,141.018 L178.75,156.205 L178.75,156.263 L178.75,156.282 L178.75,156.322 C178.75,156.329 178.749,156.337 178.749,156.344 L178.749,156.382 L178.749,156.403 C178.749,156.416 178.749,156.43 178.748,156.444 L178.748,156.462 C178.748,156.48 178.748,156.5 178.747,156.519 L178.747,156.536 C178.747,156.55 178.747,156.563 178.746,156.576 L178.746,156.6 C178.746,156.611 178.746,156.624 178.745,156.635 L178.745,156.659 C178.745,156.671 178.744,156.681 178.744,156.693 C178.744,156.701 178.744,156.71 178.743,156.718 C178.743,156.73 178.743,156.742 178.742,156.754 C178.742,156.767 178.742,156.781 178.741,156.794 C178.741,156.806 178.741,156.818 178.74,156.83 C178.74,156.839 178.74,156.849 178.739,156.858 C178.739,156.867 178.739,156.877 178.738,156.886 C178.738,156.897 178.738,156.907 178.737,156.917 C178.737,156.926 178.737,156.934 178.736,156.942 C178.736,156.953 178.736,156.964 178.735,156.975 C178.735,156.983 178.735,156.99 178.734,156.997 C178.732,157.041 178.731,157.085 178.729,157.128 C178.729,157.131 178.728,157.134 178.728,157.136 C178.728,157.151 178.727,157.166 178.726,157.181 L178.726,157.19 C178.725,157.205 178.724,157.22 178.723,157.235 L178.723,157.241 C178.514,161.273 177.088,164.981 174.809,168.008 L174.809,168.012 C171.241,172.748 165.578,175.809 159.202,175.809" id="Fill-231" fill="#C84C4A"></path>
                <path d="M151.826,162.53 C149.224,162.53 146.53,162.263 146.157,161.418 C144.998,158.809 148.031,152.523 152.968,147.979 C152.986,147.962 153.005,147.946 153.023,147.929 C155.686,145.493 158.98,143.66 161.234,142.983 C162.113,142.719 162.941,142.594 163.714,142.594 C165.932,142.594 167.702,143.626 168.921,145.389 C169.719,146.543 170.282,148.011 170.58,149.706 C171.491,154.892 168.569,158.637 162.838,160.752 C161.205,161.352 157.708,162.06 155.987,162.295 C155.021,162.427 153.441,162.53 151.826,162.53" id="Fill-232" fill="#CECECE"></path>
                <polygon id="Fill-233" fill="#E3E3E3" points="93.128 169.783 116.054 169.783 116.054 162.528 93.128 162.528"></polygon>
                <path d="M159.607,110.678 L159.607,110.678 C158.067,103.702 156.203,96.03 154.234,89.672 C153.648,87.775 151.958,82.727 148.867,78.536 C147.722,76.985 144.362,75.446 139.333,74.088 C135.528,77.862 131.727,81.638 127.927,85.418 L119.75,88.244 L123.409,75.668 L116.054,87.644 L99.59,73.214 L108.586,87.872 L93.128,80.294 L93.128,69.453 C93.525,69.452 93.925,69.451 94.324,69.451 C122.702,69.451 145.476,73.939 148.867,78.536 C151.958,82.727 153.648,87.775 154.234,89.672 C155.83,94.827 157.358,100.845 158.7,106.656 C158.787,107.033 158.873,107.41 158.959,107.785 C159.18,108.759 159.397,109.725 159.607,110.678 M105.039,108.237 C101.519,108.197 97.944,108.176 94.32,108.176 C93.922,108.176 93.525,108.176 93.128,108.177 L93.128,103.17 L116.051,97.246 C112.379,100.907 108.708,104.572 105.039,108.237 M93.128,101.5 L93.128,96.699 L105.035,95.143 L93.128,101.5 M121.649,91.666 L121.649,91.666 C121.65,91.666 121.649,91.667 121.649,91.667 M99.658,91.666 L93.128,91.231 L93.128,85.685 L99.658,91.666" id="Fill-234" fill="#68A0C2"></path>
                <path d="M159.607,110.678 C144.303,109.376 125.614,108.476 105.035,108.24 C105.037,108.239 105.037,108.238 105.039,108.237 C125.618,108.473 144.302,109.375 159.607,110.678" id="Fill-235" fill="#C84C4A"></path>
                <path d="M159.607,110.678 C144.302,109.375 125.618,108.473 105.039,108.237 C108.708,104.572 112.379,100.907 116.051,97.246 L116.054,97.245 L130.846,108.335 L121.649,91.666 C121.649,91.667 121.65,91.666 121.65,91.666 L153.796,100.97 L126.947,87.644 L144.04,79.848 L127.927,85.418 C131.727,81.638 135.528,77.862 139.333,74.088 C144.362,75.446 147.722,76.985 148.867,78.536 C151.958,82.727 153.648,87.775 154.234,89.672 C156.203,96.03 158.067,103.702 159.607,110.678" id="Fill-236" fill="#6292AF"></path>
                <path d="M93.128,103.17 L93.128,101.5 L105.035,95.143 L93.128,96.699 L93.128,91.231 L99.658,91.666 L93.128,85.685 L93.128,80.294 L108.586,87.872 L99.59,73.214 L116.054,87.644 L123.409,75.668 L119.75,88.244 L127.927,85.418 C125.834,87.5 123.742,89.582 121.65,91.666 L121.649,91.666 C119.783,93.526 117.917,95.386 116.051,97.246 L93.128,103.17" id="Fill-237" fill="#B4D6DD"></path>
                <path d="M130.846,108.335 L116.054,97.245 L116.051,97.246 C117.917,95.386 119.783,93.526 121.649,91.667 L130.846,108.335 M153.796,100.97 L121.649,91.666 C123.742,89.582 125.834,87.5 127.927,85.418 L144.04,79.848 L126.947,87.644 L153.796,100.97" id="Fill-238" fill="#A9D4D9"></path>
            </g>
        </g>
    </g>
</svg>