<?xml version="1.0" encoding="UTF-8" standalone="no"?>
<svg width="342px" height="267px" viewBox="0 0 342 267" version="1.1" xmlns="http://www.w3.org/2000/svg" xmlns:xlink="http://www.w3.org/1999/xlink">
    <!-- Generator: Sketch 3.8.3 (29802) - http://www.bohemiancoding.com/sketch -->
    <title>Group 6 Copy</title>
    <desc>Created with Sketch.</desc>
    <defs>
        <filter x="-50%" y="-50%" width="200%" height="200%" filterUnits="objectBoundingBox" id="filter-1">
            <feOffset dx="0" dy="2" in="SourceAlpha" result="shadowOffsetOuter1"></feOffset>
            <feGaussianBlur stdDeviation="5" in="shadowOffsetOuter1" result="shadowBlurOuter1"></feGaussianBlur>
            <feColorMatrix values="0 0 0 0 0   0 0 0 0 0   0 0 0 0 0  0 0 0 0.2 0" type="matrix" in="shadowBlurOuter1" result="shadowMatrixOuter1"></feColorMatrix>
            <feMerge>
                <feMergeNode in="shadowMatrixOuter1"></feMergeNode>
                <feMergeNode in="SourceGraphic"></feMergeNode>
            </feMerge>
        </filter>
        <path d="M188,78.2577647 L188,109.747765 C188,120.436118 179.340941,129.100706 168.647059,129.100706 L129.100706,129.100706 L129.100706,168.647059 C129.100706,179.329882 120.447176,188 109.747765,188 L78.2577647,188 C67.5694118,188 58.9048235,179.329882 58.9048235,168.647059 L58.9048235,129.100706 L19.3529412,129.100706 C8.66458824,129.100706 0,120.436118 0,109.747765 L0,78.2577647 C0,67.5638824 8.66458824,58.9048235 19.3529412,58.9048235 L58.8992941,58.9048235 L58.8992941,19.3529412 C58.8992941,8.65905882 67.5638824,0 78.2522353,0 L109.747765,0 C120.441647,0 129.100706,8.65905882 129.100706,19.3529412 L129.100706,58.8992941 L168.647059,58.8992941 C179.340941,58.9048235 188,67.5749412 188,78.2577647 L188,78.2577647 Z" id="path-2"></path>
        <filter x="-50%" y="-50%" width="200%" height="200%" filterUnits="objectBoundingBox" id="filter-3">
            <feOffset dx="0" dy="2" in="SourceAlpha" result="shadowOffsetOuter1"></feOffset>
            <feGaussianBlur stdDeviation="2" in="shadowOffsetOuter1" result="shadowBlurOuter1"></feGaussianBlur>
            <feColorMatrix values="0 0 0 0 0   0 0 0 0 0   0 0 0 0 0  0 0 0 0.5 0" type="matrix" in="shadowBlurOuter1"></feColorMatrix>
        </filter>
    </defs>
    <g id="Page-1" stroke="none" stroke-width="1" fill="none" fill-rule="evenodd">
        <g id="Desktop-HD" transform="translate(-653.000000, -773.000000)">
            <g id="Group-6-Copy" filter="url(#filter-1)" transform="translate(662.000000, 781.000000)">
                <g id="Group" transform="translate(0.000000, 61.000000)">
                    <path d="M289.516,0.619 L33.924,0.619 C28.475,0.619 24.059,5.035 24.059,10.484 L24.059,169.414 L299.379,169.414 L299.379,10.484 C299.379,5.035 294.965,0.619 289.516,0.619" id="Fill-101" fill="#062022"></path>
                    <polygon id="Fill-102" fill="#F3F2EE" points="35.568 157.906 287.871 157.906 287.871 12.127 35.568 12.127"></polygon>
                    <path d="M13.156,185.73 L310.285,185.73 C317.027,185.73 322.492,180.266 322.492,173.523 L0.947,173.523 C0.947,180.266 6.412,185.73 13.156,185.73" id="Fill-103" fill="#B6B8B4"></path>
                    <polygon id="Fill-104" fill="#CDCEC9" points="0.947 173.523 322.492 173.523 322.492 169.414 0.947 169.414"></polygon>
                    <path d="M159.459,6.373 C159.459,5.127 160.471,4.115 161.717,4.115 C162.965,4.115 163.975,5.127 163.975,6.373 C163.975,7.621 162.965,8.631 161.717,8.631 C160.471,8.631 159.459,7.621 159.459,6.373" id="Fill-105" fill="#757976"></path>
                    <path d="M38.855,17.986 C38.855,16.566 40.006,15.416 41.426,15.416 C42.844,15.416 43.994,16.566 43.994,17.986 C43.994,19.406 42.844,20.557 41.426,20.557 C40.006,20.557 38.855,19.406 38.855,17.986" id="Fill-106" fill="#2F3230"></path>
                    <polygon id="Fill-107" fill="#2F3230" points="51.188 19.568 75.092 19.568 75.092 16.404 51.188 16.404"></polygon>
                    <polygon id="Fill-108" fill="#757976" points="81.914 19.568 105.818 19.568 105.818 16.404 81.914 16.404"></polygon>
                    <polygon id="Fill-109" fill="#757976" points="112.639 19.568 136.547 19.568 136.547 16.404 112.639 16.404"></polygon>
                    <polygon id="Fill-110" fill="#757976" points="143.365 19.568 167.271 19.568 167.271 16.404 143.365 16.404"></polygon>
                    <polygon id="Fill-111" fill="#C3C3C4" points="40.523 154.617 273.074 154.617 273.074 28.775 40.523 28.775"></polygon>
                    <polygon id="Fill-112" fill="#FFFFFF" points="43.811 151.328 276.361 151.328 276.361 25.488 43.811 25.488"></polygon>
                    <polyline id="Fill-113" fill="#8B8F8A" points="276.361 151.328 276.361 151.08 44.058 151.08 44.058 25.736 276.113 25.736 276.113 151.328 276.361 151.328 276.361 151.08 276.361 151.328 276.609 151.328 276.609 25.24 43.563 25.24 43.563 151.576 276.609 151.576 276.609 151.328 276.361 151.328"></polyline>
                    <polygon id="Fill-114" fill="#C3C3C4" points="43.811 37.637 276.361 37.637 276.361 25.488 43.811 25.488"></polygon>
                    <polyline id="Fill-115" fill="#8B8F8A" points="276.361 37.637 276.361 37.389 44.059 37.389 44.058 25.736 276.113 25.736 276.113 37.637 276.361 37.637 276.361 37.389 276.361 37.637 276.609 37.637 276.609 25.24 43.563 25.24 43.563 37.885 276.609 37.885 276.609 37.637 276.361 37.637"></polyline>
                    <polygon id="Fill-116" fill="#B6B8B4" points="43.811 49.785 276.361 49.785 276.361 37.637 43.811 37.637"></polygon>
                    <polyline id="Fill-117" fill="#8B8F8A" points="276.361 49.785 276.361 49.537 44.059 49.537 44.058 37.885 276.113 37.885 276.113 49.785 276.361 49.785 276.361 49.537 276.361 49.785 276.609 49.785 276.609 37.389 43.563 37.389 43.563 50.033 276.609 50.033 276.609 49.785 276.361 49.785"></polyline>
                    <polygon id="Fill-118" fill="#FFFFFF" points="74.059 47.307 262.406 47.307 262.406 40.117 74.059 40.117"></polygon>
                    <path d="M52.189,31.688 C52.189,32.904 51.203,33.893 49.984,33.893 C48.766,33.893 47.779,32.904 47.779,31.688 C47.779,30.469 48.766,29.48 49.984,29.48 C51.203,29.48 52.189,30.469 52.189,31.688" id="Fill-119" fill="#DB3E38"></path>
                    <path d="M58.787,31.688 C58.787,32.904 57.801,33.893 56.584,33.893 C55.365,33.893 54.379,32.904 54.379,31.688 C54.379,30.469 55.365,29.48 56.584,29.48 C57.801,29.48 58.787,30.469 58.787,31.688" id="Fill-120" fill="#F1AA48"></path>
                    <path d="M65.389,31.688 C65.389,32.904 64.398,33.893 63.182,33.893 C61.965,33.893 60.975,32.904 60.975,31.688 C60.975,30.469 61.965,29.48 63.182,29.48 C64.398,29.48 65.389,30.469 65.389,31.688" id="Fill-121" fill="#84BF42"></path>
                    <polygon id="Fill-122" fill="#2EBF9A" points="43.811 63.174 276.361 63.174 276.361 49.785 43.811 49.785"></polygon>
                    <polyline id="Fill-123" fill="#8B8F8A" points="276.361 63.174 276.361 62.926 44.058 62.926 44.058 50.033 276.113 50.033 276.113 63.174 276.361 63.174 276.361 62.926 276.361 63.174 276.609 63.174 276.609 49.537 43.563 49.537 43.563 63.422 276.609 63.422 276.609 63.174 276.361 63.174"></polyline>
                    <polygon id="Fill-124" fill="#2F3230" points="56.738 72.414 81.154 72.414 81.154 67.48 56.738 67.48"></polygon>
                    <polygon id="Fill-125" fill="#2F3230" points="90.406 72.414 114.824 72.414 114.824 67.48 90.406 67.48"></polygon>
                    <polygon id="Fill-126" fill="#2F3230" points="124.072 72.414 148.49 72.414 148.49 67.48 124.072 67.48"></polygon>
                    <polygon id="Fill-127" fill="#2F3230" points="157.742 72.414 182.158 72.414 182.158 67.48 157.742 67.48"></polygon>
                    <polygon id="Fill-128" fill="#2F3230" points="191.408 72.414 215.828 72.414 215.828 67.48 191.408 67.48"></polygon>
                    <polygon id="Fill-129" fill="#2F3230" points="225.078 72.414 249.494 72.414 249.494 67.48 225.078 67.48"></polygon>
                    <polygon id="Fill-130" fill="#2F3230" points="258.746 72.414 276.361 72.414 276.361 67.48 258.746 67.48"></polygon>
                    <polygon id="Fill-131" fill="#CE1F5B" points="49.982 113.791 102.086 113.791 102.086 79.539 49.982 79.539"></polygon>
                    <polygon id="Fill-132" fill="#00BC9B" points="179.658 151.328 276.361 151.328 276.361 79.539 179.658 79.539"></polygon>
                    <polygon id="Fill-133" fill="#FFFFFF" points="232.117 117.615 271.43 117.615 271.43 84.473 232.117 84.473"></polygon>
                    <polygon id="Fill-134" fill="#CE1F5B" points="49.982 151.328 102.086 151.328 102.086 118.998 49.982 118.998"></polygon>
                    <polygon id="Fill-135" fill="#8B8F8A" points="106.545 81.965 165.184 81.965 165.184 79.539 106.545 79.539"></polygon>
                    <polygon id="Fill-136" fill="#8B8F8A" points="106.545 86.307 165.184 86.307 165.184 83.881 106.545 83.881"></polygon>
                    <polygon id="Fill-137" fill="#8B8F8A" points="106.545 90.887 165.184 90.887 165.184 88.463 106.545 88.463"></polygon>
                    <polygon id="Fill-138" fill="#8B8F8A" points="106.545 95.469 165.184 95.469 165.184 93.043 106.545 93.043"></polygon>
                    <polygon id="Fill-139" fill="#8B8F8A" points="106.545 100.049 165.184 100.049 165.184 97.623 106.545 97.623"></polygon>
                    <polygon id="Fill-140" fill="#8B8F8A" points="106.545 104.629 162.17 104.629 162.17 102.203 106.545 102.203"></polygon>
                    <polygon id="Fill-141" fill="#FFFFFF" points="182.945 86.297 227.039 86.297 227.039 84.473 182.945 84.473"></polygon>
                    <polygon id="Fill-142" fill="#FFFFFF" points="182.945 89.563 227.039 89.563 227.039 87.736 182.945 87.736"></polygon>
                    <polygon id="Fill-143" fill="#FFFFFF" points="182.945 93.006 227.039 93.006 227.039 91.182 182.945 91.182"></polygon>
                    <polygon id="Fill-144" fill="#FFFFFF" points="182.945 96.449 227.039 96.449 227.039 94.625 182.945 94.625"></polygon>
                    <polygon id="Fill-145" fill="#FFFFFF" points="182.945 99.895 227.039 99.895 227.039 98.07 182.945 98.07"></polygon>
                    <polygon id="Fill-146" fill="#FFFFFF" points="182.945 103.34 227.039 103.34 227.039 101.516 182.945 101.516"></polygon>
                    <polygon id="Fill-147" fill="#FFFFFF" points="182.945 106.785 227.039 106.785 227.039 104.959 182.945 104.959"></polygon>
                    <polygon id="Fill-148" fill="#FFFFFF" points="182.945 110.229 227.039 110.229 227.039 108.404 182.945 108.404"></polygon>
                    <polygon id="Fill-149" fill="#8B8F8A" points="106.545 121.424 165.184 121.424 165.184 118.998 106.545 118.998"></polygon>
                    <polygon id="Fill-150" fill="#8B8F8A" points="106.545 125.764 165.184 125.764 165.184 123.34 106.545 123.34"></polygon>
                    <polygon id="Fill-151" fill="#8B8F8A" points="106.545 130.346 165.184 130.346 165.184 127.92 106.545 127.92"></polygon>
                    <polygon id="Fill-152" fill="#8B8F8A" points="106.545 134.926 165.184 134.926 165.184 132.5 106.545 132.5"></polygon>
                    <polygon id="Fill-153" fill="#8B8F8A" points="106.545 139.506 165.184 139.506 165.184 137.08 106.545 137.08"></polygon>
                    <polygon id="Fill-154" fill="#8B8F8A" points="106.545 144.086 148.49 144.086 148.49 141.66 106.545 141.66"></polygon>
                    <path d="M63.182,96.664 C63.182,89.568 68.936,83.814 76.031,83.814 C83.133,83.814 88.887,89.568 88.887,96.664 C88.887,103.764 83.133,109.518 76.031,109.518 C68.936,109.518 63.182,103.764 63.182,96.664" id="Fill-155" fill="#FFFFFF"></path>
                    <path d="M63.182,136.123 C63.182,129.025 68.936,123.271 76.031,123.271 C83.133,123.271 88.887,129.025 88.887,136.123 C88.887,143.223 83.133,148.975 76.031,148.975 C68.936,148.975 63.182,143.223 63.182,136.123" id="Fill-156" fill="#FFFFFF"></path>
                </g>
                <g id="plus-sign" transform="translate(132.000000, 0.000000)">
                    <g id="Capa_1">
                        <g id="Shape">
                            <use fill="black" fill-opacity="1" filter="url(#filter-3)" xlink:href="#path-2"></use>
                            <use fill="#4B6BC6" fill-rule="evenodd" xlink:href="#path-2"></use>
                        </g>
                    </g>
                </g>
            </g>
        </g>
    </g>
</svg>