<?xml version="1.0" encoding="UTF-8" standalone="no"?>
<svg width="819px" height="132px" viewBox="0 0 819 132" version="1.1" xmlns="http://www.w3.org/2000/svg" xmlns:xlink="http://www.w3.org/1999/xlink" xmlns:sketch="http://www.bohemiancoding.com/sketch/ns">
    <!-- Generator: Sketch 3.4 (15575) - http://www.bohemiancoding.com/sketch -->
    <title>Logo</title>
    <desc>Created with Sketch.</desc>
    <defs></defs>
    <g id="Page-1" stroke="none" stroke-width="1" fill="none" fill-rule="evenodd" sketch:type="MSPage">
        <g id="Sign-in-or-Sign-up" sketch:type="MSArtboardGroup" transform="translate(-130.000000, -402.000000)">
            <g id="Logo" sketch:type="MSLayerGroup" transform="translate(130.000000, 402.000000)">
                <g id="Fill-126-+-Fill-127-+-Fill-128" sketch:type="MSShapeGroup">
                    <path d="M59.4112245,82.2557069 C45.8170918,82.2557069 34.7530612,93.3084655 34.7530612,106.885931 C34.7530612,120.472569 45.8170918,131.520741 59.4112245,131.520741 C73.0122449,131.520741 84.0785714,120.472569 84.0785714,106.885931 C84.0785714,93.3084655 73.0122449,82.2557069 59.4112245,82.2557069 L59.4112245,82.2557069 Z" id="Fill-126" fill="#FFFFFF"></path>
                    <path d="M169.036735,82.2557069 C155.440306,82.2557069 144.376276,93.3084655 144.376276,106.885931 C144.376276,120.472569 155.440306,131.520741 169.036735,131.520741 C182.642347,131.520741 193.704082,120.472569 193.704082,106.885931 C193.704082,93.3084655 182.642347,82.2557069 169.036735,82.2557069 L169.036735,82.2557069 Z" id="Fill-127" fill="#FFFFFF"></path>
                    <path d="M172.331378,49.5973276 L172.331378,25.3385862 C177.090816,28.2485345 181.616071,31.585 185.88648,35.3456897 C191.816837,40.5693793 196.135459,45.6852931 198.984694,49.5124828 C192.243878,49.5354138 183.025765,49.5652241 172.331378,49.5973276 L172.331378,49.5973276 Z M121.605357,49.7601379 L121.605357,10.9080862 C123.926531,10.9241379 126.279847,11.0342069 128.66301,11.2497586 C142.128571,12.4880345 154.528827,15.980431 165.744388,21.6673276 L165.744388,49.6202586 C152.29949,49.6638276 137.017857,49.7096897 121.605357,49.7601379 L121.605357,49.7601379 Z M123.664796,69.246931 L112.958929,69.246931 C111.569898,69.246931 110.444898,68.1210172 110.444898,66.7291034 C110.444898,65.344069 111.569898,64.213569 112.958929,64.213569 L117.339541,64.213569 C117.644898,64.3075862 117.973214,64.3626207 118.308418,64.3626207 C118.652806,64.3626207 118.976531,64.3075862 119.281888,64.213569 L123.664796,64.213569 C125.056122,64.213569 126.176531,65.344069 126.176531,66.7291034 C126.176531,68.1210172 125.056122,69.246931 123.664796,69.246931 L123.664796,69.246931 Z M55.0903061,49.9642241 C57.9464286,45.373431 63.2385204,37.8956207 71.0951531,30.7480172 C84.0005102,19.0096207 98.7288265,12.4421724 115.018367,11.1419828 L115.018367,49.7784828 C93.232398,49.849569 71.6645408,49.916069 55.0903061,49.9642241 L55.0903061,49.9642241 Z M212.220663,51.2529483 C211.956633,50.8012069 206.085969,39.7507414 192.946429,28.0742586 C180.885969,17.3517069 160.096429,3.97603448 129.590561,1.17615517 C105.060969,-1.07796552 82.3795918,6.65437931 63.980102,23.5362069 C50.1885204,36.1895517 43.6956633,49.4391034 43.4247449,49.9940345 C43.4247449,49.9940345 43.4247449,49.9940345 43.4247449,50.0009138 C33.2790816,50.028431 26.5405612,50.049069 25.1607143,50.049069 C-3.99515306,50.049069 -12.2971939,105.863207 26.2489796,105.863207 C28.8341837,105.863207 17.5153061,106.046655 29.7089286,106.046655 C30.1543367,90.061431 43.3053571,77.1948276 59.4112245,77.1948276 C75.5239796,77.1948276 88.675,90.061431 89.1204082,106.046655 L139.164541,106.046655 C139.609949,89.972 152.836735,77.027431 169.036735,77.027431 C185.21148,77.027431 198.42449,89.9261379 198.91352,105.96181 C234.943367,103.673293 217.620663,60.5675345 212.220663,51.2529483 L212.220663,51.2529483 Z" id="Fill-128" fill="#FA4986"></path>
                </g>
                <path d="M294.713379,57.2617188 C291.432113,55.6796796 287.68215,54.8886719 283.463379,54.8886719 C274.176223,54.8886719 269.532715,59.8251459 269.532715,69.6982422 C269.532715,81.3877538 274.176223,87.2324219 283.463379,87.2324219 C287.68215,87.2324219 291.432113,86.6611385 294.713379,85.5185547 L294.713379,57.2617188 Z M302.843262,91.2314453 C297.247531,93.0771577 290.348186,94 282.14502,94 C268.404716,94 261.534668,86.0020331 261.534668,70.0058594 C261.534668,55.2401605 268.829517,47.8574219 283.419434,47.8574219 C287.403829,47.8574219 291.168439,48.5898364 294.713379,50.0546875 L294.713379,31.1582031 L302.843262,31.1582031 L302.843262,91.2314453 Z M316.026855,94 L316.026855,47.8574219 L321.52002,47.8574219 L322.970215,53.7460938 C327.013204,49.8202929 331.876436,47.8574219 337.560059,47.8574219 L337.560059,54.625 C332.052219,54.625 327.58449,56.5732227 324.156738,60.4697266 L324.156738,94 L316.026855,94 Z M354.69873,47.8574219 L354.69873,94 L346.568848,94 L346.568848,47.8574219 L354.69873,47.8574219 Z M354.69873,31.1582031 L354.69873,38.8486328 L346.568848,38.8486328 L346.568848,31.1582031 L354.69873,31.1582031 Z M362.169434,47.8574219 L370.958496,47.8574219 L384.186035,84.0244141 L397.325684,47.8574219 L406.114746,47.8574219 L387.350098,94 L379.791504,94 L362.169434,47.8574219 Z M431.734863,47.8574219 C444.859929,47.8574219 451.422363,54.3466148 451.422363,67.3251953 C451.422363,69.1709077 451.290529,71.148427 451.026855,73.2578125 L418.63916,73.2578125 C418.63916,82.6914534 424.146918,87.4082031 435.162598,87.4082031 C440.406765,87.4082031 445.064921,86.8222715 449.137207,85.6503906 L449.137207,92.2421875 C445.064921,93.4140684 440.113799,94 434.283691,94 C418.434003,94 410.509277,86.1338677 410.509277,70.4013672 C410.509277,55.3719952 417.584402,47.8574219 431.734863,47.8574219 L431.734863,47.8574219 Z M418.63916,66.4902344 L443.600098,66.4902344 C443.424316,58.4042564 439.469277,54.3613281 431.734863,54.3613281 C423.531697,54.3613281 419.166507,58.4042564 418.63916,66.4902344 L418.63916,66.4902344 Z M515.318848,57.2617188 C512.037581,55.6796796 508.287619,54.8886719 504.068848,54.8886719 C494.781692,54.8886719 490.138184,59.8251459 490.138184,69.6982422 C490.138184,81.3877538 494.781692,87.2324219 504.068848,87.2324219 C508.287619,87.2324219 512.037581,86.6611385 515.318848,85.5185547 L515.318848,57.2617188 Z M523.44873,91.2314453 C517.852999,93.0771577 510.953654,94 502.750488,94 C489.010185,94 482.140137,86.0020331 482.140137,70.0058594 C482.140137,55.2401605 489.434986,47.8574219 504.024902,47.8574219 C508.009297,47.8574219 511.773908,48.5898364 515.318848,50.0546875 L515.318848,31.1582031 L523.44873,31.1582031 L523.44873,91.2314453 Z M536.632324,94 L536.632324,47.8574219 L542.125488,47.8574219 L543.575684,53.7460938 C547.618673,49.8202929 552.481905,47.8574219 558.165527,47.8574219 L558.165527,54.625 C552.657687,54.625 548.189959,56.5732227 544.762207,60.4697266 L544.762207,94 L536.632324,94 Z M575.304199,47.8574219 L575.304199,94 L567.174316,94 L567.174316,47.8574219 L575.304199,47.8574219 Z M575.304199,31.1582031 L575.304199,38.8486328 L567.174316,38.8486328 L567.174316,31.1582031 L575.304199,31.1582031 Z M582.774902,47.8574219 L591.563965,47.8574219 L604.791504,84.0244141 L617.931152,47.8574219 L626.720215,47.8574219 L607.955566,94 L600.396973,94 L582.774902,47.8574219 Z M652.340332,47.8574219 C665.465398,47.8574219 672.027832,54.3466148 672.027832,67.3251953 C672.027832,69.1709077 671.895997,71.148427 671.632324,73.2578125 L639.244629,73.2578125 C639.244629,82.6914534 644.752386,87.4082031 655.768066,87.4082031 C661.012233,87.4082031 665.67039,86.8222715 669.742676,85.6503906 L669.742676,92.2421875 C665.67039,93.4140684 660.719267,94 654.88916,94 C639.039472,94 631.114746,86.1338677 631.114746,70.4013672 C631.114746,55.3719952 638.189871,47.8574219 652.340332,47.8574219 L652.340332,47.8574219 Z M639.244629,66.4902344 L664.205566,66.4902344 C664.029784,58.4042564 660.074746,54.3613281 652.340332,54.3613281 C644.137166,54.3613281 639.771975,58.4042564 639.244629,66.4902344 L639.244629,66.4902344 Z M737.901855,92.6816406 C734.093243,93.5605513 730.138204,94 726.036621,94 C709.630289,94 701.427246,86.0166814 701.427246,70.0498047 C701.427246,55.2548088 709.630289,47.8574219 726.036621,47.8574219 C730.138204,47.8574219 734.093243,48.2968706 737.901855,49.1757812 L737.901855,58.4042969 C734.093243,57.5253862 730.43117,57.0859375 726.915527,57.0859375 C717.686966,57.0859375 713.072754,61.4071833 713.072754,70.0498047 C713.072754,79.8643069 717.686966,84.7714844 726.915527,84.7714844 C730.43117,84.7714844 734.093243,84.3320356 737.901855,83.453125 L737.901855,92.6816406 Z M743.39502,79.6298828 C743.39502,70.4599151 750.07464,65.875 763.434082,65.875 C766.568863,65.875 769.703598,66.1679658 772.838379,66.7539062 L772.838379,63.2822266 C772.838379,59.1513465 769.864776,57.0859375 763.91748,57.0859375 C758.878393,57.0859375 753.282746,57.8183521 747.130371,59.2832031 L747.130371,50.0546875 C753.282746,48.5898364 758.878393,47.8574219 763.91748,47.8574219 C777.628487,47.8574219 784.483887,52.9257306 784.483887,63.0625 L784.483887,94 L777.716309,94 L773.585449,89.8691406 C769.571757,92.6230606 765.147973,94 760.313965,94 C749.034612,94 743.39502,89.2100088 743.39502,79.6298828 L743.39502,79.6298828 Z M763.434082,73.7851562 C757.838351,73.7851562 755.040527,75.6894341 755.040527,79.4980469 C755.040527,83.5996299 757.384254,85.6503906 762.071777,85.6503906 C765.938984,85.6503906 769.527815,84.4492308 772.838379,82.046875 L772.838379,74.6640625 C769.908677,74.0781221 766.773942,73.7851562 763.434082,73.7851562 L763.434082,73.7851562 Z M795.470215,94 L795.470215,47.8574219 L804.479004,47.8574219 L805.929199,53.7460938 C809.972188,49.8202929 814.249489,47.8574219 818.76123,47.8574219 L818.76123,57.2617188 C814.425271,57.2617188 810.543474,59.0634585 807.115723,62.6669922 L807.115723,94 L795.470215,94 Z" id="drive-drive-car" fill="#FFFFFF" sketch:type="MSShapeGroup"></path>
            </g>
        </g>
    </g>
</svg>