<?xml version="1.0" encoding="UTF-8" standalone="no"?>
<svg width="819px" height="132px" viewBox="0 0 819 132" version="1.1" xmlns="http://www.w3.org/2000/svg" xmlns:xlink="http://www.w3.org/1999/xlink" xmlns:sketch="http://www.bohemiancoding.com/sketch/ns">
    <!-- Generator: Sketch 3.4 (15575) - http://www.bohemiancoding.com/sketch -->
    <title>Logo</title>
    <desc>Created with Sketch.</desc>
    <defs></defs>
    <g id="Page-1" stroke="none" stroke-width="1" fill="none" fill-rule="evenodd" sketch:type="MSPage">
        <g id="Overwlow-menu" sketch:type="MSArtboardGroup" transform="translate(-130.000000, -402.000000)">
            <g id="Logo" sketch:type="MSLayerGroup" transform="translate(130.000000, 402.000000)">
                <g id="Fill-126-+-Fill-127-+-Fill-128" sketch:type="MSShapeGroup">
                    <path d="M59.4112245,82.2557069 C45.8170918,82.2557069 34.7530612,93.3084655 34.7530612,106.885931 C34.7530612,120.472569 45.8170918,131.520741 59.4112245,131.520741 C73.0122449,131.520741 84.0785714,120.472569 84.0785714,106.885931 C84.0785714,93.3084655 73.0122449,82.2557069 59.4112245,82.2557069 L59.4112245,82.2557069 Z" id="Fill-126" fill="#FFFFFF"></path>
                    <path d="M169.036735,82.2557069 C155.440306,82.2557069 144.376276,93.3084655 144.376276,106.885931 C144.376276,120.472569 155.440306,131.520741 169.036735,131.520741 C182.642347,131.520741 193.704082,120.472569 193.704082,106.885931 C193.704082,93.3084655 182.642347,82.2557069 169.036735,82.2557069 L169.036735,82.2557069 Z" id="Fill-127" fill="#FFFFFF"></path>
                    <path d="M172.331378,49.5973276 L172.331378,25.3385862 C177.090816,28.2485345 181.616071,31.585 185.88648,35.3456897 C191.816837,40.5693793 196.135459,45.6852931 198.984694,49.5124828 C192.243878,49.5354138 183.025765,49.5652241 172.331378,49.5973276 L172.331378,49.5973276 Z M121.605357,49.7601379 L121.605357,10.9080862 C123.926531,10.9241379 126.279847,11.0342069 128.66301,11.2497586 C142.128571,12.4880345 154.528827,15.980431 165.744388,21.6673276 L165.744388,49.6202586 C152.29949,49.6638276 137.017857,49.7096897 121.605357,49.7601379 L121.605357,49.7601379 Z M123.664796,69.246931 L112.958929,69.246931 C111.569898,69.246931 110.444898,68.1210172 110.444898,66.7291034 C110.444898,65.344069 111.569898,64.213569 112.958929,64.213569 L117.339541,64.213569 C117.644898,64.3075862 117.973214,64.3626207 118.308418,64.3626207 C118.652806,64.3626207 118.976531,64.3075862 119.281888,64.213569 L123.664796,64.213569 C125.056122,64.213569 126.176531,65.344069 126.176531,66.7291034 C126.176531,68.1210172 125.056122,69.246931 123.664796,69.246931 L123.664796,69.246931 Z M55.0903061,49.9642241 C57.9464286,45.373431 63.2385204,37.8956207 71.0951531,30.7480172 C84.0005102,19.0096207 98.7288265,12.4421724 115.018367,11.1419828 L115.018367,49.7784828 C93.232398,49.849569 71.6645408,49.916069 55.0903061,49.9642241 L55.0903061,49.9642241 Z M212.220663,51.2529483 C211.956633,50.8012069 206.085969,39.7507414 192.946429,28.0742586 C180.885969,17.3517069 160.096429,3.97603448 129.590561,1.17615517 C105.060969,-1.07796552 82.3795918,6.65437931 63.980102,23.5362069 C50.1885204,36.1895517 43.6956633,49.4391034 43.4247449,49.9940345 C43.4247449,49.9940345 43.4247449,49.9940345 43.4247449,50.0009138 C33.2790816,50.028431 26.5405612,50.049069 25.1607143,50.049069 C-3.99515306,50.049069 -12.2971939,105.863207 26.2489796,105.863207 C28.8341837,105.863207 17.5153061,106.046655 29.7089286,106.046655 C30.1543367,90.061431 43.3053571,77.1948276 59.4112245,77.1948276 C75.5239796,77.1948276 88.675,90.061431 89.1204082,106.046655 L139.164541,106.046655 C139.609949,89.972 152.836735,77.027431 169.036735,77.027431 C185.21148,77.027431 198.42449,89.9261379 198.91352,105.96181 C234.943367,103.673293 217.620663,60.5675345 212.220663,51.2529483 L212.220663,51.2529483 Z" id="Fill-128" fill="#FA4986"></path>
                </g>
                <path d="M294.573242,57.2617188 C291.291976,55.6796796 287.542013,54.8886719 283.323242,54.8886719 C274.036086,54.8886719 269.392578,59.8251459 269.392578,69.6982422 C269.392578,81.3877538 274.036086,87.2324219 283.323242,87.2324219 C287.542013,87.2324219 291.291976,86.6611385 294.573242,85.5185547 L294.573242,57.2617188 Z M302.703125,91.2314453 C297.107394,93.0771577 290.208049,94 282.004883,94 C268.26458,94 261.394531,86.0020331 261.394531,70.0058594 C261.394531,55.2401605 268.68938,47.8574219 283.279297,47.8574219 C287.263692,47.8574219 291.028303,48.5898364 294.573242,50.0546875 L294.573242,31.1582031 L302.703125,31.1582031 L302.703125,91.2314453 Z M315.886719,94 L315.886719,47.8574219 L321.379883,47.8574219 L322.830078,53.7460938 C326.873067,49.8202929 331.7363,47.8574219 337.419922,47.8574219 L337.419922,54.625 C331.912082,54.625 327.444353,56.5732227 324.016602,60.4697266 L324.016602,94 L315.886719,94 Z M354.558594,47.8574219 L354.558594,94 L346.428711,94 L346.428711,47.8574219 L354.558594,47.8574219 Z M354.558594,31.1582031 L354.558594,38.8486328 L346.428711,38.8486328 L346.428711,31.1582031 L354.558594,31.1582031 Z M362.029297,47.8574219 L370.818359,47.8574219 L384.045898,84.0244141 L397.185547,47.8574219 L405.974609,47.8574219 L387.209961,94 L379.651367,94 L362.029297,47.8574219 Z M431.594727,47.8574219 C444.719792,47.8574219 451.282227,54.3466148 451.282227,67.3251953 C451.282227,69.1709077 451.150392,71.148427 450.886719,73.2578125 L418.499023,73.2578125 C418.499023,82.6914534 424.006781,87.4082031 435.022461,87.4082031 C440.266628,87.4082031 444.924784,86.8222715 448.99707,85.6503906 L448.99707,92.2421875 C444.924784,93.4140684 439.973662,94 434.143555,94 C418.293866,94 410.369141,86.1338677 410.369141,70.4013672 C410.369141,55.3719952 417.444265,47.8574219 431.594727,47.8574219 L431.594727,47.8574219 Z M418.499023,66.4902344 L443.459961,66.4902344 C443.284179,58.4042564 439.32914,54.3613281 431.594727,54.3613281 C423.391561,54.3613281 419.02637,58.4042564 418.499023,66.4902344 L418.499023,66.4902344 Z M515.178711,57.2617188 C511.897445,55.6796796 508.147482,54.8886719 503.928711,54.8886719 C494.641555,54.8886719 489.998047,59.8251459 489.998047,69.6982422 C489.998047,81.3877538 494.641555,87.2324219 503.928711,87.2324219 C508.147482,87.2324219 511.897445,86.6611385 515.178711,85.5185547 L515.178711,57.2617188 Z M523.308594,91.2314453 C517.712863,93.0771577 510.813518,94 502.610352,94 C488.870048,94 482,86.0020331 482,70.0058594 C482,55.2401605 489.294849,47.8574219 503.884766,47.8574219 C507.869161,47.8574219 511.633771,48.5898364 515.178711,50.0546875 L515.178711,31.1582031 L523.308594,31.1582031 L523.308594,91.2314453 Z M536.492188,94 L536.492188,47.8574219 L541.985352,47.8574219 L543.435547,53.7460938 C547.478536,49.8202929 552.341768,47.8574219 558.025391,47.8574219 L558.025391,54.625 C552.517551,54.625 548.049822,56.5732227 544.62207,60.4697266 L544.62207,94 L536.492188,94 Z M575.164062,47.8574219 L575.164062,94 L567.03418,94 L567.03418,47.8574219 L575.164062,47.8574219 Z M575.164062,31.1582031 L575.164062,38.8486328 L567.03418,38.8486328 L567.03418,31.1582031 L575.164062,31.1582031 Z M582.634766,47.8574219 L591.423828,47.8574219 L604.651367,84.0244141 L617.791016,47.8574219 L626.580078,47.8574219 L607.81543,94 L600.256836,94 L582.634766,47.8574219 Z M652.200195,47.8574219 C665.325261,47.8574219 671.887695,54.3466148 671.887695,67.3251953 C671.887695,69.1709077 671.755861,71.148427 671.492188,73.2578125 L639.104492,73.2578125 C639.104492,82.6914534 644.61225,87.4082031 655.62793,87.4082031 C660.872097,87.4082031 665.530253,86.8222715 669.602539,85.6503906 L669.602539,92.2421875 C665.530253,93.4140684 660.579131,94 654.749023,94 C638.899335,94 630.974609,86.1338677 630.974609,70.4013672 C630.974609,55.3719952 638.049734,47.8574219 652.200195,47.8574219 L652.200195,47.8574219 Z M639.104492,66.4902344 L664.06543,66.4902344 C663.889648,58.4042564 659.934609,54.3613281 652.200195,54.3613281 C643.997029,54.3613281 639.631839,58.4042564 639.104492,66.4902344 L639.104492,66.4902344 Z" id="drive-drive" fill="#252525" sketch:type="MSShapeGroup"></path>
                <path d="M737.796387,93.6816406 C733.987774,94.5605513 730.032735,95 725.931152,95 C709.52482,95 701.321777,87.0166814 701.321777,71.0498047 C701.321777,56.2548088 709.52482,48.8574219 725.931152,48.8574219 C730.032735,48.8574219 733.987774,49.2968706 737.796387,50.1757812 L737.796387,59.4042969 C733.987774,58.5253862 730.325701,58.0859375 726.810059,58.0859375 C717.581497,58.0859375 712.967285,62.4071833 712.967285,71.0498047 C712.967285,80.8643069 717.581497,85.7714844 726.810059,85.7714844 C730.325701,85.7714844 733.987774,85.3320356 737.796387,84.453125 L737.796387,93.6816406 Z M743.289551,80.6298828 C743.289551,71.4599151 749.969171,66.875 763.328613,66.875 C766.463395,66.875 769.598129,67.1679658 772.73291,67.7539062 L772.73291,64.2822266 C772.73291,60.1513465 769.759307,58.0859375 763.812012,58.0859375 C758.772924,58.0859375 753.177277,58.8183521 747.024902,60.2832031 L747.024902,51.0546875 C753.177277,49.5898364 758.772924,48.8574219 763.812012,48.8574219 C777.523018,48.8574219 784.378418,53.9257306 784.378418,64.0625 L784.378418,95 L777.61084,95 L773.47998,90.8691406 C769.466289,93.6230606 765.042505,95 760.208496,95 C748.929143,95 743.289551,90.2100088 743.289551,80.6298828 L743.289551,80.6298828 Z M763.328613,74.7851562 C757.732882,74.7851562 754.935059,76.6894341 754.935059,80.4980469 C754.935059,84.5996299 757.278785,86.6503906 761.966309,86.6503906 C765.833515,86.6503906 769.422347,85.4492308 772.73291,83.046875 L772.73291,75.6640625 C769.803208,75.0781221 766.668474,74.7851562 763.328613,74.7851562 L763.328613,74.7851562 Z M795.364746,95 L795.364746,48.8574219 L804.373535,48.8574219 L805.82373,54.7460938 C809.866719,50.8202929 814.14402,48.8574219 818.655762,48.8574219 L818.655762,58.2617188 C814.319803,58.2617188 810.438005,60.0634585 807.010254,63.6669922 L807.010254,95 L795.364746,95 Z" id="car" fill="#FA4986" sketch:type="MSShapeGroup"></path>
            </g>
        </g>
    </g>
</svg>