<?xml version="1.0" encoding="UTF-8"?>
<svg width="170px" height="100px" viewBox="0 0 170 100" version="1.1" xmlns="http://www.w3.org/2000/svg" xmlns:xlink="http://www.w3.org/1999/xlink">
    <!-- Generator: Sketch 39.1 (31720) - http://www.bohemiancoding.com/sketch -->
    <title>dashboard</title>
    <desc>Created with Sketch.</desc>
    <defs></defs>
    <g id="Page-1" stroke="none" stroke-width="1" fill="none" fill-rule="evenodd">
        <g id="Desktop-HD" transform="translate(-944.000000, -776.000000)" fill="#252525">
            <g id="dashboard" transform="translate(944.598378, 776.000000)">
                <g id="Layer_1">
                    <path d="M113.37147,0.301973684 C94.6739458,0.301973684 78.1260354,9.62368421 68.111634,23.8476974 C60.9890813,19.2776316 52.7806852,16.8677632 44.2425169,16.8677632 C19.8472797,16.8680921 0,36.6851974 0,61.0440789 C0,76.7822368 8.48875188,91.4519737 22.1537086,99.3279605 C22.5740776,99.5707237 23.0504518,99.6980263 23.5360505,99.6980263 L64.9489834,99.6980263 C65.4342526,99.6980263 65.9109563,99.5707237 66.3316547,99.3279605 C68.9639025,97.8111842 71.4320877,96.0253289 73.6996423,94.0029605 C75.4723739,95.8180921 77.380177,97.5282895 79.4217338,99.1154605 C79.9073325,99.4930921 80.5052711,99.6980263 81.1206702,99.6980263 L145.6226,99.6980263 C146.237999,99.6980263 146.835608,99.4930921 147.321536,99.1154605 C160.891613,88.5651316 168.674699,72.6759868 168.674699,55.5220395 C168.674699,25.0733553 143.866011,0.301973684 113.37147,0.301973684 L113.37147,0.301973684 Z M64.1945595,94.1759868 L47.0078596,94.1759868 L47.0078596,85.8930921 C47.0078596,84.3684211 45.7698136,83.1322368 44.2428464,83.1322368 C42.7158791,83.1322368 41.4778332,84.3684211 41.4778332,85.8930921 L41.4778332,94.1759868 L24.2908038,94.1759868 C21.2968279,92.3740132 18.6006683,90.1924342 16.2441642,87.7180921 L22.9654556,81.0065789 C24.045369,79.9286184 24.045369,78.1802632 22.9651261,77.1023026 C21.8855422,76.0236842 20.1348833,76.0236842 19.0546404,77.1023026 L12.7125377,83.4351974 C8.12570595,76.9848684 5.53068524,69.1782895 5.53068524,61.04375 L13.8260542,61.04375 C15.3530215,61.04375 16.5910674,59.8075658 16.5910674,58.2828947 C16.5910674,56.7582237 15.3530215,55.5220395 13.8260542,55.5220395 L5.93161709,55.5220395 C7.10772779,47.3503289 10.854151,40.0013158 16.3225715,34.3095395 L21.8196536,39.7983553 C22.3596103,40.3375 23.0672534,40.6072368 23.7748965,40.6072368 C24.4822101,40.6072368 25.1901826,40.3375 25.7298099,39.7983553 C26.8100527,38.7203947 26.8100527,36.9720395 25.7301393,35.8940789 L20.4294051,30.6013158 C26.3208302,25.9963816 33.5731834,23.0595395 41.4771743,22.4993421 L41.4771743,30.6726974 C41.4771743,32.1973684 42.7152203,33.4335526 44.2421875,33.4335526 C45.7691547,33.4335526 47.0072007,32.1973684 47.0072007,30.6726974 L47.0072007,22.4901316 C53.4935994,22.9453947 59.6937123,25.0009868 65.1594974,28.5161184 C60.6523908,36.5065789 58.0679123,45.7157895 58.0679123,55.5217105 C58.0679123,68.2105263 62.3309017,80.2049342 70.0405215,89.8608553 C68.2295745,91.4789474 66.2733434,92.925 64.1945595,94.1759868 L64.1945595,94.1759868 Z M150.472986,88.6634868 L142.700442,80.9023026 C141.620858,79.8243421 139.870529,79.8236842 138.789627,80.9023026 C137.709714,81.9802632 137.709714,83.7286184 138.789627,84.8065789 L146.556241,92.5618421 C145.938535,93.1125 145.307652,93.6526316 144.65898,94.1763158 L116.136813,94.1763158 L116.136813,85.8934211 C116.136813,84.36875 114.898767,83.1325658 113.3718,83.1325658 C111.844832,83.1325658 110.606787,84.36875 110.606787,85.8934211 L110.606787,94.1763158 L82.0846197,94.1763158 C81.4359469,93.6526316 80.805064,93.1128289 80.1873588,92.5618421 L87.9536427,84.8065789 C89.0335561,83.7286184 89.0335561,81.9802632 87.9533133,80.9023026 C86.8737293,79.8236842 85.1230704,79.8236842 84.0428276,80.9023026 L76.2706137,88.6634868 C76.2241623,88.6118421 76.1760636,88.5611842 76.1299416,88.5092105 C76.0284733,88.3601974 75.9118505,88.2184211 75.7780968,88.0871711 C75.7599774,88.0694079 75.7382342,88.0575658 75.7194559,88.0401316 C68.526073,79.7723684 64.2798852,69.3861842 63.6746988,58.2828947 L74.6596386,58.2828947 C76.1866058,58.2828947 77.4246517,57.0467105 77.4246517,55.5220395 C77.4246517,53.9973684 76.1866058,52.7611842 74.6596386,52.7611842 L63.6796404,52.7611842 C64.3204066,41.1345395 68.9833396,30.5638158 76.297628,22.4078947 L84.0424981,30.1417763 C84.5824548,30.6809211 85.2900979,30.9506579 85.997741,30.9506579 C86.7050546,30.9506579 87.4130271,30.6809211 87.9526544,30.1417763 C89.0328972,29.0638158 89.0328972,27.3154605 87.9529838,26.2375 L80.2077843,18.5032895 C88.3759883,11.2003289 98.9623023,6.54440789 110.606457,5.90460526 L110.606457,16.8680921 C110.606457,18.3927632 111.844503,19.6289474 113.37147,19.6289474 C114.898437,19.6289474 116.136483,18.3927632 116.136483,16.8680921 L116.136483,5.90460526 C127.780638,6.54440789 138.366952,11.2003289 146.534827,18.5032895 L138.789298,26.2375 C137.709384,27.3154605 137.709384,29.0638158 138.789298,30.1417763 C139.329255,30.6809211 140.036898,30.9506579 140.744541,30.9506579 C141.452184,30.9506579 142.159827,30.6809211 142.699784,30.1417763 L150.444983,22.4078947 C157.759271,30.5638158 162.422204,41.1345395 163.062971,52.7611842 L152.083302,52.7611842 C150.556335,52.7611842 149.318289,53.9973684 149.318289,55.5220395 C149.318289,57.0467105 150.556335,58.2828947 152.083302,58.2828947 L163.068242,58.2828947 C162.44823,69.6674342 158.000753,80.2976974 150.472986,88.6634868 L150.472986,88.6634868 Z" id="Shape"></path>
                    <path d="M128.846056,38.6904605 C128.089655,37.9348684 126.964938,37.6832237 125.959149,38.0427632 C122.810994,39.1677632 106.929217,44.9559211 103.427899,48.4526316 C101.338902,50.5381579 100.188159,53.3115132 100.188159,56.2618421 C100.188159,59.2115132 101.338902,61.9848684 103.427899,64.0703947 L103.42757,64.0703947 C105.516896,66.1565789 108.294428,67.3052632 111.24887,67.3052632 C114.203313,67.3052632 116.981175,66.1565789 119.069842,64.0710526 C122.571489,60.5753289 128.368035,44.7164474 129.494399,41.5730263 C129.854151,40.5677632 129.601798,39.4453947 128.846056,38.6904605 L128.846056,38.6904605 Z M115.158697,60.1657895 C114.114364,61.2085526 112.725762,61.7828947 111.248212,61.7828947 C109.77099,61.7828947 108.382059,61.2085526 107.337726,60.1657895 L107.337396,60.1657895 C106.293063,59.1230263 105.717856,57.7365132 105.717856,56.2615132 C105.717856,54.7858553 106.293063,53.3993421 107.337726,52.3565789 C108.813959,50.8822368 115.71875,47.8664474 122.170228,45.3555921 C119.65625,51.7963816 116.636248,58.6907895 115.158697,60.1657895 L115.158697,60.1657895 Z" id="Shape"></path>
                    <path d="M49.6786521,53.9786184 C47.0671593,51.3707237 36.1639213,47.3450658 32.8843185,46.1733553 C31.8775414,45.8141447 30.7534827,46.0654605 29.9974115,46.8210526 C29.2416698,47.5759868 28.9893166,48.6983553 29.3493976,49.7032895 C30.5232022,52.9779605 34.5545934,63.8648026 37.1660862,66.4717105 C38.8373494,68.1407895 41.058782,69.0595395 43.4225339,69.0595395 C45.7856269,69.0595395 48.0073889,68.1407895 49.6786521,66.4723684 C51.3499153,64.8039474 52.2703784,62.5848684 52.2703784,60.225 C52.2700489,57.8657895 51.3499153,55.6467105 49.6786521,53.9786184 L49.6786521,53.9786184 Z M45.7681664,62.5667763 L45.767837,62.5674342 C45.1412368,63.1927632 44.3084055,63.5375 43.4222044,63.5375 C42.5360034,63.5375 41.7031721,63.1930921 41.0762425,62.5667763 C40.2668016,61.7592105 38.4831984,57.9003289 36.7262801,53.5394737 C41.0937029,55.2934211 44.9583961,57.0743421 45.767837,57.8825658 C46.3947666,58.5088816 46.7396931,59.3404605 46.7396931,60.225 C46.7396931,61.1101974 46.3947666,61.9411184 45.7681664,62.5667763 L45.7681664,62.5667763 Z" id="Shape"></path>
                </g>
            </g>
        </g>
    </g>
</svg>