<?xml version="1.0" encoding="UTF-8" standalone="no"?>
<svg width="834px" height="105px" viewBox="0 0 834 105" version="1.1" xmlns="http://www.w3.org/2000/svg" xmlns:xlink="http://www.w3.org/1999/xlink">
    <!-- Generator: Sketch 3.8.3 (29802) - http://www.bohemiancoding.com/sketch -->
    <title>Group 2</title>
    <desc>Created with Sketch.</desc>
    <defs></defs>
    <g id="Page-1" stroke="none" stroke-width="1" fill="none" fill-rule="evenodd">
        <g id="Group-2" fill="#FFFFFF">
            <g id="logo-white" transform="translate(276.000000, 24.000000)">
                <g id="Page-1">
                    <g id="logo-color">
                        <g id="Page-1">
                            <g id="Sign-in-or-Sign-up">
                                <g id="Logo">
                                    <path d="M33.713379,26.2617188 C30.432113,24.6796796 26.68215,23.8886719 22.463379,23.8886719 C13.176223,23.8886719 8.532715,28.8251459 8.532715,38.6982422 C8.532715,50.3877538 13.176223,56.2324219 22.463379,56.2324219 C26.68215,56.2324219 30.432113,55.6611385 33.713379,54.5185547 L33.713379,26.2617188 L33.713379,26.2617188 L33.713379,26.2617188 Z M41.843262,60.2314453 C36.247531,62.0771577 29.348186,63 21.14502,63 C7.404716,63 0.534668,55.0020331 0.534668,39.0058594 C0.534668,24.2401605 7.829517,16.8574219 22.419434,16.8574219 C26.403829,16.8574219 30.168439,17.5898364 33.713379,19.0546875 L33.713379,0.1582031 L41.843262,0.1582031 L41.843262,60.2314453 L41.843262,60.2314453 L41.843262,60.2314453 Z M55.026855,63 L55.026855,16.8574219 L60.52002,16.8574219 L61.970215,22.7460938 C66.013204,18.8202929 70.876436,16.8574219 76.560059,16.8574219 L76.560059,23.625 C71.052219,23.625 66.58449,25.5732227 63.156738,29.4697266 L63.156738,63 L55.026855,63 L55.026855,63 L55.026855,63 Z M93.69873,16.8574219 L93.69873,63 L85.568848,63 L85.568848,16.8574219 L93.69873,16.8574219 L93.69873,16.8574219 L93.69873,16.8574219 Z M93.69873,0.1582031 L93.69873,7.8486328 L85.568848,7.8486328 L85.568848,0.1582031 L93.69873,0.1582031 L93.69873,0.1582031 L93.69873,0.1582031 Z M101.169434,16.8574219 L109.958496,16.8574219 L123.186035,53.0244141 L136.325684,16.8574219 L145.114746,16.8574219 L126.350098,63 L118.791504,63 L101.169434,16.8574219 L101.169434,16.8574219 L101.169434,16.8574219 Z M170.734863,16.8574219 C183.859929,16.8574219 190.422363,23.3466148 190.422363,36.3251953 C190.422363,38.1709077 190.290529,40.148427 190.026855,42.2578125 L157.63916,42.2578125 C157.63916,51.6914534 163.146918,56.4082031 174.162598,56.4082031 C179.406765,56.4082031 184.064921,55.8222715 188.137207,54.6503906 L188.137207,61.2421875 C184.064921,62.4140684 179.113799,63 173.283691,63 C157.434003,63 149.509277,55.1338677 149.509277,39.4013672 C149.509277,24.3719952 156.584402,16.8574219 170.734863,16.8574219 L170.734863,16.8574219 L170.734863,16.8574219 L170.734863,16.8574219 Z M157.63916,35.4902344 L182.600098,35.4902344 C182.424316,27.4042564 178.469277,23.3613281 170.734863,23.3613281 C162.531697,23.3613281 158.166507,27.4042564 157.63916,35.4902344 L157.63916,35.4902344 L157.63916,35.4902344 L157.63916,35.4902344 Z M254.318848,26.2617188 C251.037581,24.6796796 247.287619,23.8886719 243.068848,23.8886719 C233.781692,23.8886719 229.138184,28.8251459 229.138184,38.6982422 C229.138184,50.3877538 233.781692,56.2324219 243.068848,56.2324219 C247.287619,56.2324219 251.037581,55.6611385 254.318848,54.5185547 L254.318848,26.2617188 L254.318848,26.2617188 L254.318848,26.2617188 Z M262.44873,60.2314453 C256.852999,62.0771577 249.953654,63 241.750488,63 C228.010185,63 221.140137,55.0020331 221.140137,39.0058594 C221.140137,24.2401605 228.434986,16.8574219 243.024902,16.8574219 C247.009297,16.8574219 250.773908,17.5898364 254.318848,19.0546875 L254.318848,0.1582031 L262.44873,0.1582031 L262.44873,60.2314453 L262.44873,60.2314453 L262.44873,60.2314453 Z M275.632324,63 L275.632324,16.8574219 L281.125488,16.8574219 L282.575684,22.7460938 C286.618673,18.8202929 291.481905,16.8574219 297.165527,16.8574219 L297.165527,23.625 C291.657687,23.625 287.189959,25.5732227 283.762207,29.4697266 L283.762207,63 L275.632324,63 L275.632324,63 L275.632324,63 Z M314.304199,16.8574219 L314.304199,63 L306.174316,63 L306.174316,16.8574219 L314.304199,16.8574219 L314.304199,16.8574219 L314.304199,16.8574219 Z M314.304199,0.1582031 L314.304199,7.8486328 L306.174316,7.8486328 L306.174316,0.1582031 L314.304199,0.1582031 L314.304199,0.1582031 L314.304199,0.1582031 Z M321.774902,16.8574219 L330.563965,16.8574219 L343.791504,53.0244141 L356.931152,16.8574219 L365.720215,16.8574219 L346.955566,63 L339.396973,63 L321.774902,16.8574219 L321.774902,16.8574219 L321.774902,16.8574219 Z M391.340332,16.8574219 C404.465398,16.8574219 411.027832,23.3466148 411.027832,36.3251953 C411.027832,38.1709077 410.895997,40.148427 410.632324,42.2578125 L378.244629,42.2578125 C378.244629,51.6914534 383.752386,56.4082031 394.768066,56.4082031 C400.012233,56.4082031 404.67039,55.8222715 408.742676,54.6503906 L408.742676,61.2421875 C404.67039,62.4140684 399.719267,63 393.88916,63 C378.039472,63 370.114746,55.1338677 370.114746,39.4013672 C370.114746,24.3719952 377.189871,16.8574219 391.340332,16.8574219 L391.340332,16.8574219 L391.340332,16.8574219 L391.340332,16.8574219 Z M378.244629,35.4902344 L403.205566,35.4902344 C403.029784,27.4042564 399.074746,23.3613281 391.340332,23.3613281 C383.137166,23.3613281 378.771975,27.4042564 378.244629,35.4902344 L378.244629,35.4902344 L378.244629,35.4902344 L378.244629,35.4902344 Z M476.901855,61.6816406 C473.093243,62.5605513 469.138204,63 465.036621,63 C448.630289,63 440.427246,55.0166814 440.427246,39.0498047 C440.427246,24.2548088 448.630289,16.8574219 465.036621,16.8574219 C469.138204,16.8574219 473.093243,17.2968706 476.901855,18.1757812 L476.901855,27.4042969 C473.093243,26.5253862 469.43117,26.0859375 465.915527,26.0859375 C456.686966,26.0859375 452.072754,30.4071833 452.072754,39.0498047 C452.072754,48.8643069 456.686966,53.7714844 465.915527,53.7714844 C469.43117,53.7714844 473.093243,53.3320356 476.901855,52.453125 L476.901855,61.6816406 L476.901855,61.6816406 L476.901855,61.6816406 Z M482.39502,48.6298828 C482.39502,39.4599151 489.07464,34.875 502.434082,34.875 C505.568863,34.875 508.703598,35.1679658 511.838379,35.7539062 L511.838379,32.2822266 C511.838379,28.1513465 508.864776,26.0859375 502.91748,26.0859375 C497.878393,26.0859375 492.282746,26.8183521 486.130371,28.2832031 L486.130371,19.0546875 C492.282746,17.5898364 497.878393,16.8574219 502.91748,16.8574219 C516.628487,16.8574219 523.483887,21.9257306 523.483887,32.0625 L523.483887,63 L516.716309,63 L512.585449,58.8691406 C508.571757,61.6230606 504.147973,63 499.313965,63 C488.034612,63 482.39502,58.2100088 482.39502,48.6298828 L482.39502,48.6298828 L482.39502,48.6298828 L482.39502,48.6298828 Z M502.434082,42.7851562 C496.838351,42.7851562 494.040527,44.6894341 494.040527,48.4980469 C494.040527,52.5996299 496.384254,54.6503906 501.071777,54.6503906 C504.938984,54.6503906 508.527815,53.4492308 511.838379,51.046875 L511.838379,43.6640625 C508.908677,43.0781221 505.773942,42.7851562 502.434082,42.7851562 L502.434082,42.7851562 L502.434082,42.7851562 L502.434082,42.7851562 Z M534.470215,63 L534.470215,16.8574219 L543.479004,16.8574219 L544.929199,22.7460938 C548.972188,18.8202929 553.249489,16.8574219 557.76123,16.8574219 L557.76123,26.2617188 C553.425271,26.2617188 549.543474,28.0634585 546.115723,31.6669922 L546.115723,63 L534.470215,63 L534.470215,63 L534.470215,63 Z" id="drive-drive-car"></path>
                                </g>
                            </g>
                        </g>
                    </g>
                </g>
            </g>
            <g id="Group">
                <path d="M213.03602,47.916 C205.272255,39.9506875 194.450843,34.9629375 182.470627,34.9629375 L174.472,34.9629375 C170.233392,14.9853125 152.530059,0.3238125 131.926392,0.3238125 L100.975471,0.3238125 C80.385098,0.3238125 62.6640392,14.9853125 58.4342941,34.9629375 L42.7051373,34.9629375 C19.1523922,34.9651562 0,54.1506875 0,77.727125 L0,93.9839062 L13.602098,93.9839062 L13.602098,86.2071875 L7.76376471,86.2071875 L7.76376471,77.727125 C7.76376471,58.4350937 23.433098,42.7374375 42.7029216,42.7374375 L65.1212353,42.7374375 L65.5599412,39.3605 C67.9152157,21.5395 83.1414118,8.09165625 100.988765,8.09165625 L131.941902,8.09165625 C149.791471,8.09165625 165.015451,21.5395 167.372941,39.3605 L167.811647,42.7374375 L182.492784,42.7374375 C201.764824,42.7374375 217.431941,58.432875 217.431941,77.727125 L217.431941,86.2071875 L210.926686,86.2071875 L210.926686,93.9839062 L225.182412,93.9839062 L225.182412,77.727125 C225.173549,70.9333125 223.551667,64.538875 220.717804,58.8211562 C220.717804,58.8211562 215.954835,51.1321068 213.03602,47.916 Z" id="Shape"></path>
                <ellipse id="Oval" cx="41.880902" cy="83.2673438" rx="21.5298235" ry="21.5595938"></ellipse>
                <rect id="Rectangle-1" x="78" y="87" width="67" height="8"></rect>
                <ellipse id="Oval" cx="180.811078" cy="83.2673438" rx="21.5298235" ry="21.5595938"></ellipse>
            </g>
        </g>
    </g>
</svg>