<?xml version="1.0" encoding="UTF-8" standalone="no"?>
<svg width="834px" height="105px" viewBox="0 0 834 105" version="1.1" xmlns="http://www.w3.org/2000/svg" xmlns:xlink="http://www.w3.org/1999/xlink">
    <!-- Generator: Sketch 3.8.3 (29802) - http://www.bohemiancoding.com/sketch -->
    <title>Logo</title>
    <desc>Created with Sketch.</desc>
    <defs></defs>
    <g id="Page-1" stroke="none" stroke-width="1" fill="none" fill-rule="evenodd">
        <g id="Logo">
            <g id="Group">
                <path d="M213.03602,47.916 C205.272255,39.9506875 194.450843,34.9629375 182.470627,34.9629375 L174.472,34.9629375 C170.233392,14.9853125 152.530059,0.3238125 131.926392,0.3238125 L100.975471,0.3238125 C80.385098,0.3238125 62.6640392,14.9853125 58.4342941,34.9629375 L42.7051373,34.9629375 C19.1523922,34.9651562 0,54.1506875 0,77.727125 L0,93.9839062 L13.602098,93.9839062 L13.602098,86.2071875 L7.76376471,86.2071875 L7.76376471,77.727125 C7.76376471,58.4350937 23.433098,42.7374375 42.7029216,42.7374375 L65.1212353,42.7374375 L65.5599412,39.3605 C67.9152157,21.5395 83.1414118,8.09165625 100.988765,8.09165625 L131.941902,8.09165625 C149.791471,8.09165625 165.015451,21.5395 167.372941,39.3605 L167.811647,42.7374375 L182.492784,42.7374375 C201.764824,42.7374375 217.431941,58.432875 217.431941,77.727125 L217.431941,86.2071875 L210.926686,86.2071875 L210.926686,93.9839062 L225.182412,93.9839062 L225.182412,77.727125 C225.173549,70.9333125 223.551667,64.538875 220.717804,58.8211562 C220.717804,58.8211562 215.954835,51.1321068 213.03602,47.916 Z" id="Shape" fill="#FA4986"></path>
                <ellipse id="Oval" fill="#252525" cx="41.880902" cy="83.2673438" rx="21.5298235" ry="21.5595938"></ellipse>
                <rect id="Rectangle-1" fill="#252525" x="78" y="87" width="67" height="8"></rect>
                <ellipse id="Oval" fill="#252525" cx="180.811078" cy="83.2673438" rx="21.5298235" ry="21.5595938"></ellipse>
            </g>
            <path d="M309.573242,50.2617188 C306.291976,48.6796796 302.542013,47.8886719 298.323242,47.8886719 C289.036086,47.8886719 284.392578,52.8251459 284.392578,62.6982422 C284.392578,74.3877538 289.036086,80.2324219 298.323242,80.2324219 C302.542013,80.2324219 306.291976,79.6611385 309.573242,78.5185547 L309.573242,50.2617188 Z M317.703125,84.2314453 C312.107394,86.0771577 305.208049,87 297.004883,87 C283.26458,87 276.394531,79.0020331 276.394531,63.0058594 C276.394531,48.2401605 283.68938,40.8574219 298.279297,40.8574219 C302.263692,40.8574219 306.028303,41.5898364 309.573242,43.0546875 L309.573242,24.1582031 L317.703125,24.1582031 L317.703125,84.2314453 Z M330.886719,87 L330.886719,40.8574219 L336.379883,40.8574219 L337.830078,46.7460938 C341.873067,42.8202929 346.7363,40.8574219 352.419922,40.8574219 L352.419922,47.625 C346.912082,47.625 342.444353,49.5732227 339.016602,53.4697266 L339.016602,87 L330.886719,87 Z M369.558594,40.8574219 L369.558594,87 L361.428711,87 L361.428711,40.8574219 L369.558594,40.8574219 Z M369.558594,24.1582031 L369.558594,31.8486328 L361.428711,31.8486328 L361.428711,24.1582031 L369.558594,24.1582031 Z M377.029297,40.8574219 L385.818359,40.8574219 L399.045898,77.0244141 L412.185547,40.8574219 L420.974609,40.8574219 L402.209961,87 L394.651367,87 L377.029297,40.8574219 Z M446.594727,40.8574219 C459.719792,40.8574219 466.282227,47.3466148 466.282227,60.3251953 C466.282227,62.1709077 466.150392,64.148427 465.886719,66.2578125 L433.499023,66.2578125 C433.499023,75.6914534 439.006781,80.4082031 450.022461,80.4082031 C455.266628,80.4082031 459.924784,79.8222715 463.99707,78.6503906 L463.99707,85.2421875 C459.924784,86.4140684 454.973662,87 449.143555,87 C433.293866,87 425.369141,79.1338677 425.369141,63.4013672 C425.369141,48.3719952 432.444265,40.8574219 446.594727,40.8574219 L446.594727,40.8574219 Z M433.499023,59.4902344 L458.459961,59.4902344 C458.284179,51.4042564 454.32914,47.3613281 446.594727,47.3613281 C438.391561,47.3613281 434.02637,51.4042564 433.499023,59.4902344 L433.499023,59.4902344 Z M530.178711,50.2617188 C526.897445,48.6796796 523.147482,47.8886719 518.928711,47.8886719 C509.641555,47.8886719 504.998047,52.8251459 504.998047,62.6982422 C504.998047,74.3877538 509.641555,80.2324219 518.928711,80.2324219 C523.147482,80.2324219 526.897445,79.6611385 530.178711,78.5185547 L530.178711,50.2617188 Z M538.308594,84.2314453 C532.712863,86.0771577 525.813518,87 517.610352,87 C503.870048,87 497,79.0020331 497,63.0058594 C497,48.2401605 504.294849,40.8574219 518.884766,40.8574219 C522.869161,40.8574219 526.633771,41.5898364 530.178711,43.0546875 L530.178711,24.1582031 L538.308594,24.1582031 L538.308594,84.2314453 Z M551.492188,87 L551.492188,40.8574219 L556.985352,40.8574219 L558.435547,46.7460938 C562.478536,42.8202929 567.341768,40.8574219 573.025391,40.8574219 L573.025391,47.625 C567.517551,47.625 563.049822,49.5732227 559.62207,53.4697266 L559.62207,87 L551.492188,87 Z M590.164062,40.8574219 L590.164062,87 L582.03418,87 L582.03418,40.8574219 L590.164062,40.8574219 Z M590.164062,24.1582031 L590.164062,31.8486328 L582.03418,31.8486328 L582.03418,24.1582031 L590.164062,24.1582031 Z M597.634766,40.8574219 L606.423828,40.8574219 L619.651367,77.0244141 L632.791016,40.8574219 L641.580078,40.8574219 L622.81543,87 L615.256836,87 L597.634766,40.8574219 Z M667.200195,40.8574219 C680.325261,40.8574219 686.887695,47.3466148 686.887695,60.3251953 C686.887695,62.1709077 686.755861,64.148427 686.492188,66.2578125 L654.104492,66.2578125 C654.104492,75.6914534 659.61225,80.4082031 670.62793,80.4082031 C675.872097,80.4082031 680.530253,79.8222715 684.602539,78.6503906 L684.602539,85.2421875 C680.530253,86.4140684 675.579131,87 669.749023,87 C653.899335,87 645.974609,79.1338677 645.974609,63.4013672 C645.974609,48.3719952 653.049734,40.8574219 667.200195,40.8574219 L667.200195,40.8574219 Z M654.104492,59.4902344 L679.06543,59.4902344 C678.889648,51.4042564 674.934609,47.3613281 667.200195,47.3613281 C658.997029,47.3613281 654.631839,51.4042564 654.104492,59.4902344 L654.104492,59.4902344 Z" id="drive-drive" fill="#252525"></path>
            <path d="M752.796387,86.6816406 C748.987774,87.5605513 745.032735,88 740.931152,88 C724.52482,88 716.321777,80.0166814 716.321777,64.0498047 C716.321777,49.2548088 724.52482,41.8574219 740.931152,41.8574219 C745.032735,41.8574219 748.987774,42.2968706 752.796387,43.1757812 L752.796387,52.4042969 C748.987774,51.5253862 745.325701,51.0859375 741.810059,51.0859375 C732.581497,51.0859375 727.967285,55.4071833 727.967285,64.0498047 C727.967285,73.8643069 732.581497,78.7714844 741.810059,78.7714844 C745.325701,78.7714844 748.987774,78.3320356 752.796387,77.453125 L752.796387,86.6816406 Z M758.289551,73.6298828 C758.289551,64.4599151 764.969171,59.875 778.328613,59.875 C781.463395,59.875 784.598129,60.1679658 787.73291,60.7539062 L787.73291,57.2822266 C787.73291,53.1513465 784.759307,51.0859375 778.812012,51.0859375 C773.772924,51.0859375 768.177277,51.8183521 762.024902,53.2832031 L762.024902,44.0546875 C768.177277,42.5898364 773.772924,41.8574219 778.812012,41.8574219 C792.523018,41.8574219 799.378418,46.9257306 799.378418,57.0625 L799.378418,88 L792.61084,88 L788.47998,83.8691406 C784.466289,86.6230606 780.042505,88 775.208496,88 C763.929143,88 758.289551,83.2100088 758.289551,73.6298828 L758.289551,73.6298828 Z M778.328613,67.7851562 C772.732882,67.7851562 769.935059,69.6894341 769.935059,73.4980469 C769.935059,77.5996299 772.278785,79.6503906 776.966309,79.6503906 C780.833515,79.6503906 784.422347,78.4492308 787.73291,76.046875 L787.73291,68.6640625 C784.803208,68.0781221 781.668474,67.7851562 778.328613,67.7851562 L778.328613,67.7851562 Z M810.364746,88 L810.364746,41.8574219 L819.373535,41.8574219 L820.82373,47.7460938 C824.866719,43.8202929 829.14402,41.8574219 833.655762,41.8574219 L833.655762,51.2617188 C829.319803,51.2617188 825.438005,53.0634585 822.010254,56.6669922 L822.010254,88 L810.364746,88 Z" id="car" fill="#FA4986"></path>
        </g>
    </g>
</svg>