<?xml version="1.0" encoding="UTF-8" standalone="no"?>
<svg width="103px" height="3197px" viewBox="0 0 103 3197" version="1.1" xmlns="http://www.w3.org/2000/svg" xmlns:xlink="http://www.w3.org/1999/xlink">
    <!-- Generator: Sketch 3.8.3 (29802) - http://www.bohemiancoding.com/sketch -->
    <title>Group 4</title>
    <desc>Created with Sketch.</desc>
    <defs></defs>
    <g id="Page-1" stroke="none" stroke-width="1" fill="none" fill-rule="evenodd">
        <g id="Desktop-HD" transform="translate(-669.000000, -97.000000)">
            <g id="Group-4" transform="translate(669.000000, 97.000000)">
                <g id="Group-3">
                    <g id="Group-2" transform="translate(51.500000, 400.000000) rotate(90.000000) translate(-51.500000, -400.000000) translate(-348.500000, 348.500000)">
                        <g id="Group-23" transform="translate(0.000000, -0.000000)">
                            <polygon id="Fill-20" fill="#4D4D4D" points="0.06 91.325 800 91.325 800 11.851 0.06 11.851"></polygon>
                            <polygon id="Fill-22" fill="#FFFFFF" points="0.06 96 800 96 800 91.325 0.06 91.325"></polygon>
                            <polygon id="Fill-22-Copy" fill="#4D4D4D" points="0.06 102.797 800 102.797 800 96.325 0.06 96.325"></polygon>
                            <polygon id="Fill-22-Copy-3" fill="#FFFFFF" points="0.06 12 800 12 800 7.325 0.06 7.325"></polygon>
                            <polygon id="Fill-22-Copy-2" fill="#4D4D4D" points="0.06 6.797 800 6.797 800 0.325 0.06 0.325"></polygon>
                        </g>
                        <g id="Group" transform="translate(20.000000, 48.000000)" fill="#FFFFFF">
                            <polygon id="Fill-24" points="721.272 6.588 759.921 6.588 759.921 0.588 721.272 0.588"></polygon>
                            <polygon id="Fill-25" points="661.173 6.588 699.821 6.588 699.821 0.588 661.173 0.588"></polygon>
                            <polygon id="Fill-26" points="601.073 6.588 639.722 6.588 639.722 0.588 601.073 0.588"></polygon>
                            <polygon id="Fill-27" points="540.974 6.588 579.622 6.588 579.622 0.588 540.974 0.588"></polygon>
                            <polygon id="Fill-28" points="480.875 6.588 519.523 6.588 519.523 0.588 480.875 0.588"></polygon>
                            <polygon id="Fill-29" points="420.775 6.588 459.424 6.588 459.424 0.588 420.775 0.588"></polygon>
                            <polygon id="Fill-30" points="360.676 6.588 399.324 6.588 399.324 0.588 360.676 0.588"></polygon>
                            <polygon id="Fill-31" points="300.576 6.588 339.225 6.588 339.225 0.588 300.576 0.588"></polygon>
                            <polygon id="Fill-32" points="240.477 6.588 279.125 6.588 279.125 0.588 240.477 0.588"></polygon>
                            <polygon id="Fill-33" points="180.377 6.588 219.026 6.588 219.026 0.588 180.377 0.588"></polygon>
                            <polygon id="Fill-34" points="120.278 6.588 158.927 6.588 158.927 0.588 120.278 0.588"></polygon>
                            <polygon id="Fill-35" points="60.179 6.588 98.827 6.588 98.827 0.588 60.179 0.588"></polygon>
                            <polygon id="Fill-36" points="0.079 6.588 38.728 6.588 38.728 0.588 0.079 0.588"></polygon>
                        </g>
                    </g>
                    <g id="Group-2-Copy" transform="translate(51.500000, 1199.000000) rotate(90.000000) translate(-51.500000, -1199.000000) translate(-348.500000, 1147.500000)">
                        <g id="Group-23" transform="translate(0.000000, -0.000000)">
                            <polygon id="Fill-20" fill="#4D4D4D" points="0.06 91.325 800 91.325 800 11.851 0.06 11.851"></polygon>
                            <polygon id="Fill-22" fill="#FFFFFF" points="0.06 96 800 96 800 91.325 0.06 91.325"></polygon>
                            <polygon id="Fill-22-Copy" fill="#4D4D4D" points="0.06 102.797 800 102.797 800 96.325 0.06 96.325"></polygon>
                            <polygon id="Fill-22-Copy-3" fill="#FFFFFF" points="0.06 12 800 12 800 7.325 0.06 7.325"></polygon>
                            <polygon id="Fill-22-Copy-2" fill="#4D4D4D" points="0.06 6.797 800 6.797 800 0.325 0.06 0.325"></polygon>
                        </g>
                        <g id="Group" transform="translate(20.000000, 48.000000)" fill="#FFFFFF">
                            <polygon id="Fill-24" points="721.272 6.588 759.921 6.588 759.921 0.588 721.272 0.588"></polygon>
                            <polygon id="Fill-25" points="661.173 6.588 699.821 6.588 699.821 0.588 661.173 0.588"></polygon>
                            <polygon id="Fill-26" points="601.073 6.588 639.722 6.588 639.722 0.588 601.073 0.588"></polygon>
                            <polygon id="Fill-27" points="540.974 6.588 579.622 6.588 579.622 0.588 540.974 0.588"></polygon>
                            <polygon id="Fill-28" points="480.875 6.588 519.523 6.588 519.523 0.588 480.875 0.588"></polygon>
                            <polygon id="Fill-29" points="420.775 6.588 459.424 6.588 459.424 0.588 420.775 0.588"></polygon>
                            <polygon id="Fill-30" points="360.676 6.588 399.324 6.588 399.324 0.588 360.676 0.588"></polygon>
                            <polygon id="Fill-31" points="300.576 6.588 339.225 6.588 339.225 0.588 300.576 0.588"></polygon>
                            <polygon id="Fill-32" points="240.477 6.588 279.125 6.588 279.125 0.588 240.477 0.588"></polygon>
                            <polygon id="Fill-33" points="180.377 6.588 219.026 6.588 219.026 0.588 180.377 0.588"></polygon>
                            <polygon id="Fill-34" points="120.278 6.588 158.927 6.588 158.927 0.588 120.278 0.588"></polygon>
                            <polygon id="Fill-35" points="60.179 6.588 98.827 6.588 98.827 0.588 60.179 0.588"></polygon>
                            <polygon id="Fill-36" points="0.079 6.588 38.728 6.588 38.728 0.588 0.079 0.588"></polygon>
                        </g>
                    </g>
                </g>
                <g id="Group-3-Copy" transform="translate(0.000000, 1598.000000)">
                    <g id="Group-2-Copy-2" transform="translate(51.500000, 400.000000) rotate(90.000000) translate(-51.500000, -400.000000) translate(-348.500000, 348.500000)">
                        <g id="Group-23" transform="translate(0.000000, -0.000000)">
                            <polygon id="Fill-20" fill="#4D4D4D" points="0.06 91.325 800 91.325 800 11.851 0.06 11.851"></polygon>
                            <polygon id="Fill-22" fill="#FFFFFF" points="0.06 96 800 96 800 91.325 0.06 91.325"></polygon>
                            <polygon id="Fill-22-Copy" fill="#4D4D4D" points="0.06 102.797 800 102.797 800 96.325 0.06 96.325"></polygon>
                            <polygon id="Fill-22-Copy-3" fill="#FFFFFF" points="0.06 12 800 12 800 7.325 0.06 7.325"></polygon>
                            <polygon id="Fill-22-Copy-2" fill="#4D4D4D" points="0.06 6.797 800 6.797 800 0.325 0.06 0.325"></polygon>
                        </g>
                        <g id="Group" transform="translate(20.000000, 48.000000)" fill="#FFFFFF">
                            <polygon id="Fill-24" points="721.272 6.588 759.921 6.588 759.921 0.588 721.272 0.588"></polygon>
                            <polygon id="Fill-25" points="661.173 6.588 699.821 6.588 699.821 0.588 661.173 0.588"></polygon>
                            <polygon id="Fill-26" points="601.073 6.588 639.722 6.588 639.722 0.588 601.073 0.588"></polygon>
                            <polygon id="Fill-27" points="540.974 6.588 579.622 6.588 579.622 0.588 540.974 0.588"></polygon>
                            <polygon id="Fill-28" points="480.875 6.588 519.523 6.588 519.523 0.588 480.875 0.588"></polygon>
                            <polygon id="Fill-29" points="420.775 6.588 459.424 6.588 459.424 0.588 420.775 0.588"></polygon>
                            <polygon id="Fill-30" points="360.676 6.588 399.324 6.588 399.324 0.588 360.676 0.588"></polygon>
                            <polygon id="Fill-31" points="300.576 6.588 339.225 6.588 339.225 0.588 300.576 0.588"></polygon>
                            <polygon id="Fill-32" points="240.477 6.588 279.125 6.588 279.125 0.588 240.477 0.588"></polygon>
                            <polygon id="Fill-33" points="180.377 6.588 219.026 6.588 219.026 0.588 180.377 0.588"></polygon>
                            <polygon id="Fill-34" points="120.278 6.588 158.927 6.588 158.927 0.588 120.278 0.588"></polygon>
                            <polygon id="Fill-35" points="60.179 6.588 98.827 6.588 98.827 0.588 60.179 0.588"></polygon>
                            <polygon id="Fill-36" points="0.079 6.588 38.728 6.588 38.728 0.588 0.079 0.588"></polygon>
                        </g>
                    </g>
                    <g id="Group-2-Copy-3" transform="translate(51.500000, 1199.000000) rotate(90.000000) translate(-51.500000, -1199.000000) translate(-348.500000, 1147.500000)">
                        <g id="Group-23" transform="translate(0.000000, -0.000000)">
                            <polygon id="Fill-20" fill="#4D4D4D" points="0.06 91.325 800 91.325 800 11.851 0.06 11.851"></polygon>
                            <polygon id="Fill-22" fill="#FFFFFF" points="0.06 96 800 96 800 91.325 0.06 91.325"></polygon>
                            <polygon id="Fill-22-Copy" fill="#4D4D4D" points="0.06 102.797 800 102.797 800 96.325 0.06 96.325"></polygon>
                            <polygon id="Fill-22-Copy-3" fill="#FFFFFF" points="0.06 12 800 12 800 7.325 0.06 7.325"></polygon>
                            <polygon id="Fill-22-Copy-2" fill="#4D4D4D" points="0.06 6.797 800 6.797 800 0.325 0.06 0.325"></polygon>
                        </g>
                        <g id="Group" transform="translate(20.000000, 48.000000)" fill="#FFFFFF">
                            <polygon id="Fill-24" points="721.272 6.588 759.921 6.588 759.921 0.588 721.272 0.588"></polygon>
                            <polygon id="Fill-25" points="661.173 6.588 699.821 6.588 699.821 0.588 661.173 0.588"></polygon>
                            <polygon id="Fill-26" points="601.073 6.588 639.722 6.588 639.722 0.588 601.073 0.588"></polygon>
                            <polygon id="Fill-27" points="540.974 6.588 579.622 6.588 579.622 0.588 540.974 0.588"></polygon>
                            <polygon id="Fill-28" points="480.875 6.588 519.523 6.588 519.523 0.588 480.875 0.588"></polygon>
                            <polygon id="Fill-29" points="420.775 6.588 459.424 6.588 459.424 0.588 420.775 0.588"></polygon>
                            <polygon id="Fill-30" points="360.676 6.588 399.324 6.588 399.324 0.588 360.676 0.588"></polygon>
                            <polygon id="Fill-31" points="300.576 6.588 339.225 6.588 339.225 0.588 300.576 0.588"></polygon>
                            <polygon id="Fill-32" points="240.477 6.588 279.125 6.588 279.125 0.588 240.477 0.588"></polygon>
                            <polygon id="Fill-33" points="180.377 6.588 219.026 6.588 219.026 0.588 180.377 0.588"></polygon>
                            <polygon id="Fill-34" points="120.278 6.588 158.927 6.588 158.927 0.588 120.278 0.588"></polygon>
                            <polygon id="Fill-35" points="60.179 6.588 98.827 6.588 98.827 0.588 60.179 0.588"></polygon>
                            <polygon id="Fill-36" points="0.079 6.588 38.728 6.588 38.728 0.588 0.079 0.588"></polygon>
                        </g>
                    </g>
                </g>
            </g>
        </g>
    </g>
</svg>