<?xml version="1.0" encoding="UTF-8" standalone="no"?>
<svg width="40px" height="40px" viewBox="0 0 40 40" version="1.1" xmlns="http://www.w3.org/2000/svg" xmlns:xlink="http://www.w3.org/1999/xlink" xmlns:sketch="http://www.bohemiancoding.com/sketch/ns">
    <!-- Generator: Sketch 3.4 (15575) - http://www.bohemiancoding.com/sketch -->
    <title>search</title>
    <desc>Created with Sketch.</desc>
    <defs></defs>
    <g id="Page-1" stroke="none" stroke-width="1" fill="none" fill-rule="evenodd" sketch:type="MSPage">
        <g id="search" sketch:type="MSLayerGroup">
            <g id="Page-1" sketch:type="MSShapeGroup">
                <g id="search">
                    <g id="Group" fill="#616161">
                        <rect id="Rectangle-path" transform="translate(32.598400, 32.586000) rotate(-45.000000) translate(-32.598400, -32.586000) " x="30.598702" y="24.0872836" width="3.99939595" height="16.9974328"></rect>
                        <circle id="Oval" cx="16" cy="16" r="16"></circle>
                    </g>
                    <rect id="Rectangle-path" fill="#37474F" transform="translate(34.211150, 34.274350) rotate(-45.000000) translate(-34.211150, -34.274350) " x="32.211452" y="28.1252787" width="3.99939595" height="12.2981426"></rect>
                    <circle id="Oval" fill="#64B5F6" cx="16" cy="16" r="13"></circle>
                    <path d="M22.9,10.2 C21.2,8.2 18.7,7 16,7 C13.3,7 10.8,8.2 9.1,10.2 C8.7,10.6 8.8,11.3 9.2,11.6 C9.6,12 10.3,11.9 10.6,11.5 C12,9.9 13.9,9 16,9 C18.1,9 20,9.9 21.4,11.5 C21.6,11.7 21.9,11.9 22.2,11.9 C22.4,11.9 22.7,11.8 22.8,11.7 C23.2,11.3 23.2,10.6 22.9,10.2 L22.9,10.2 L22.9,10.2 Z" id="Shape" fill="#BBDEFB"></path>
                </g>
            </g>
        </g>
    </g>
</svg>