<?xml version="1.0" encoding="UTF-8"?>
<svg width="73px" height="100px" viewBox="0 0 73 100" version="1.1" xmlns="http://www.w3.org/2000/svg" xmlns:xlink="http://www.w3.org/1999/xlink">
    <!-- Generator: Sketch 39.1 (31720) - http://www.bohemiancoding.com/sketch -->
    <title>siren</title>
    <desc>Created with Sketch.</desc>
    <defs></defs>
    <g id="Page-1" stroke="none" stroke-width="1" fill="none" fill-rule="evenodd">
        <g id="Desktop-HD" transform="translate(-807.000000, -776.000000)" fill="#252525">
            <g id="siren" transform="translate(807.738886, 776.000000)">
                <g id="Layer_1">
                    <path d="M22.1047239,6 C21.0016334,6 20.107262,6.89550781 20.107262,8 L20.107262,60 C20.107262,61.1044922 21.0016334,62 22.1047239,62 C23.2078143,62 24.1021857,61.1044922 24.1021857,60 L24.1021857,8 C24.1021857,6.89550781 23.2078143,6 22.1047239,6 L22.1047239,6 Z" id="Shape"></path>
                    <path d="M32.0920329,6 C30.9889424,6 30.0945711,6.89550781 30.0945711,8 L30.0945711,60 C30.0945711,61.1044922 30.9889424,62 32.0920329,62 C33.1951234,62 34.0894947,61.1044922 34.0894947,60 L34.0894947,8 C34.0894947,6.89550781 33.1951234,6 32.0920329,6 L32.0920329,6 Z" id="Shape"></path>
                    <path d="M42.079342,6 C40.9762515,6 40.0818801,6.89550781 40.0818801,8 L40.0818801,60 C40.0818801,61.1044922 40.9762515,62 42.079342,62 C43.1824324,62 44.0768038,61.1044922 44.0768038,60 L44.0768038,8 C44.0768038,6.89550781 43.1824324,6 42.079342,6 L42.079342,6 Z" id="Shape"></path>
                    <path d="M52.066651,6 C50.9635605,6 50.0691892,6.89550781 50.0691892,8 L50.0691892,60 C50.0691892,61.1044922 50.9635605,62 52.066651,62 C53.1697415,62 54.0641128,61.1044922 54.0641128,60 L54.0641128,8 C54.0641128,6.89550781 53.1697415,6 52.066651,6 L52.066651,6 Z" id="Shape"></path>
                    <path d="M65.9318449,64.0619141 L62.0500588,1.87519531 C61.984322,0.821289062 61.1112127,0 60.0564982,0 L14.1148766,0 C13.0601622,0 12.1870529,0.821289062 12.1213161,1.87519531 L8.24343126,64 L7.12395535,64 C3.26908813,64 0.132643948,67.1402344 0.132643948,71 C0.132643948,74.8597656 3.26908813,78 7.12395535,78 L10.119953,78 L10.119953,98 C10.119953,99.1044922 11.0143243,100 12.1174148,100 L62.05396,100 C63.1570505,100 64.0514219,99.1044922 64.0514219,98 L64.0514219,78 L65.0499577,78 C68.9048249,78 72.0412691,74.8597656 72.0412691,71 C72.0412691,67.4398437 69.3710294,64.4982422 65.9318449,64.0619141 L65.9318449,64.0619141 Z M15.9913984,4 L58.1799765,4 L61.9252174,64 L12.2461575,64 L15.9913984,4 L15.9913984,4 Z M60.0564982,96 L14.1148766,96 L14.1148766,78 L60.0564982,78 L60.0564982,96 L60.0564982,96 Z M65.0499577,74 L62.05396,74 L12.1174148,74 L7.12395535,74 C5.47175793,74 4.12756757,72.6542969 4.12756757,71 C4.12756757,69.3457031 5.47175793,68 7.12395535,68 L10.119953,68 L64.0514219,68 L65.0499577,68 C66.7021551,68 68.0463455,69.3457031 68.0463455,71 C68.0463455,72.6542969 66.7021551,74 65.0499577,74 L65.0499577,74 Z" id="Shape"></path>
                </g>
            </g>
        </g>
    </g>
</svg>