<?xml version="1.0" encoding="UTF-8" standalone="no"?>
<svg width="83px" height="83px" viewBox="0 0 83 83" version="1.1" xmlns="http://www.w3.org/2000/svg" xmlns:xlink="http://www.w3.org/1999/xlink">
    <!-- Generator: Sketch 3.6.1 (26313) - http://www.bohemiancoding.com/sketch -->
    <title></title>
    <desc>Created with Sketch.</desc>
    <defs></defs>
    <g id="Page-1" stroke="none" stroke-width="1" fill="none" fill-rule="evenodd">
        <g id="Desktop-HD" transform="translate(-764.000000, -429.000000)" fill="#2ECC71">
            <path d="M788.540865,462.519231 L801.310096,475.288462 L837.024038,439.774038 L842.810096,445.560096 L801.310096,487.060096 L782.754808,468.504808 L788.540865,462.519231 Z M838.620192,470.5 L847,470.5 C847,481.93916 842.94315,491.715504 834.829327,499.829327 C826.715504,507.94315 816.93916,512 805.5,512 C794.06084,512 784.284496,507.94315 776.170673,499.829327 C768.05685,491.715504 764,481.93916 764,470.5 C764,459.06084 768.05685,449.284496 776.170673,441.170673 C784.284496,433.05685 794.06084,429 805.5,429 C810.820539,429 816.007988,430.064092 821.0625,432.192308 L814.677885,438.576923 C811.751588,437.778842 808.692324,437.379808 805.5,437.379808 C796.322069,437.379808 788.507644,440.605336 782.05649,447.05649 C775.605336,453.507644 772.379808,461.322069 772.379808,470.5 C772.379808,479.677931 775.605336,487.492356 782.05649,493.94351 C788.507644,500.394664 796.322069,503.620192 805.5,503.620192 C814.677931,503.620192 822.492356,500.394664 828.94351,493.94351 C835.394664,487.492356 838.620192,479.677931 838.620192,470.5 L838.620192,470.5 Z" id=""></path>
        </g>
    </g>
</svg>