<?xml version="1.0" encoding="UTF-8"?>
<svg width="100px" height="100px" viewBox="0 0 100 100" version="1.1" xmlns="http://www.w3.org/2000/svg" xmlns:xlink="http://www.w3.org/1999/xlink">
    <!-- Generator: Sketch 39.1 (31720) - http://www.bohemiancoding.com/sketch -->
    <title>calendar (1)</title>
    <desc>Created with Sketch.</desc>
    <defs></defs>
    <g id="Page-1" stroke="none" stroke-width="1" fill="none" fill-rule="evenodd">
        <g id="Desktop-HD" transform="translate(-1091.000000, -647.000000)" fill="#252525">
            <g id="calendar-(1)" transform="translate(1091.000000, 647.000000)">
                <g id="Capa_1">
                    <g id="Group">
                        <path d="M73.9637931,7.75862069 C73.162069,3.82931034 69.6810345,0.862068966 65.5172414,0.862068966 C64.5655172,0.862068966 63.7931034,1.63275862 63.7931034,2.5862069 C63.7931034,3.53965517 64.5655172,4.31034483 65.5172414,4.31034483 C68.3689655,4.31034483 70.6896552,6.63103448 70.6896552,9.48275862 C70.6896552,12.3344828 68.3689655,14.6551724 65.5172414,14.6551724 C64.5655172,14.6551724 63.7931034,15.4258621 63.7931034,16.3793103 C63.7931034,17.3327586 64.5655172,18.1034483 65.5172414,18.1034483 C69.6793103,18.1034483 73.162069,15.1362069 73.9637931,11.2068966 L96.5517241,11.2068966 L96.5517241,26.7241379 L3.44827586,26.7241379 L3.44827586,11.2068966 L27.5862069,11.2068966 L32.7586207,11.2068966 C33.7103448,11.2068966 34.4827586,10.4362069 34.4827586,9.48275862 C34.4827586,8.52931034 33.7103448,7.75862069 32.7586207,7.75862069 L29.6275862,7.75862069 C30.3413793,5.75517241 32.237931,4.31034483 34.4827586,4.31034483 C37.3344828,4.31034483 39.6551724,6.63103448 39.6551724,9.48275862 C39.6551724,12.3344828 37.3344828,14.6551724 34.4827586,14.6551724 C33.5310345,14.6551724 32.7586207,15.4258621 32.7586207,16.3793103 C32.7586207,17.3327586 33.5310345,18.1034483 34.4827586,18.1034483 C39.2362069,18.1034483 43.1034483,14.2362069 43.1034483,9.48275862 C43.1034483,4.72931034 39.2362069,0.862068966 34.4827586,0.862068966 C30.3206897,0.862068966 26.837931,3.82931034 26.0362069,7.75862069 L0,7.75862069 L0,30.1724138 L0,99.137931 L100,99.137931 L100,30.1724138 L100,7.75862069 L73.9637931,7.75862069 L73.9637931,7.75862069 Z M96.5517241,95.6896552 L3.44827586,95.6896552 L3.44827586,30.1724138 L96.5517241,30.1724138 L96.5517241,95.6896552 L96.5517241,95.6896552 Z" id="Shape"></path>
                        <path d="M44.8275862,4.31034483 C47.6793103,4.31034483 50,6.63103448 50,9.48275862 C50,12.3344828 47.6793103,14.6551724 44.8275862,14.6551724 C43.8758621,14.6551724 43.1034483,15.4258621 43.1034483,16.3793103 C43.1034483,17.3327586 43.8758621,18.1034483 44.8275862,18.1034483 C49.5810345,18.1034483 53.4482759,14.2362069 53.4482759,9.48275862 C53.4482759,4.72931034 49.5810345,0.862068966 44.8275862,0.862068966 C43.8758621,0.862068966 43.1034483,1.63275862 43.1034483,2.5862069 C43.1034483,3.53965517 43.8758621,4.31034483 44.8275862,4.31034483 L44.8275862,4.31034483 Z" id="Shape"></path>
                        <path d="M55.1724138,4.31034483 C58.0241379,4.31034483 60.3448276,6.63103448 60.3448276,9.48275862 C60.3448276,12.3344828 58.0241379,14.6551724 55.1724138,14.6551724 C54.2206897,14.6551724 53.4482759,15.4258621 53.4482759,16.3793103 C53.4482759,17.3327586 54.2206897,18.1034483 55.1724138,18.1034483 C59.9258621,18.1034483 63.7931034,14.2362069 63.7931034,9.48275862 C63.7931034,4.72931034 59.9258621,0.862068966 55.1724138,0.862068966 C54.2206897,0.862068966 53.4482759,1.63275862 53.4482759,2.5862069 C53.4482759,3.53965517 54.2206897,4.31034483 55.1724138,4.31034483 L55.1724138,4.31034483 Z" id="Shape"></path>
                        <path d="M15.5172414,43.9655172 L53.4482759,43.9655172 C54.4,43.9655172 55.1724138,43.1948276 55.1724138,42.2413793 C55.1724138,41.287931 54.4,40.5172414 53.4482759,40.5172414 L15.5172414,40.5172414 C14.5655172,40.5172414 13.7931034,41.287931 13.7931034,42.2413793 C13.7931034,43.1948276 14.5655172,43.9655172 15.5172414,43.9655172 L15.5172414,43.9655172 Z" id="Shape"></path>
                        <path d="M84.4827586,68.1034483 L58.6206897,68.1034483 C57.6689655,68.1034483 56.8965517,68.8741379 56.8965517,69.8275862 C56.8965517,70.7810345 57.6689655,71.5517241 58.6206897,71.5517241 L84.4827586,71.5517241 C85.4344828,71.5517241 86.2068966,70.7810345 86.2068966,69.8275862 C86.2068966,68.8741379 85.4344828,68.1034483 84.4827586,68.1034483 L84.4827586,68.1034483 Z" id="Shape"></path>
                        <path d="M15.5172414,57.7586207 L32.7586207,57.7586207 C33.7103448,57.7586207 34.4827586,56.987931 34.4827586,56.0344828 C34.4827586,55.0810345 33.7103448,54.3103448 32.7586207,54.3103448 L15.5172414,54.3103448 C14.5655172,54.3103448 13.7931034,55.0810345 13.7931034,56.0344828 C13.7931034,56.987931 14.5655172,57.7586207 15.5172414,57.7586207 L15.5172414,57.7586207 Z" id="Shape"></path>
                        <path d="M84.4827586,81.8965517 L67.2413793,81.8965517 C66.2896552,81.8965517 65.5172414,82.6672414 65.5172414,83.6206897 C65.5172414,84.5741379 66.2896552,85.3448276 67.2413793,85.3448276 L84.4827586,85.3448276 C85.4344828,85.3448276 86.2068966,84.5741379 86.2068966,83.6206897 C86.2068966,82.6672414 85.4344828,81.8965517 84.4827586,81.8965517 L84.4827586,81.8965517 Z" id="Shape"></path>
                        <path d="M48.2758621,56.0344828 C48.2758621,56.987931 49.0482759,57.7586207 50,57.7586207 L75.862069,57.7586207 C76.8137931,57.7586207 77.5862069,56.987931 77.5862069,56.0344828 C77.5862069,55.0810345 76.8137931,54.3103448 75.862069,54.3103448 L50,54.3103448 C49.0482759,54.3103448 48.2758621,55.0810345 48.2758621,56.0344828 L48.2758621,56.0344828 Z" id="Shape"></path>
                        <path d="M42.6034483,57.2586207 C42.9137931,56.9310345 43.1034483,56.4827586 43.1034483,56.0344828 C43.1034483,55.5844828 42.9137931,55.1362069 42.6034483,54.8103448 C41.9655172,54.1724138 40.7931034,54.1724138 40.1551724,54.8103448 C39.8448276,55.1362069 39.6551724,55.5844828 39.6551724,56.0344828 C39.6551724,56.4827586 39.8448276,56.9310345 40.1551724,57.2586207 C40.4827586,57.5844828 40.9310345,57.7586207 41.3793103,57.7586207 C41.8275862,57.7586207 42.2758621,57.5844828 42.6034483,57.2586207 L42.6034483,57.2586207 Z" id="Shape"></path>
                        <path d="M22.4137931,69.8275862 C22.4137931,70.7810345 23.1862069,71.5517241 24.137931,71.5517241 L50,71.5517241 C50.9517241,71.5517241 51.7241379,70.7810345 51.7241379,69.8275862 C51.7241379,68.8741379 50.9517241,68.1034483 50,68.1034483 L24.137931,68.1034483 C23.1862069,68.1034483 22.4137931,68.8741379 22.4137931,69.8275862 L22.4137931,69.8275862 Z" id="Shape"></path>
                        <path d="M15.5172414,71.5517241 C15.9655172,71.5517241 16.4137931,71.362069 16.7413793,71.0517241 C17.0517241,70.7241379 17.2413793,70.2758621 17.2413793,69.8275862 C17.2413793,69.3775862 17.0517241,68.9293103 16.7413793,68.6206897 C16.1034483,67.9655172 14.9310345,67.9655172 14.2931034,68.6034483 C13.9827586,68.9293103 13.7931034,69.3775862 13.7931034,69.8275862 C13.7931034,70.2758621 13.9827586,70.7241379 14.2931034,71.0517241 C14.6206897,71.362069 15.0517241,71.5517241 15.5172414,71.5517241 L15.5172414,71.5517241 Z" id="Shape"></path>
                        <path d="M84.4827586,57.7586207 C84.9310345,57.7586207 85.3793103,57.5844828 85.7068966,57.2586207 C86.0344828,56.9310345 86.2068966,56.4827586 86.2068966,56.0344828 C86.2068966,55.5844828 86.0344828,55.1362069 85.7068966,54.8103448 C85.0517241,54.1724138 83.8965517,54.1724138 83.2586207,54.8103448 C82.9482759,55.1362069 82.7586207,55.5844828 82.7586207,56.0344828 C82.7586207,56.4827586 82.9482759,56.9310345 83.2586207,57.2586207 C83.5862069,57.5844828 84.0344828,57.7586207 84.4827586,57.7586207 L84.4827586,57.7586207 Z" id="Shape"></path>
                        <path d="M58.6206897,81.8965517 L15.5172414,81.8965517 C14.5655172,81.8965517 13.7931034,82.6672414 13.7931034,83.6206897 C13.7931034,84.5741379 14.5655172,85.3448276 15.5172414,85.3448276 L58.6206897,85.3448276 C59.5724138,85.3448276 60.3448276,84.5741379 60.3448276,83.6206897 C60.3448276,82.6672414 59.5724138,81.8965517 58.6206897,81.8965517 L58.6206897,81.8965517 Z" id="Shape"></path>
                    </g>
                </g>
            </g>
        </g>
    </g>
</svg>